<svg xmlns:xlink="http://www.w3.org/1999/xlink" xmlns="http://www.w3.org/2000/svg" width="300" height="148" preserveAspectRatio="xMidYMid meet" viewBox="4.615738191660057e-8 -4.7018460236358806e-7 300 46.83694076538086" overflow="visible"><defs id="SvgjsDefs1235"></defs><g id="SvgjsG1236" transform="scale(0.7171262278332212)" opacity="1"><g id="SvgjsG1237" class="b2tEAEpf1q" transform="translate(-3.626991682524961, -3.628444444444444) scale(0.7256888888888888)" light-content="false" non-strokable="false" fill="#FFFFFF"><path d="M51.508 31.537a.858.858 0 0 1-.855.856h-.22a.858.858 0 0 1-.856-.856V26.56c0-.471.385-.856.856-.856h.22c.472 0 .855.385.855.856v4.977zm8.971 3.193a.854.854 0 0 1-1.166.317l-.201-.115a.858.858 0 0 1-.316-1.168l2.473-4.317a.859.859 0 0 1 1.168-.317l.198.114c.408.234.552.76.317 1.169l-2.473 4.317zm6.178 7.226a.858.858 0 0 1-1.171-.308l-.11-.193a.859.859 0 0 1 .31-1.172l4.293-2.506a.861.861 0 0 1 1.172.307l.109.188c.238.406.1.933-.307 1.171l-4.296 2.513zm1.766 9.343a.854.854 0 0 1-.86-.85v-.221a.86.86 0 0 1 .853-.862l4.967-.037a.86.86 0 0 1 .864.85l.003.218a.857.857 0 0 1-.849.863l-4.978.039zm-3.116 8.993a.856.856 0 0 1-.326-1.164l.109-.194a.86.86 0 0 1 1.167-.326l4.335 2.438c.41.23.559.756.327 1.166l-.107.188a.86.86 0 0 1-1.166.328l-4.339-2.436zm-7.179 6.237a.855.855 0 0 1 .299-1.17l.196-.114a.864.864 0 0 1 1.176.301l2.542 4.269a.862.862 0 0 1-.296 1.176l-.188.111a.858.858 0 0 1-1.174-.295l-2.555-4.278zm-9.325 1.844a.854.854 0 0 1 .842-.866l.225-.004a.862.862 0 0 1 .869.845l.079 4.971a.858.858 0 0 1-.841.871l-.223.004a.853.853 0 0 1-.869-.838l-.082-4.983zm-9.017-3.036a.856.856 0 0 1 1.162-.335l.194.107a.86.86 0 0 1 .335 1.164l-2.402 4.349a.86.86 0 0 1-1.164.336l-.188-.104a.858.858 0 0 1-.337-1.162l2.4-4.355zm-6.298-7.121a.854.854 0 0 1 1.172.29l.114.189a.864.864 0 0 1-.292 1.178l-4.25 2.576a.859.859 0 0 1-1.175-.289l-.113-.188a.86.86 0 0 1 .289-1.178l4.255-2.578zm-1.923-9.315a.85.85 0 0 1 .871.834l.003.216a.866.866 0 0 1-.841.877l-4.969.126a.854.854 0 0 1-.874-.834l-.004-.218a.864.864 0 0 1 .838-.877l4.976-.124zm2.966-9.04a.854.854 0 0 1 .343 1.158l-.105.192a.864.864 0 0 1-1.164.343l-4.37-2.366a.86.86 0 0 1-.346-1.161l.101-.187a.859.859 0 0 1 1.16-.346l4.381 2.367zm7.066-6.36a.855.855 0 0 1-.279 1.176l-.187.114a.861.861 0 0 1-1.18-.281l-2.611-4.229a.858.858 0 0 1 .278-1.178l.186-.115a.859.859 0 0 1 1.179.279l2.614 4.234zm13.585 16a4.725 4.725 0 0 1-6.956 4.171l-2.392 2.386-1.609-1.604 2.312-2.312a4.719 4.719 0 0 1-.808-2.641 4.73 4.73 0 0 1 4.729-4.723c1.043 0 2.007.336 2.783.911l12.448-11.45.615.612L54.77 47.564a4.8 4.8 0 0 1 .412 1.937z" fill="#FFFFFF"></path><path d="M87.635 49.32a37.263 37.263 0 0 0-1.613-10.308l6.153-4.819-4.586-9.028-7.555 2.163a37.367 37.367 0 0 0-7.362-7.388l2.139-7.531-8.979-4.585-4.848 6.154a39.342 39.342 0 0 0-5.082-1.165 38.961 38.961 0 0 0-5.202-.473L47.993 5l-9.978 1.566-.306 7.838a37.828 37.828 0 0 0-9.29 4.75l-6.509-4.393-7.151 7.148 4.371 6.509a36.894 36.894 0 0 0-4.723 9.312l-7.84.284-1.569 9.977L12.34 50.7c.07 3.542.615 7.011 1.636 10.282l-6.175 4.853 4.609 8.999 7.531-2.143a38.662 38.662 0 0 0 7.362 7.369l-2.138 7.53 9.026 4.582 4.82-6.153c1.664.502 3.35.881 5.108 1.168 1.734.281 3.469.422 5.2.446L52.007 95l9.999-1.564.287-7.844a36.779 36.779 0 0 0 9.264-4.748l6.508 4.368 7.151-7.151-4.37-6.457a37.266 37.266 0 0 0 4.75-9.311l7.812-.288 1.594-9.972-7.367-2.713zm-9.167 5.203c-2.495 15.722-17.245 26.437-32.967 23.94-15.728-2.468-26.462-17.239-23.969-32.966 2.493-15.725 17.27-26.463 32.993-23.967 15.7 2.494 26.439 17.271 23.943 32.993z" fill="#FFFFFF"></path></g><g id="SvgjsG1238" class="text" transform="translate(254.01639506512583, 52.79599923706054) scale(1)" light-content="false" fill="#FFFFFF"><path d="M-131.51 -33.52C-131.09 -33.52 -130.69 -33.67 -130.3 -33.98C-129.92 -34.28 -129.69 -34.64 -129.61 -35.06L-128.91 -38.33C-128.64 -39.52 -129.06 -40.12 -130.18 -40.12L-139.33 -40.12L-144.03 -40.12L-154.01 -40.12C-154.56 -40.12 -154.94 -40.05 -155.16 -39.91C-155.39 -39.78 -155.56 -39.48 -155.66 -39.01L-156.56 -35.52C-156.74 -34.8 -156.75 -34.28 -156.58 -33.98C-156.42 -33.67 -156.06 -33.52 -155.5 -33.52L-147.06 -33.52L-155.18 -1.7C-155.29 -1.24 -155.24 -0.83 -155.04 -0.5C-154.84 -0.17 -154.52 0 -154.07 0L-149.36 0C-148.46 0 -147.9 -0.41 -147.68 -1.22L-139.46 -33.52Z M-113.88 -38.9L-123.38 -1.7C-123.48 -1.24 -123.44 -0.83 -123.24 -0.5C-123.04 -0.17 -122.72 0 -122.27 0L-117.56 0C-116.66 0 -116.1 -0.41 -115.88 -1.22L-106.41 -38.39C-106.31 -38.85 -106.35 -39.26 -106.55 -39.6C-106.75 -39.95 -107.07 -40.12 -107.52 -40.12L-112.23 -40.12C-113.11 -40.12 -113.66 -39.71 -113.88 -38.9Z M-86.6 -38.9L-96.09 -1.7C-96.2 -1.24 -96.16 -0.83 -95.96 -0.5C-95.76 -0.17 -95.43 0 -94.98 0L-90.28 0C-89.37 0 -88.82 -0.41 -88.6 -1.22L-83.46 -21.37C-83.35 -18.25 -83.39 -15.34 -83.57 -12.63C-83.66 -11.3 -83.06 -10.56 -81.78 -10.41L-78.13 -10.04C-76.78 -10.04 -75.6 -10.88 -74.59 -12.58C-73.74 -14.02 -72.53 -16.02 -70.96 -18.58L-75.26 -1.7C-75.37 -1.24 -75.33 -0.83 -75.13 -0.5C-74.93 -0.17 -74.6 0 -74.15 0L-69.42 0C-68.54 0 -67.99 -0.41 -67.77 -1.22L-58.3 -38.39C-58.19 -38.85 -58.24 -39.26 -58.44 -39.6C-58.63 -39.95 -58.96 -40.12 -59.41 -40.12L-61.74 -40.12L-64.12 -40.12L-64.71 -40.12C-65.09 -40.12 -65.41 -40.04 -65.66 -39.89C-65.91 -39.73 -66.16 -39.46 -66.39 -39.06L-77.64 -19.64C-77.39 -25.14 -77.61 -31.54 -78.29 -38.85C-78.35 -39.3 -78.47 -39.62 -78.67 -39.82C-78.87 -40.02 -79.18 -40.12 -79.62 -40.12L-80.24 -40.12L-83.35 -40.12L-84.95 -40.12C-85.83 -40.12 -86.38 -39.71 -86.6 -38.9Z M-30.37 0C-29.97 0 -29.59 -0.15 -29.23 -0.46C-28.87 -0.77 -28.65 -1.13 -28.58 -1.54L-27.88 -4.82C-27.61 -6.01 -28 -6.6 -29.04 -6.6L-39.62 -6.6L-36.62 -18.45L-26.82 -18.45C-26.43 -18.45 -26.05 -18.6 -25.69 -18.91C-25.33 -19.22 -25.11 -19.58 -25.04 -19.99L-24.34 -23.26C-24.06 -24.45 -24.45 -25.05 -25.5 -25.05L-34.94 -25.05L-32.78 -33.52L-22.23 -33.52C-21.81 -33.52 -21.41 -33.67 -21.02 -33.98C-20.63 -34.28 -20.4 -34.64 -20.33 -35.06L-19.63 -38.33C-19.36 -39.52 -19.78 -40.12 -20.9 -40.12L-32.64 -40.12L-37.35 -40.12L-41.43 -40.12C-41.81 -40.12 -42.06 -40.05 -42.19 -39.93C-42.32 -39.8 -42.43 -39.5 -42.54 -39.01L-43.43 -35.52C-43.61 -34.8 -43.62 -34.28 -43.46 -33.98C-43.3 -33.67 -42.94 -33.52 -42.38 -33.52L-40.38 -33.52L-48.49 -1.7C-48.6 -1.24 -48.56 -0.83 -48.36 -0.5C-48.16 -0.17 -47.83 0 -47.38 0L-45.92 0L-42.65 0Z M32.61 -15.69C33.01 -15.69 33.38 -15.84 33.74 -16.15C34.09 -16.46 34.3 -16.82 34.37 -17.23L35.1 -20.5C35.35 -21.68 34.97 -22.26 33.94 -22.26L24.44 -22.26L27.31 -33.52L37.92 -33.52C38.33 -33.52 38.73 -33.67 39.12 -33.98C39.51 -34.28 39.74 -34.64 39.81 -35.06L40.51 -38.33C40.78 -39.52 40.36 -40.12 39.24 -40.12L27.45 -40.12L22.74 -40.12L18.71 -40.12C18.33 -40.12 18.08 -40.05 17.95 -39.93C17.83 -39.8 17.71 -39.5 17.6 -39.01L16.71 -35.52C16.53 -34.8 16.52 -34.28 16.68 -33.98C16.84 -33.67 17.2 -33.52 17.76 -33.52L19.71 -33.52L11.59 -1.7C11.49 -1.24 11.53 -0.83 11.73 -0.5C11.93 -0.17 12.25 0 12.7 0L17.41 0C18.31 0 18.87 -0.41 19.09 -1.22L22.77 -15.69Z M65.63 0C66.05 0 66.45 -0.15 66.84 -0.46C67.22 -0.77 67.45 -1.13 67.53 -1.54L68.28 -4.82C68.55 -6.01 68.13 -6.6 67.01 -6.6L56.38 -6.6L64.47 -38.39C64.58 -38.85 64.53 -39.26 64.33 -39.6C64.14 -39.95 63.81 -40.12 63.36 -40.12L58.65 -40.12C57.77 -40.12 57.22 -39.71 57 -38.9L47.51 -1.7C47.4 -1.24 47.44 -0.83 47.64 -0.5C47.84 -0.17 48.17 0 48.62 0L49.02 0L53.32 0Z M91.97 -20.83C93.2 -25.57 94.39 -28.9 95.57 -30.81C96.14 -31.77 96.69 -32.4 97.2 -32.72C97.72 -33.03 98.35 -33.19 99.11 -33.19C99.71 -33.19 100.14 -32.85 100.42 -32.18C100.7 -31.5 100.82 -30.52 100.76 -29.24C100.71 -27.96 100.54 -26.47 100.25 -24.75C99.96 -23.04 99.54 -21.08 99 -18.88C97.87 -14.37 96.72 -11.11 95.57 -9.09C94.94 -8.04 94.37 -7.32 93.86 -6.91C93.36 -6.51 92.8 -6.3 92.19 -6.3C91.39 -6.3 90.85 -6.89 90.55 -8.07C90.25 -9.26 90.22 -10.95 90.47 -13.15C90.71 -15.35 91.21 -17.91 91.97 -20.83ZM84.1 -22.61C83.11 -18.77 82.61 -15.3 82.61 -12.2C82.61 -9.28 82.95 -6.88 83.62 -5C84.3 -3.13 85.44 -1.74 87.05 -0.84C88.36 -0.1 90.09 0.27 92.24 0.27C93.99 0.27 95.63 -0.18 97.16 -1.1C98.7 -2.01 100.04 -3.27 101.21 -4.88C102.37 -6.5 103.38 -8.3 104.24 -10.31C105.09 -12.31 105.83 -14.51 106.44 -16.91C107.69 -21.83 108.31 -25.96 108.31 -29.3C108.31 -31.89 108.02 -33.99 107.46 -35.59C106.89 -37.18 105.94 -38.38 104.6 -39.17C103.86 -39.6 102.98 -39.94 101.95 -40.18C100.92 -40.43 99.98 -40.55 99.11 -40.55C96.87 -40.55 94.75 -39.75 92.74 -38.14C90.73 -36.54 89.01 -34.4 87.57 -31.74C86.14 -29.08 84.98 -26.04 84.1 -22.61Z M135.19 -40.12L129.75 -40.12C129.03 -40.12 128.53 -39.86 128.26 -39.33C125.7 -33.98 124.02 -27.51 123.23 -19.94C122.44 -12.36 122.83 -6.09 124.42 -1.11C124.67 -0.37 125.21 0 126.04 0L130.18 0C131.68 -1.46 133.24 -3.3 134.88 -5.52C136.51 -7.74 137.99 -10.05 139.33 -12.44C139.52 -7.86 140.14 -4.08 141.17 -1.11C141.31 -0.71 141.48 -0.43 141.68 -0.26C141.88 -0.09 142.17 0 142.54 0L146.36 0C148.32 -0.85 150.26 -2.47 152.17 -4.86C154.09 -7.25 155.75 -9.95 157.18 -12.98C158.6 -16.01 159.87 -19.18 160.97 -22.48C162.07 -25.78 162.9 -28.85 163.47 -31.7C164.04 -34.55 164.32 -36.9 164.32 -38.74C164.32 -39.28 164.23 -39.64 164.04 -39.83C163.85 -40.02 163.45 -40.12 162.83 -40.12L157.83 -40.12C157.49 -40.12 157.23 -40.05 157.07 -39.93C156.91 -39.8 156.81 -39.67 156.79 -39.54C156.76 -39.4 156.74 -39.15 156.72 -38.79C156.59 -36.1 156.11 -32.9 155.27 -29.17C154.43 -25.45 153.22 -21.6 151.63 -17.61C150.05 -13.62 148.33 -10.48 146.49 -8.17C145.86 -10.87 145.84 -15.82 146.41 -22.99C146.79 -27.94 147.88 -33.08 149.69 -38.44C150.08 -39.56 149.85 -40.12 148.98 -40.12L143.98 -40.12C143.44 -40.12 143.03 -40.01 142.75 -39.81C142.47 -39.6 142.24 -39.22 142.06 -38.68C141.72 -37.46 141.36 -35.96 141 -34.19L140.89 -34.14C140.12 -30.33 138.66 -26.02 136.51 -21.21C134.37 -16.39 132.08 -12.34 129.67 -9.06C129.31 -11.77 129.49 -15.24 130.21 -19.49C130.93 -23.74 131.81 -27.52 132.86 -30.84C133.91 -34.16 134.83 -36.53 135.62 -37.95C136 -38.75 136.13 -39.31 136.01 -39.63C135.89 -39.95 135.62 -40.12 135.19 -40.12ZM147.71 -5.92L148.09 -5.82C147.98 -5.82 147.86 -5.85 147.71 -5.92Z" fill="#FFFFFF"></path></g></g></svg>