<svg xmlns:xlink="http://www.w3.org/1999/xlink" id="SvgjsSvg1163" width="300" height="148" xmlns="http://www.w3.org/2000/svg" version="1.1" xlink="http://www.w3.org/1999/xlink" xmlns:svgjs="http://svgjs.com/svgjs" preserveAspectRatio="xMidYMid meet" viewBox="6.657343192273402e-7 -4.5376526713880594e-7 299.9999694824219 51.45113754272461" overflow="visible"><defs id="SvgjsDefs1164"></defs><g id="SvgjsG1165" transform="scale(0.7612918543238681)" opacity="1"><g id="SvgjsG1166" class="vWkEJb4pzx" transform="translate(-3.753163367708332, -3.754666666666666) scale(0.7509333333333332)" light-content="false" non-strokable="false" fill="#194AD2"><path d="M51.508 31.537a.858.858 0 0 1-.855.856h-.22a.858.858 0 0 1-.856-.856V26.56c0-.471.385-.856.856-.856h.22c.472 0 .855.385.855.856v4.977zm8.971 3.193a.854.854 0 0 1-1.166.317l-.201-.115a.858.858 0 0 1-.316-1.168l2.473-4.317a.859.859 0 0 1 1.168-.317l.198.114c.408.234.552.76.317 1.169l-2.473 4.317zm6.178 7.226a.858.858 0 0 1-1.171-.308l-.11-.193a.859.859 0 0 1 .31-1.172l4.293-2.506a.861.861 0 0 1 1.172.307l.109.188c.238.406.1.933-.307 1.171l-4.296 2.513zm1.766 9.343a.854.854 0 0 1-.86-.85v-.221a.86.86 0 0 1 .853-.862l4.967-.037a.86.86 0 0 1 .864.85l.003.218a.857.857 0 0 1-.849.863l-4.978.039zm-3.116 8.993a.856.856 0 0 1-.326-1.164l.109-.194a.86.86 0 0 1 1.167-.326l4.335 2.438c.41.23.559.756.327 1.166l-.107.188a.86.86 0 0 1-1.166.328l-4.339-2.436zm-7.179 6.237a.855.855 0 0 1 .299-1.17l.196-.114a.864.864 0 0 1 1.176.301l2.542 4.269a.862.862 0 0 1-.296 1.176l-.188.111a.858.858 0 0 1-1.174-.295l-2.555-4.278zm-9.325 1.844a.854.854 0 0 1 .842-.866l.225-.004a.862.862 0 0 1 .869.845l.079 4.971a.858.858 0 0 1-.841.871l-.223.004a.853.853 0 0 1-.869-.838l-.082-4.983zm-9.017-3.036a.856.856 0 0 1 1.162-.335l.194.107a.86.86 0 0 1 .335 1.164l-2.402 4.349a.86.86 0 0 1-1.164.336l-.188-.104a.858.858 0 0 1-.337-1.162l2.4-4.355zm-6.298-7.121a.854.854 0 0 1 1.172.29l.114.189a.864.864 0 0 1-.292 1.178l-4.25 2.576a.859.859 0 0 1-1.175-.289l-.113-.188a.86.86 0 0 1 .289-1.178l4.255-2.578zm-1.923-9.315a.85.85 0 0 1 .871.834l.003.216a.866.866 0 0 1-.841.877l-4.969.126a.854.854 0 0 1-.874-.834l-.004-.218a.864.864 0 0 1 .838-.877l4.976-.124zm2.966-9.04a.854.854 0 0 1 .343 1.158l-.105.192a.864.864 0 0 1-1.164.343l-4.37-2.366a.86.86 0 0 1-.346-1.161l.101-.187a.859.859 0 0 1 1.16-.346l4.381 2.367zm7.066-6.36a.855.855 0 0 1-.279 1.176l-.187.114a.861.861 0 0 1-1.18-.281l-2.611-4.229a.858.858 0 0 1 .278-1.178l.186-.115a.859.859 0 0 1 1.179.279l2.614 4.234zm13.585 16a4.725 4.725 0 0 1-6.956 4.171l-2.392 2.386-1.609-1.604 2.312-2.312a4.719 4.719 0 0 1-.808-2.641 4.73 4.73 0 0 1 4.729-4.723c1.043 0 2.007.336 2.783.911l12.448-11.45.615.612L54.77 47.564a4.8 4.8 0 0 1 .412 1.937z" fill="#194AD2"></path><path d="M87.635 49.32a37.263 37.263 0 0 0-1.613-10.308l6.153-4.819-4.586-9.028-7.555 2.163a37.367 37.367 0 0 0-7.362-7.388l2.139-7.531-8.979-4.585-4.848 6.154a39.342 39.342 0 0 0-5.082-1.165 38.961 38.961 0 0 0-5.202-.473L47.993 5l-9.978 1.566-.306 7.838a37.828 37.828 0 0 0-9.29 4.75l-6.509-4.393-7.151 7.148 4.371 6.509a36.894 36.894 0 0 0-4.723 9.312l-7.84.284-1.569 9.977L12.34 50.7c.07 3.542.615 7.011 1.636 10.282l-6.175 4.853 4.609 8.999 7.531-2.143a38.662 38.662 0 0 0 7.362 7.369l-2.138 7.53 9.026 4.582 4.82-6.153c1.664.502 3.35.881 5.108 1.168 1.734.281 3.469.422 5.2.446L52.007 95l9.999-1.564.287-7.844a36.779 36.779 0 0 0 9.264-4.748l6.508 4.368 7.151-7.151-4.37-6.457a37.266 37.266 0 0 0 4.75-9.311l7.812-.288 1.594-9.972-7.367-2.713zm-9.167 5.203c-2.495 15.722-17.245 26.437-32.967 23.94-15.728-2.468-26.462-17.239-23.969-32.966 2.493-15.725 17.27-26.463 32.993-23.967 15.7 2.494 26.439 17.271 23.943 32.993z" fill="#194AD2"></path></g><g id="SvgjsG1167" class="text" transform="translate(245.56699946087238, 54.4319983215332) scale(1)" light-content="false" fill="#194AD2"><path d="M-142.92 0L-134.7 0L-134.7 -33.66L-128.64 -33.66L-128.64 -41.28L-148.98 -41.28L-148.98 -33.66L-142.92 -33.66Z M-113.94 0L-105.66 0L-105.66 -41.28L-113.94 -41.28Z M-64.2 0L-56.22 0L-56.22 -41.28L-68.82 -41.28L-72.24 -12.18L-72.72 -12.18L-76.14 -41.28L-88.98 -41.28L-88.98 0L-81.24 0L-81.24 -31.14L-80.7 -31.14L-76.86 0L-68.58 0L-64.62 -31.14L-64.2 -31.14Z M-39.6 0L-23.04 0L-23.04 -7.5L-31.38 -7.5L-31.38 -17.1L-24.06 -17.1L-24.06 -24.6L-31.38 -24.6L-31.38 -33.78L-23.04 -33.78L-23.04 -41.28L-39.6 -41.28Z M13.62 0L21.84 0L21.84 -16.26L28.5 -16.26L28.5 -23.76L21.84 -23.76L21.84 -33.78L29.4 -33.78L29.4 -41.28L13.62 -41.28Z M44.64 0L60.42 0L60.42 -7.62L52.86 -7.62L52.86 -41.28L44.64 -41.28Z M78.03 -1.38C79.53 -0.14 82.06 0.48 85.62 0.48C89.18 0.48 91.71 -0.14 93.21 -1.38C94.71 -2.62 95.64 -4.58 96 -7.26C96.36 -9.94 96.54 -14.4 96.54 -20.64C96.54 -26.88 96.36 -31.34 96 -34.02C95.64 -36.7 94.71 -38.66 93.21 -39.9C91.71 -41.14 89.18 -41.76 85.62 -41.76C82.06 -41.76 79.53 -41.14 78.03 -39.9C76.53 -38.66 75.6 -36.71 75.24 -34.05C74.88 -31.39 74.7 -26.92 74.7 -20.64C74.7 -14.36 74.88 -9.89 75.24 -7.23C75.6 -4.57 76.53 -2.62 78.03 -1.38ZM87.48 -7.65C87.16 -7.23 86.54 -7.02 85.62 -7.02C84.7 -7.02 84.08 -7.23 83.76 -7.65C83.44 -8.07 83.23 -9.13 83.13 -10.83C83.03 -12.53 82.98 -15.8 82.98 -20.64C82.98 -25.48 83.03 -28.75 83.13 -30.45C83.23 -32.15 83.44 -33.21 83.76 -33.63C84.08 -34.05 84.7 -34.26 85.62 -34.26C86.54 -34.26 87.16 -34.05 87.48 -33.63C87.8 -33.21 88.01 -32.15 88.11 -30.45C88.21 -28.75 88.26 -25.48 88.26 -20.64C88.26 -15.8 88.21 -12.53 88.11 -10.83C88.01 -9.13 87.8 -8.07 87.48 -7.65Z M132.6 0L144.3 0L148.5 -41.28L140.4 -41.28L138.6 -8.52L138.12 -8.52L134.7 -41.28L124.56 -41.28L121.26 -8.52L120.78 -8.52L118.8 -41.28L110.46 -41.28L114.66 0L126.36 0L129.3 -28.8L129.66 -28.8Z" fill="#194AD2"></path></g></g></svg>