<svg xmlns:xlink="http://www.w3.org/1999/xlink" xmlns="http://www.w3.org/2000/svg" width="300" height="148" preserveAspectRatio="xMidYMid meet" viewBox="0.000004387271928862901 0 142.87942504882812 147" overflow="visible"><defs id="SvgjsDefs1147"></defs><g id="SvgjsG1148" transform="scale(0.28752426352713645)" opacity="1"><g id="SvgjsG1149" class="PChXobIdYw" transform="translate(39.754400000000004, 0) scale(1.5598699195788848)" light-content="false" non-strokable="false" fill="#FFFFFF"><circle cx="133.8" cy="133.8" r="133.8" fill="#FFFFFF"></circle></g><g id="SvgjsG1150" class="9DiOshV9jt" transform="translate(129.73186319597653, 89.97745866666664) scale(2.3746628266666674)" light-content="true" non-strokable="false" fill="#7EBAF1"><path d="M51.508 31.537a.858.858 0 0 1-.855.856h-.22a.858.858 0 0 1-.856-.856V26.56c0-.471.385-.856.856-.856h.22c.472 0 .855.385.855.856v4.977zm8.971 3.193a.854.854 0 0 1-1.166.317l-.201-.115a.858.858 0 0 1-.316-1.168l2.473-4.317a.859.859 0 0 1 1.168-.317l.198.114c.408.234.552.76.317 1.169l-2.473 4.317zm6.178 7.226a.858.858 0 0 1-1.171-.308l-.11-.193a.859.859 0 0 1 .31-1.172l4.293-2.506a.861.861 0 0 1 1.172.307l.109.188c.238.406.1.933-.307 1.171l-4.296 2.513zm1.766 9.343a.854.854 0 0 1-.86-.85v-.221a.86.86 0 0 1 .853-.862l4.967-.037a.86.86 0 0 1 .864.85l.003.218a.857.857 0 0 1-.849.863l-4.978.039zm-3.116 8.993a.856.856 0 0 1-.326-1.164l.109-.194a.86.86 0 0 1 1.167-.326l4.335 2.438c.41.23.559.756.327 1.166l-.107.188a.86.86 0 0 1-1.166.328l-4.339-2.436zm-7.179 6.237a.855.855 0 0 1 .299-1.17l.196-.114a.864.864 0 0 1 1.176.301l2.542 4.269a.862.862 0 0 1-.296 1.176l-.188.111a.858.858 0 0 1-1.174-.295l-2.555-4.278zm-9.325 1.844a.854.854 0 0 1 .842-.866l.225-.004a.862.862 0 0 1 .869.845l.079 4.971a.858.858 0 0 1-.841.871l-.223.004a.853.853 0 0 1-.869-.838l-.082-4.983zm-9.017-3.036a.856.856 0 0 1 1.162-.335l.194.107a.86.86 0 0 1 .335 1.164l-2.402 4.349a.86.86 0 0 1-1.164.336l-.188-.104a.858.858 0 0 1-.337-1.162l2.4-4.355zm-6.298-7.121a.854.854 0 0 1 1.172.29l.114.189a.864.864 0 0 1-.292 1.178l-4.25 2.576a.859.859 0 0 1-1.175-.289l-.113-.188a.86.86 0 0 1 .289-1.178l4.255-2.578zm-1.923-9.315a.85.85 0 0 1 .871.834l.003.216a.866.866 0 0 1-.841.877l-4.969.126a.854.854 0 0 1-.874-.834l-.004-.218a.864.864 0 0 1 .838-.877l4.976-.124zm2.966-9.04a.854.854 0 0 1 .343 1.158l-.105.192a.864.864 0 0 1-1.164.343l-4.37-2.366a.86.86 0 0 1-.346-1.161l.101-.187a.859.859 0 0 1 1.16-.346l4.381 2.367zm7.066-6.36a.855.855 0 0 1-.279 1.176l-.187.114a.861.861 0 0 1-1.18-.281l-2.611-4.229a.858.858 0 0 1 .278-1.178l.186-.115a.859.859 0 0 1 1.179.279l2.614 4.234zm13.585 16a4.725 4.725 0 0 1-6.956 4.171l-2.392 2.386-1.609-1.604 2.312-2.312a4.719 4.719 0 0 1-.808-2.641 4.73 4.73 0 0 1 4.729-4.723c1.043 0 2.007.336 2.783.911l12.448-11.45.615.612L54.77 47.564a4.8 4.8 0 0 1 .412 1.937z" fill="#7EBAF1"></path><path d="M87.635 49.32a37.263 37.263 0 0 0-1.613-10.308l6.153-4.819-4.586-9.028-7.555 2.163a37.367 37.367 0 0 0-7.362-7.388l2.139-7.531-8.979-4.585-4.848 6.154a39.342 39.342 0 0 0-5.082-1.165 38.961 38.961 0 0 0-5.202-.473L47.993 5l-9.978 1.566-.306 7.838a37.828 37.828 0 0 0-9.29 4.75l-6.509-4.393-7.151 7.148 4.371 6.509a36.894 36.894 0 0 0-4.723 9.312l-7.84.284-1.569 9.977L12.34 50.7c.07 3.542.615 7.011 1.636 10.282l-6.175 4.853 4.609 8.999 7.531-2.143a38.662 38.662 0 0 0 7.362 7.369l-2.138 7.53 9.026 4.582 4.82-6.153c1.664.502 3.35.881 5.108 1.168 1.734.281 3.469.422 5.2.446L52.007 95l9.999-1.564.287-7.844a36.779 36.779 0 0 0 9.264-4.748l6.508 4.368 7.151-7.151-4.37-6.457a37.266 37.266 0 0 0 4.75-9.311l7.812-.288 1.594-9.972-7.367-2.713zm-9.167 5.203c-2.495 15.722-17.245 26.437-32.967 23.94-15.728-2.468-26.462-17.239-23.969-32.966 2.493-15.725 17.27-26.463 32.993-23.967 15.7 2.494 26.439 17.271 23.943 32.993z" fill="#7EBAF1"></path></g><g id="SvgjsG1151" class="text" transform="translate(248.61000061035156, 509.53120061035156) scale(1)" light-content="false" fill="#FFFFFF"><path d="M-248.61 -46.79L-248.61 -31.61L-235.57 -31.61L-235.57 0L-217.35 0L-217.35 -31.61L-204.31 -31.61L-204.31 -46.79Z M-168.88 0L-168.88 -46.79L-187.1 -46.79L-187.1 0Z M-149.73 -46.79L-149.73 0L-133.53 0L-133.53 -14.82L-121.9 -2.05L-109.94 -15.18L-109.94 0L-90.69 0L-90.69 -46.79L-97.17 -46.79L-120.4 -25.55L-143.02 -46.79Z M-71.49 -46.79L-71.49 0L-36.74 0L-36.74 -13.56L-53.26 -13.56L-53.26 -17.99L-37.83 -17.99L-37.83 -29.47L-53.26 -29.47L-53.26 -33.31L-37.77 -33.31L-37.77 -46.79Z M9.2 -46.79L9.2 0L27.42 0L27.42 -16.44L42.86 -16.44L42.86 -29.21L27.42 -29.21L27.42 -33.54L42.86 -33.54L42.86 -46.79Z M59.96 -46.79L59.96 0L93.92 0L93.92 -14.09L78.18 -14.09L78.18 -46.79Z M143.07 -29C143.07 -28.18 142.91 -27.21 142.6 -26.07C141.58 -22.4 139.85 -19.28 137.41 -16.7C135.73 -14.94 134.24 -14.07 132.93 -14.09C129.65 -14.09 128.01 -15.71 128.01 -18.96C128.01 -19.91 128.16 -20.96 128.48 -22.09C129.47 -25.68 131.23 -28.78 133.75 -31.38C135.43 -33.1 136.95 -33.96 138.32 -33.96C141.48 -33.96 143.07 -32.3 143.07 -29ZM135.07 1.14C139.68 1.14 144.01 0.13 148.08 -1.89C152.14 -3.91 155.39 -6.79 157.83 -10.53C160.27 -14.27 161.49 -18.54 161.49 -23.35C161.49 -27.22 160.81 -30.68 159.44 -33.75C158.08 -36.82 156.2 -39.41 153.8 -41.53C151.41 -43.65 148.6 -45.27 145.38 -46.41C142.16 -47.54 138.43 -48.11 134.2 -48.11C129.97 -48.11 125.89 -47.07 121.94 -45C118 -42.93 114.85 -40.04 112.51 -36.33C110.17 -32.62 108.99 -28.35 108.99 -23.54C108.99 -18.73 110.26 -14.38 112.8 -10.49C113.99 -8.65 115.4 -7.02 117.02 -5.6C122.12 -1.1 128.13 1.14 135.07 1.14Z M195.08 -46.79L174.08 -46.79L190.54 -1.32C191.27 0.63 192.41 1.61 193.97 1.61C195.53 1.61 196.95 0.77 198.22 -0.91L212.31 -19.86L225.41 -0.97C226.66 0.83 228.07 1.73 229.66 1.73C231.24 1.73 232.36 0.75 233.02 -1.2L248.32 -46.79L231.56 -46.79L226.29 -30.29L215.39 -45.79C214.78 -46.63 214.28 -47.05 213.89 -47.05C213.5 -47.05 213.21 -46.97 213.01 -46.82C212.82 -46.66 212.53 -46.32 212.14 -45.79L200.45 -30.12Z" fill="#FFFFFF"></path></g></g></svg>