<svg xmlns:xlink="http://www.w3.org/1999/xlink" id="SvgjsSvg1614" width="300" height="148" xmlns="http://www.w3.org/2000/svg" version="1.1" xlink="http://www.w3.org/1999/xlink" xmlns:svgjs="http://svgjs.com/svgjs" preserveAspectRatio="xMidYMid meet" viewBox="0.000002458510380165535 -2.592117276378758e-8 300 73.84391784667969" overflow="visible"><defs id="SvgjsDefs1615"></defs><g id="SvgjsG1616" transform="scale(0.681921500757466)" opacity="1"><g id="SvgjsG1617" class="SyqqSkih7Y" transform="translate(-0.7712463316453141, -1.0240877314647645) scale(1.1033617072781479)" light-content="false" non-strokable="false" fill="#1CAAFD"><path d="M47 1.732l37.301 21.536a6 6 0 0 1 3 5.196v43.072a6 6 0 0 1-3 5.196L47 98.268a6 6 0 0 1-6 0L3.699 76.732a6 6 0 0 1-3-5.196V28.464a6 6 0 0 1 3-5.196L41 1.732a6 6 0 0 1 6 0z" fill="#1CAAFD"></path></g><g id="SvgjsG1618" class="xvMkg82rqY" transform="translate(18.665673347303084, 25.26720024479165) scale(0.5775359510416709)" light-content="true" non-strokable="false" fill="#FFFFFF"><path fill-rule="evenodd" clip-rule="evenodd" d="M54.023 21.181c-14.246-.382-26.924 9.86-29.215 24.319-2.493 15.725 8.24 30.496 23.969 32.965 14.033 2.227 27.291-6.066 31.75-19.057l8.344 2.885a37.183 37.183 0 0 1-4.75 9.311l4.371 6.457-7.15 7.15-6.51-4.367a36.748 36.748 0 0 1-9.262 4.748l-.287 7.842-10 1.566-2.686-7.365a35.683 35.683 0 0 1-5.2-.447 39.662 39.662 0 0 1-5.108-1.168l-4.821 6.154-9.026-4.582 2.138-7.531a38.581 38.581 0 0 1-7.363-7.369l-7.531 2.143-4.609-9 6.176-4.85c-1.021-3.275-1.566-6.742-1.637-10.285l-7.341-2.707 1.569-9.976 7.839-.284a36.894 36.894 0 0 1 4.723-9.312l-4.371-6.509 7.151-7.148 6.51 4.392a37.81 37.81 0 0 1 9.29-4.75l.305-7.838L51.27 5l2.753 16.181z" fill="#FFFFFF"></path><path d="M68.752 21.434a1.482 1.482 0 0 1-2.018.548l-.346-.199a1.483 1.483 0 0 1-.549-2.019l4.271-7.458a1.483 1.483 0 0 1 2.018-.548l.342.196c.707.404.953 1.313.549 2.019l-4.267 7.461zm10.67 12.482a1.478 1.478 0 0 1-2.02-.532l-.195-.334a1.487 1.487 0 0 1 .535-2.024l7.414-4.328a1.487 1.487 0 0 1 2.025.53l.191.325c.41.702.172 1.612-.529 2.022l-7.421 4.341zm3.053 16.139a1.478 1.478 0 0 1-1.486-1.467l-.004-.387a1.487 1.487 0 0 1 1.471-1.488l8.584-.062a1.486 1.486 0 0 1 1.492 1.468l.004.381a1.48 1.48 0 0 1-1.465 1.49l-8.596.065zM58.459 49.5a4.726 4.726 0 0 1-6.957 4.171l-2.392 2.387-1.608-1.605 2.312-2.312a4.712 4.712 0 0 1-.809-2.641 4.732 4.732 0 0 1 4.731-4.723 4.66 4.66 0 0 1 2.783.912l12.449-11.451.615.612-11.538 12.714c.264.594.414 1.245.414 1.936z" fill="#FFFFFF"></path></g><g id="SvgjsG1619" class="text" transform="translate(281.4733331155124, 76.10400045776368) scale(1)" light-content="false" fill="#141414"><path d="M-149.67 -1.86C-148.05 -0.62 -145.9 0 -143.22 0C-140.06 0 -137.52 -0.1 -135.6 -0.3C-134.84 -0.34 -134.4 -0.8 -134.28 -1.68L-133.62 -5.94C-133.58 -6.3 -133.67 -6.63 -133.89 -6.93C-134.11 -7.23 -134.36 -7.38 -134.64 -7.38L-137.52 -7.38C-138.8 -7.38 -139.71 -7.55 -140.25 -7.89C-140.79 -8.23 -141.06 -8.82 -141.06 -9.66C-141.06 -10.02 -141.04 -10.32 -141 -10.56L-139.14 -23.46C-139.02 -24.18 -138.68 -24.54 -138.12 -24.54L-132.12 -24.54C-131.68 -24.54 -131.37 -24.59 -131.19 -24.69C-131.01 -24.79 -130.9 -25.02 -130.86 -25.38L-130.08 -30.9C-129.96 -31.54 -130.36 -31.86 -131.28 -31.86L-136.98 -31.86C-137.18 -31.86 -137.34 -31.92 -137.46 -32.04C-137.58 -32.16 -137.64 -32.3 -137.64 -32.46L-137.64 -32.58L-136.38 -41.04C-136.34 -41.2 -136.32 -41.4 -136.32 -41.64C-136.32 -42.28 -136.58 -42.6 -137.1 -42.6L-144.84 -42.6C-145.2 -42.6 -145.47 -42.54 -145.65 -42.42C-145.83 -42.3 -145.96 -42.1 -146.04 -41.82L-148.26 -32.82C-148.34 -32.54 -148.47 -32.3 -148.65 -32.1C-148.83 -31.9 -149.04 -31.8 -149.28 -31.8L-153.12 -31.8C-153.52 -31.8 -153.79 -31.76 -153.93 -31.68C-154.07 -31.6 -154.16 -31.4 -154.2 -31.08L-154.86 -26.04C-154.9 -25.88 -154.92 -25.68 -154.92 -25.44C-154.92 -24.84 -154.68 -24.54 -154.2 -24.54L-150.84 -24.54C-150.52 -24.54 -150.26 -24.48 -150.06 -24.36C-149.86 -24.24 -149.76 -24.06 -149.76 -23.82L-149.76 -23.76L-152.04 -8.16C-152.08 -7.84 -152.1 -7.42 -152.1 -6.9C-152.1 -4.78 -151.29 -3.1 -149.67 -1.86Z M-108.06 -36.36L-107.16 -43.02L-107.1 -43.5C-107.1 -44.18 -107.32 -44.52 -107.76 -44.52L-116.7 -44.52C-117.34 -44.52 -117.72 -44.1 -117.84 -43.26L-118.8 -36.78C-118.84 -36.66 -118.86 -36.46 -118.86 -36.18C-118.86 -35.42 -118.56 -35.04 -117.96 -35.04L-109.92 -35.04C-109.24 -35.04 -108.78 -35.12 -108.54 -35.28C-108.3 -35.44 -108.14 -35.8 -108.06 -36.36ZM-113.04 -1.26L-108.96 -30.36C-108.88 -31.32 -109.1 -31.8 -109.62 -31.8L-118.56 -31.8C-118.92 -31.8 -119.17 -31.74 -119.31 -31.62C-119.45 -31.5 -119.54 -31.24 -119.58 -30.84L-123.72 -1.68C-123.76 -1.16 -123.66 -0.75 -123.42 -0.45C-123.18 -0.15 -122.8 0 -122.28 0L-114.84 0C-114.16 0 -113.71 -0.07 -113.49 -0.21C-113.27 -0.35 -113.12 -0.7 -113.04 -1.26Z M-100.95 -0.48C-100.69 -0.16 -100.32 0 -99.84 0L-92.34 0C-91.7 0 -91.27 -0.07 -91.05 -0.21C-90.83 -0.35 -90.68 -0.7 -90.6 -1.26L-87.72 -21.18C-85.68 -23.58 -83.6 -24.78 -81.48 -24.78C-79.64 -24.78 -78.72 -23.98 -78.72 -22.38C-78.72 -22.06 -78.74 -21.8 -78.78 -21.6L-81.54 -1.68C-81.62 -1.16 -81.54 -0.75 -81.3 -0.45C-81.06 -0.15 -80.72 0 -80.28 0L-72.54 0C-71.98 0 -71.6 -0.09 -71.4 -0.27C-71.2 -0.45 -71.06 -0.8 -70.98 -1.32L-68.34 -20.16C-68.3 -20.64 -67.98 -21.22 -67.38 -21.9C-66.62 -22.74 -65.76 -23.43 -64.8 -23.97C-63.84 -24.51 -62.86 -24.78 -61.86 -24.78C-59.98 -24.78 -59.04 -23.96 -59.04 -22.32L-59.16 -21.12L-61.92 -1.68C-62 -1.16 -61.93 -0.75 -61.71 -0.45C-61.49 -0.15 -61.14 0 -60.66 0L-52.92 0C-52.36 0 -51.97 -0.09 -51.75 -0.27C-51.53 -0.45 -51.38 -0.8 -51.3 -1.32L-48.36 -22.2C-48.28 -22.68 -48.24 -23.32 -48.24 -24.12C-48.24 -26.68 -48.99 -28.7 -50.49 -30.18C-51.99 -31.66 -54.02 -32.4 -56.58 -32.4C-58.26 -32.4 -60.08 -31.92 -62.04 -30.96C-64 -30 -65.76 -28.8 -67.32 -27.36C-67.84 -26.92 -68.18 -26.7 -68.34 -26.7C-68.46 -26.7 -68.54 -26.78 -68.58 -26.94C-69.02 -28.66 -69.91 -30.01 -71.25 -30.99C-72.59 -31.97 -74.28 -32.46 -76.32 -32.46C-79.4 -32.46 -82.8 -31 -86.52 -28.08C-86.84 -27.88 -87 -27.92 -87 -28.2L-87 -28.38L-86.7 -30.72C-86.66 -30.88 -86.64 -31.06 -86.64 -31.26C-86.64 -31.62 -86.84 -31.8 -87.24 -31.8L-96.18 -31.8C-96.5 -31.8 -96.72 -31.74 -96.84 -31.62C-96.96 -31.5 -97.06 -31.24 -97.14 -30.84L-101.28 -1.68C-101.32 -1.2 -101.21 -0.8 -100.95 -0.48Z M-32.16 -1.17C-29.92 0.01 -27.34 0.6 -24.42 0.6C-21.1 0.6 -18.29 0.1 -15.99 -0.9C-13.69 -1.9 -11.32 -3.74 -8.88 -6.42C-8.64 -6.74 -8.52 -7 -8.52 -7.2C-8.52 -7.6 -8.78 -7.92 -9.3 -8.16L-13.86 -10.2C-14.34 -10.36 -14.64 -10.44 -14.76 -10.44C-14.92 -10.44 -15.14 -10.34 -15.42 -10.14C-16.62 -8.86 -17.82 -7.94 -19.02 -7.38C-20.22 -6.82 -21.5 -6.54 -22.86 -6.54C-24.62 -6.54 -26.03 -6.95 -27.09 -7.77C-28.15 -8.59 -28.68 -9.8 -28.68 -11.4C-28.68 -13.08 -28.34 -13.92 -27.66 -13.92L-8.34 -13.92C-7.82 -13.92 -7.46 -13.98 -7.26 -14.1C-7.06 -14.22 -6.94 -14.46 -6.9 -14.82C-6.74 -15.82 -6.66 -16.94 -6.66 -18.18C-6.66 -21.1 -7.25 -23.63 -8.43 -25.77C-9.61 -27.91 -11.27 -29.55 -13.41 -30.69C-15.55 -31.83 -18.02 -32.4 -20.82 -32.4C-24.26 -32.4 -27.39 -31.51 -30.21 -29.73C-33.03 -27.95 -35.25 -25.61 -36.87 -22.71C-38.49 -19.81 -39.3 -16.72 -39.3 -13.44C-39.3 -10.68 -38.67 -8.24 -37.41 -6.12C-36.15 -4 -34.4 -2.35 -32.16 -1.17ZM-17.88 -19.32L-27.48 -19.32C-27.24 -21.28 -26.46 -22.89 -25.14 -24.15C-23.82 -25.41 -22.34 -26.04 -20.7 -26.04C-19.3 -26.04 -18.24 -25.59 -17.52 -24.69C-16.8 -23.79 -16.44 -22.74 -16.44 -21.54C-16.44 -20.78 -16.57 -20.22 -16.83 -19.86C-17.09 -19.5 -17.44 -19.32 -17.88 -19.32Z M44.25 -31.56C44.11 -31.72 43.82 -31.8 43.38 -31.8L38.88 -31.8C38.36 -31.8 38.1 -32 38.1 -32.4L38.1 -32.52L38.4 -34.38C38.52 -35.3 38.93 -36.05 39.63 -36.63C40.33 -37.21 41.1 -37.5 41.94 -37.5L44.7 -37.5C45.02 -37.5 45.26 -37.56 45.42 -37.68C45.58 -37.8 45.68 -38 45.72 -38.28L46.32 -43.2C46.36 -43.64 46.24 -43.97 45.96 -44.19C45.68 -44.41 45.28 -44.52 44.76 -44.52L38.34 -44.52C35.5 -44.52 33.21 -43.83 31.47 -42.45C29.73 -41.07 28.68 -39.1 28.32 -36.54L27.84 -33.12C27.76 -32.76 27.61 -32.45 27.39 -32.19C27.17 -31.93 26.92 -31.8 26.64 -31.8L23.22 -31.8C22.78 -31.8 22.49 -31.74 22.35 -31.62C22.21 -31.5 22.1 -31.28 22.02 -30.96L21.36 -25.86L21.3 -25.38C21.3 -24.82 21.56 -24.54 22.08 -24.54L26.16 -24.54C26.44 -24.54 26.58 -24.42 26.58 -24.18L26.58 -24.06L23.34 -1.44C23.3 -1.08 23.39 -0.75 23.61 -0.45C23.83 -0.15 24.1 0 24.42 0L33.06 0C33.42 0 33.65 -0.05 33.75 -0.15C33.85 -0.25 33.92 -0.5 33.96 -0.9L37.2 -23.52C37.28 -23.88 37.36 -24.14 37.44 -24.3C37.52 -24.46 37.64 -24.54 37.8 -24.54L42.48 -24.54C42.84 -24.54 43.11 -24.61 43.29 -24.75C43.47 -24.89 43.58 -25.14 43.62 -25.5L44.4 -30.84C44.44 -31.16 44.39 -31.4 44.25 -31.56ZM54.96 -1.26L60.9 -43.32C61.02 -44.12 60.78 -44.52 60.18 -44.52L51.36 -44.52C51.04 -44.52 50.81 -44.46 50.67 -44.34C50.53 -44.22 50.44 -43.96 50.4 -43.56L44.28 -1.68C44.2 -1.2 44.29 -0.8 44.55 -0.48C44.81 -0.16 45.2 0 45.72 0L53.22 0C53.86 0 54.3 -0.07 54.54 -0.21C54.78 -0.35 54.92 -0.7 54.96 -1.26Z M74.28 -1.17C76.48 0.01 79.04 0.6 81.96 0.6C85.4 0.6 88.53 -0.21 91.35 -1.83C94.17 -3.45 96.39 -5.67 98.01 -8.49C99.63 -11.31 100.44 -14.48 100.44 -18C100.44 -20.8 99.85 -23.29 98.67 -25.47C97.49 -27.65 95.8 -29.35 93.6 -30.57C91.4 -31.79 88.82 -32.4 85.86 -32.4C82.54 -32.4 79.47 -31.6 76.65 -30C73.83 -28.4 71.58 -26.17 69.9 -23.31C68.22 -20.45 67.38 -17.2 67.38 -13.56C67.38 -10.76 67.98 -8.29 69.18 -6.15C70.38 -4.01 72.08 -2.35 74.28 -1.17ZM86.13 -7.92C84.95 -6.88 83.62 -6.36 82.14 -6.36C79.34 -6.36 77.94 -8.16 77.94 -11.76C77.94 -14.72 78.29 -17.25 78.99 -19.35C79.69 -21.45 80.63 -23.03 81.81 -24.09C82.99 -25.15 84.3 -25.68 85.74 -25.68C88.54 -25.68 89.94 -23.84 89.94 -20.16C89.94 -17.2 89.6 -14.68 88.92 -12.6C88.24 -10.52 87.31 -8.96 86.13 -7.92Z M158.16 -31.41C157.96 -31.67 157.68 -31.8 157.32 -31.8L152.04 -31.8C151.68 -31.8 151.39 -31.74 151.17 -31.62C150.95 -31.5 150.74 -31.28 150.54 -30.96L143.88 -16.2C143.6 -15.56 143.36 -15.24 143.16 -15.24C143.04 -15.24 142.98 -15.36 142.98 -15.6L140.52 -30.42C140.48 -30.78 140.33 -31.1 140.07 -31.38C139.81 -31.66 139.52 -31.8 139.2 -31.8L133.38 -31.8C133.02 -31.8 132.74 -31.74 132.54 -31.62C132.34 -31.5 132.16 -31.28 132 -30.96L125.34 -16.2C125.06 -15.56 124.84 -15.24 124.68 -15.24C124.56 -15.24 124.5 -15.36 124.5 -15.6L121.8 -30.42C121.76 -30.74 121.6 -31.05 121.32 -31.35C121.04 -31.65 120.74 -31.8 120.42 -31.8L112.2 -31.8C111.52 -31.8 111.18 -31.5 111.18 -30.9C111.18 -30.74 111.2 -30.6 111.24 -30.48L116.94 -1.5C116.98 -1.06 117.14 -0.7 117.42 -0.42C117.7 -0.14 118.04 0 118.44 0L124.2 0C124.68 0 124.98 -0.04 125.1 -0.12C125.22 -0.2 125.36 -0.42 125.52 -0.78L132.36 -15.42C132.56 -16.02 132.78 -16.32 133.02 -16.32C133.14 -16.32 133.22 -16.2 133.26 -15.96L135.78 -1.5C135.82 -1.06 135.98 -0.7 136.26 -0.42C136.54 -0.14 136.9 0 137.34 0L142.92 0C143.36 0 143.64 -0.04 143.76 -0.12C143.88 -0.2 144.02 -0.42 144.18 -0.78L158.34 -29.94C158.42 -30.18 158.46 -30.36 158.46 -30.48C158.46 -30.84 158.36 -31.15 158.16 -31.41Z" fill="#141414"></path></g></g></svg>