<svg xmlns:xlink="http://www.w3.org/1999/xlink" id="SvgjsSvg1348" width="300" height="148" xmlns="http://www.w3.org/2000/svg" version="1.1" xlink="http://www.w3.org/1999/xlink" xmlns:svgjs="http://svgjs.com/svgjs" preserveAspectRatio="xMidYMid meet" viewBox="0.02705354243516922 0 146.94589233398438 146.99998474121094" overflow="visible"><defs id="SvgjsDefs1349"><linearGradient id="SvgjsLinearGradient363ZPvV3Gy" gradientUnits="userSpaceOnUse" x1="-0.02500152587887782" y1="271.67501068115234" x2="271.62500762939453" y2="0.025001525878892032"><stop id="SvgjsStop1352" stop-color="#92c9f7" offset="0.05"></stop><stop id="SvgjsStop1353" stop-color="#1b8fee" offset="0.95"></stop></linearGradient><linearGradient id="SvgjsLinearGradient363ZPvV3Gy" gradientUnits="userSpaceOnUse" x1="-0.02500152587887782" y1="271.67501068115234" x2="271.62500762939453" y2="0.025001525878892032"><stop id="SvgjsStop1352" stop-color="#92c9f7" offset="0.05"></stop><stop id="SvgjsStop1353" stop-color="#1b8fee" offset="0.95"></stop></linearGradient><linearGradient id="SvgjsLinearGradient363ZPvV3Gy" gradientUnits="userSpaceOnUse" x1="-0.02500152587887782" y1="271.67501068115234" x2="271.62500762939453" y2="0.025001525878892032"><stop id="SvgjsStop1352" stop-color="#92c9f7" offset="0.05"></stop><stop id="SvgjsStop1353" stop-color="#1b8fee" offset="0.95"></stop></linearGradient></defs><g id="SvgjsG1350" transform="scale(0.44343891402714924)" opacity="1"><g id="SvgjsG1354" class="RwcVhJTxPm" transform="translate(0.061008505384563705, 0) scale(1.220095638963027)" light-content="false" non-strokable="false" fill="url(&quot;#SvgjsLinearGradient363ZPvV3Gy&quot;)"><path d="M135.8 271.7C60.9 271.7 0 210.7 0 135.8S60.9 0 135.8 0s135.8 60.9 135.8 135.8-60.9 135.9-135.8 135.9zm0-267.7C63.1 4 4 63.1 4 135.8s59.1 131.8 131.8 131.8 131.8-59.1 131.8-131.8S208.5 4 135.8 4z" fill="url(&quot;#SvgjsLinearGradient363ZPvV3Gy&quot;)"></path></g><g id="SvgjsG1355" class="text" transform="translate(166.2000030517578, 184.05000076293948) scale(1)" light-content="false" fill="#121212"><path d="M-121.11 -34.74L-121.11 0L-119.19 0L-119.19 -34.74L-107.31 -34.74L-107.31 -36.6L-133.05 -36.6L-133.05 -34.74Z M-99.45 -36.6L-99.45 0L-97.53 0L-97.53 -36.6Z M-85.17 -36.6L-87.15 0L-85.23 0L-84.21 -19.2L-83.73 -32.64L-83.37 -32.7L-72.99 -11.76L-70.95 -11.76L-60.57 -32.7L-60.21 -32.64L-59.73 -19.2L-58.71 0L-56.79 0L-58.77 -36.6L-60.51 -36.6L-71.79 -13.74L-72.15 -13.74L-83.43 -36.6Z M-43.38 -0.21C-41.24 0.33 -38.43 0.6 -34.95 0.6C-31.51 0.6 -28.35 0.3 -25.47 -0.3L-25.95 -2.04C-28.83 -1.48 -31.77 -1.2 -34.77 -1.2C-36.77 -1.2 -38.5 -1.27 -39.96 -1.41C-41.42 -1.55 -42.99 -1.8 -44.67 -2.16L-44.67 -17.58L-27.93 -17.58L-27.93 -19.44L-44.67 -19.44L-44.67 -34.74L-26.19 -34.74L-26.19 -36.6L-46.59 -36.6L-46.59 -2.88C-46.59 -1.64 -45.52 -0.75 -43.38 -0.21Z M2.25 -36.96L2.25 0L4.17 0L4.17 -17.7L20.13 -17.7L20.13 -19.38L4.17 -19.38L4.17 -35.1L23.19 -35.1L23.19 -36.96Z M31.05 -36.6L31.05 0L50.61 0L50.61 -1.86L32.97 -1.86L32.97 -36.6Z M58.62 -4.02C60.72 -0.94 64.09 0.6 68.73 0.6C74.13 0.6 77.93 -1.08 80.13 -4.44C82.33 -7.8 83.43 -12.56 83.43 -18.72C83.43 -24.88 82.38 -29.5 80.28 -32.58C78.18 -35.66 74.81 -37.2 70.17 -37.2C64.77 -37.2 60.97 -35.52 58.77 -32.16C56.57 -28.8 55.47 -24.04 55.47 -17.88C55.47 -11.72 56.52 -7.1 58.62 -4.02ZM73.92 -1.77C72.5 -1.43 71.07 -1.26 69.63 -1.26C66.55 -1.26 64.12 -1.89 62.34 -3.15C60.56 -4.41 59.29 -6.27 58.53 -8.73C57.77 -11.19 57.39 -14.38 57.39 -18.3C57.39 -24.7 58.69 -29.74 61.29 -33.42C62.33 -34.02 63.56 -34.49 64.98 -34.83C66.4 -35.17 67.83 -35.34 69.27 -35.34C72.35 -35.34 74.78 -34.71 76.56 -33.45C78.34 -32.19 79.61 -30.33 80.37 -27.87C81.13 -25.41 81.51 -22.22 81.51 -18.3C81.51 -11.9 80.21 -6.86 77.61 -3.18C76.57 -2.58 75.34 -2.11 73.92 -1.77Z M89.55 -36.6C92.59 -22.64 95.73 -10.44 98.97 0L101.49 0C105.65 -9.04 108.95 -17.5 111.39 -25.38L111.81 -25.38C112.97 -21.1 114.16 -17.06 115.38 -13.26C116.6 -9.46 118.17 -5.04 120.09 0L122.73 0C125.97 -10.44 129.11 -22.64 132.15 -36.6L130.11 -36.96C128.91 -30.8 127.53 -24.61 125.97 -18.39C124.41 -12.17 122.91 -6.66 121.47 -1.86L121.11 -1.86C119.23 -6.86 117.36 -12.49 115.5 -18.75C113.64 -25.01 112.15 -30.94 111.03 -36.54L109.11 -36.24C109.43 -34.44 109.93 -32.04 110.61 -29.04C109.33 -24.6 107.79 -19.96 105.99 -15.12C104.19 -10.28 102.39 -5.86 100.59 -1.86L100.23 -1.86C98.79 -6.66 97.29 -12.17 95.73 -18.39C94.17 -24.61 92.79 -30.8 91.59 -36.96Z" fill="#121212"></path></g></g></svg>