<svg xmlns:xlink="http://www.w3.org/1999/xlink" id="SvgjsSvg1326" width="300" height="148" xmlns="http://www.w3.org/2000/svg" version="1.1" xlink="http://www.w3.org/1999/xlink" xmlns:svgjs="http://svgjs.com/svgjs" preserveAspectRatio="xMidYMid meet" viewBox="8.129956086122547e-7 7.639278010174166e-8 300.0000305175781 52.06095886230469" overflow="visible"><defs id="SvgjsDefs1327"><linearGradient id="SvgjsLinearGradientzb4zQnC8tP" gradientUnits="userSpaceOnUse" x1="4.998998641967801" y1="95.00099945068358" x2="95.00099754333496" y2="4.999000549316409"><stop id="SvgjsStop1330" stop-color="#509afb" offset="0.05"></stop><stop id="SvgjsStop1331" stop-color="#0559c7" offset="0.95"></stop></linearGradient><linearGradient id="SvgjsLinearGradientzb4zQnC8tP" gradientUnits="userSpaceOnUse" x1="4.998998641967801" y1="95.00099945068358" x2="95.00099754333496" y2="4.999000549316409"><stop id="SvgjsStop1330" stop-color="#509afb" offset="0.05"></stop><stop id="SvgjsStop1331" stop-color="#0559c7" offset="0.95"></stop></linearGradient><linearGradient id="SvgjsLinearGradientzb4zQnC8tP" gradientUnits="userSpaceOnUse" x1="4.998998641967801" y1="95.00099945068358" x2="95.00099754333496" y2="4.999000549316409"><stop id="SvgjsStop1330" stop-color="#509afb" offset="0.05"></stop><stop id="SvgjsStop1331" stop-color="#0559c7" offset="0.95"></stop></linearGradient><linearGradient id="SvgjsLinearGradientzb4zQnC8tP" gradientUnits="userSpaceOnUse" x1="4.998998641967801" y1="95.00099945068358" x2="95.00099754333496" y2="4.999000549316409"><stop id="SvgjsStop1330" stop-color="#509afb" offset="0.05"></stop><stop id="SvgjsStop1331" stop-color="#0559c7" offset="0.95"></stop></linearGradient></defs><g id="SvgjsG1328" transform="scale(0.640828995984332)" opacity="1"><g id="SvgjsG1332" class="nYJxrd-qy" transform="translate(-4.511526278299969, -4.513333333333333) scale(0.9026666666666666)" light-content="false" non-strokable="false" fill="url(&quot;#SvgjsLinearGradientzb4zQnC8tP&quot;)"><path d="M51.508 31.537a.858.858 0 0 1-.855.856h-.22a.858.858 0 0 1-.856-.856V26.56c0-.471.385-.856.856-.856h.22c.472 0 .855.385.855.856v4.977zm8.971 3.193a.854.854 0 0 1-1.166.317l-.201-.115a.858.858 0 0 1-.316-1.168l2.473-4.317a.859.859 0 0 1 1.168-.317l.198.114c.408.234.552.76.317 1.169l-2.473 4.317zm6.178 7.226a.858.858 0 0 1-1.171-.308l-.11-.193a.859.859 0 0 1 .31-1.172l4.293-2.506a.861.861 0 0 1 1.172.307l.109.188c.238.406.1.933-.307 1.171l-4.296 2.513zm1.766 9.343a.854.854 0 0 1-.86-.85v-.221a.86.86 0 0 1 .853-.862l4.967-.037a.86.86 0 0 1 .864.85l.003.218a.857.857 0 0 1-.849.863l-4.978.039zm-3.116 8.993a.856.856 0 0 1-.326-1.164l.109-.194a.86.86 0 0 1 1.167-.326l4.335 2.438c.41.23.559.756.327 1.166l-.107.188a.86.86 0 0 1-1.166.328l-4.339-2.436zm-7.179 6.237a.855.855 0 0 1 .299-1.17l.196-.114a.864.864 0 0 1 1.176.301l2.542 4.269a.862.862 0 0 1-.296 1.176l-.188.111a.858.858 0 0 1-1.174-.295l-2.555-4.278zm-9.325 1.844a.854.854 0 0 1 .842-.866l.225-.004a.862.862 0 0 1 .869.845l.079 4.971a.858.858 0 0 1-.841.871l-.223.004a.853.853 0 0 1-.869-.838l-.082-4.983zm-9.017-3.036a.856.856 0 0 1 1.162-.335l.194.107a.86.86 0 0 1 .335 1.164l-2.402 4.349a.86.86 0 0 1-1.164.336l-.188-.104a.858.858 0 0 1-.337-1.162l2.4-4.355zm-6.298-7.121a.854.854 0 0 1 1.172.29l.114.189a.864.864 0 0 1-.292 1.178l-4.25 2.576a.859.859 0 0 1-1.175-.289l-.113-.188a.86.86 0 0 1 .289-1.178l4.255-2.578zm-1.923-9.315a.85.85 0 0 1 .871.834l.003.216a.866.866 0 0 1-.841.877l-4.969.126a.854.854 0 0 1-.874-.834l-.004-.218a.864.864 0 0 1 .838-.877l4.976-.124zm2.966-9.04a.854.854 0 0 1 .343 1.158l-.105.192a.864.864 0 0 1-1.164.343l-4.37-2.366a.86.86 0 0 1-.346-1.161l.101-.187a.859.859 0 0 1 1.16-.346l4.381 2.367zm7.066-6.36a.855.855 0 0 1-.279 1.176l-.187.114a.861.861 0 0 1-1.18-.281l-2.611-4.229a.858.858 0 0 1 .278-1.178l.186-.115a.859.859 0 0 1 1.179.279l2.614 4.234zm13.585 16a4.725 4.725 0 0 1-6.956 4.171l-2.392 2.386-1.609-1.604 2.312-2.312a4.719 4.719 0 0 1-.808-2.641 4.73 4.73 0 0 1 4.729-4.723c1.043 0 2.007.336 2.783.911l12.448-11.45.615.612L54.77 47.564a4.8 4.8 0 0 1 .412 1.937z" fill="url(&quot;#SvgjsLinearGradientzb4zQnC8tP&quot;)"></path><path d="M87.635 49.32a37.263 37.263 0 0 0-1.613-10.308l6.153-4.819-4.586-9.028-7.555 2.163a37.367 37.367 0 0 0-7.362-7.388l2.139-7.531-8.979-4.585-4.848 6.154a39.342 39.342 0 0 0-5.082-1.165 38.961 38.961 0 0 0-5.202-.473L47.993 5l-9.978 1.566-.306 7.838a37.828 37.828 0 0 0-9.29 4.75l-6.509-4.393-7.151 7.148 4.371 6.509a36.894 36.894 0 0 0-4.723 9.312l-7.84.284-1.569 9.977L12.34 50.7c.07 3.542.615 7.011 1.636 10.282l-6.175 4.853 4.609 8.999 7.531-2.143a38.662 38.662 0 0 0 7.362 7.369l-2.138 7.53 9.026 4.582 4.82-6.153c1.664.502 3.35.881 5.108 1.168 1.734.281 3.469.422 5.2.446L52.007 95l9.999-1.564.287-7.844a36.779 36.779 0 0 0 9.264-4.748l6.508 4.368 7.151-7.151-4.37-6.457a37.266 37.266 0 0 0 4.75-9.311l7.812-.288 1.594-9.972-7.367-2.713zm-9.167 5.203c-2.495 15.722-17.245 26.437-32.967 23.94-15.728-2.468-26.462-17.239-23.969-32.966 2.493-15.725 17.27-26.463 32.993-23.967 15.7 2.494 26.439 17.271 23.943 32.993z" fill="url(&quot;#SvgjsLinearGradientzb4zQnC8tP&quot;)"></path></g><g id="SvgjsG1333" class="text" transform="translate(292.49361066666665, 60.03000122070313) scale(1)" light-content="false" fill="#4D4D4D"><path d="M-167.07 -6.06L-167.07 0L-150.03 0L-150.03 -6.06L-151.41 -6.06C-153.05 -6.06 -153.87 -6.8 -153.87 -8.28L-153.87 -32.7L-149.91 -32.7C-149.07 -32.7 -148.46 -32.52 -148.08 -32.16C-147.7 -31.8 -147.51 -31.22 -147.51 -30.42L-147.51 -27.96L-140.97 -27.96L-140.97 -38.76L-176.25 -38.76L-176.25 -27.96L-169.65 -27.96L-169.65 -30.42C-169.65 -31.22 -169.46 -31.8 -169.08 -32.16C-168.7 -32.52 -168.09 -32.7 -167.25 -32.7L-163.29 -32.7L-163.29 -8.28C-163.29 -6.8 -164.09 -6.06 -165.69 -6.06Z M-132.99 -6.06L-132.99 0L-116.01 0L-116.01 -6.06L-117.45 -6.06C-119.01 -6.06 -119.79 -6.8 -119.79 -8.28L-119.79 -30.54C-119.79 -32.02 -119.01 -32.76 -117.45 -32.76L-116.01 -32.76L-116.01 -38.82L-132.99 -38.82L-132.99 -32.76L-131.61 -32.76C-130.77 -32.76 -130.16 -32.58 -129.78 -32.22C-129.4 -31.86 -129.21 -31.3 -129.21 -30.54L-129.21 -8.4C-129.21 -7.6 -129.39 -7.01 -129.75 -6.63C-130.11 -6.25 -130.73 -6.06 -131.61 -6.06Z M-107.49 -6.06L-107.49 0L-90.57 0L-90.57 -6.06L-92.01 -6.06C-93.61 -6.06 -94.41 -6.8 -94.41 -8.28L-94.41 -24.36L-88.47 -10.62L-82.59 -10.62L-76.71 -24.36L-76.71 -8.28C-76.71 -6.8 -77.49 -6.06 -79.05 -6.06L-80.49 -6.06L-80.49 0L-63.63 0L-63.63 -6.06L-65.07 -6.06C-65.87 -6.06 -66.45 -6.25 -66.81 -6.63C-67.17 -7.01 -67.35 -7.6 -67.35 -8.4L-67.35 -30.42C-67.35 -31.22 -67.17 -31.81 -66.81 -32.19C-66.45 -32.57 -65.87 -32.76 -65.07 -32.76L-63.63 -32.76L-63.63 -38.82L-76.77 -38.82L-85.47 -18.6L-94.29 -38.82L-107.49 -38.82L-107.49 -32.76L-106.05 -32.76C-105.21 -32.76 -104.6 -32.57 -104.22 -32.19C-103.84 -31.81 -103.65 -31.22 -103.65 -30.42L-103.65 -8.4C-103.65 -7.6 -103.84 -7.01 -104.22 -6.63C-104.6 -6.25 -105.21 -6.06 -106.05 -6.06Z M-55.05 -6.06L-55.05 0L-24.75 0L-24.75 -9.3L-33.33 -9.3L-33.33 -8.4C-33.33 -6.84 -34.13 -6.06 -35.73 -6.06L-41.79 -6.06L-41.79 -16.38L-33.63 -16.38L-33.63 -22.44L-41.79 -22.44L-41.79 -32.76L-35.73 -32.76C-34.13 -32.76 -33.33 -32 -33.33 -30.48L-33.33 -29.58L-24.75 -29.58L-24.75 -38.82L-55.05 -38.82L-55.05 -32.76L-53.61 -32.76C-52.01 -32.76 -51.21 -32.02 -51.21 -30.54L-51.21 -8.4C-51.21 -7.6 -51.4 -7.01 -51.78 -6.63C-52.16 -6.25 -52.77 -6.06 -53.61 -6.06Z M7.77 -6.06L7.77 0L24.81 0L24.81 -6.06L23.37 -6.06C21.81 -6.06 21.03 -6.8 21.03 -8.28L21.03 -16.38L29.19 -16.38L29.19 -22.44L21.03 -22.44L21.03 -32.76L27.09 -32.76C28.69 -32.76 29.49 -32 29.49 -30.48L29.49 -29.58L38.07 -29.58L38.07 -38.82L7.77 -38.82L7.77 -32.76L9.21 -32.76C10.81 -32.76 11.61 -32.02 11.61 -30.54L11.61 -8.4C11.61 -7.6 11.42 -7.01 11.04 -6.63C10.66 -6.25 10.05 -6.06 9.21 -6.06Z M46.59 -6.06L46.59 0L76.89 0L76.89 -10.74L68.31 -10.74L68.31 -8.4C68.31 -6.84 67.51 -6.06 65.91 -6.06L59.85 -6.06L59.85 -30.54C59.85 -32.02 60.65 -32.76 62.25 -32.76L63.63 -32.76L63.63 -38.82L46.59 -38.82L46.59 -32.76L48.03 -32.76C49.63 -32.76 50.43 -32.02 50.43 -30.54L50.43 -8.4C50.43 -7.6 50.24 -7.01 49.86 -6.63C49.48 -6.25 48.85 -6.06 47.97 -6.06Z M88.23 -4.11C91.31 -0.77 96.01 0.9 102.33 0.9C108.65 0.9 113.35 -0.77 116.43 -4.11C119.51 -7.45 121.05 -12.5 121.05 -19.26C121.05 -26.1 119.55 -31.22 116.55 -34.62C113.55 -38.02 108.81 -39.72 102.33 -39.72C95.85 -39.72 91.11 -38.02 88.11 -34.62C85.11 -31.22 83.61 -26.1 83.61 -19.26C83.61 -12.5 85.15 -7.45 88.23 -4.11ZM107.76 -6.6C106.38 -5.68 104.57 -5.22 102.33 -5.22C100.09 -5.22 98.29 -5.68 96.93 -6.6C95.57 -7.52 94.57 -9 93.93 -11.04C93.29 -13.08 92.97 -15.82 92.97 -19.26C92.97 -22.78 93.29 -25.58 93.93 -27.66C94.57 -29.74 95.57 -31.25 96.93 -32.19C98.29 -33.13 100.09 -33.6 102.33 -33.6C104.57 -33.6 106.38 -33.13 107.76 -32.19C109.14 -31.25 110.15 -29.74 110.79 -27.66C111.43 -25.58 111.75 -22.78 111.75 -19.26C111.75 -15.82 111.43 -13.08 110.79 -11.04C110.15 -9 109.14 -7.52 107.76 -6.6Z M131.61 -29.94L138.21 0L145.83 0L151.23 -16.2L156.69 0L164.25 0L170.91 -29.94C171.15 -31.06 171.54 -31.81 172.08 -32.19C172.62 -32.57 173.55 -32.76 174.87 -32.76L175.65 -32.76L175.65 -38.82L164.19 -38.82L159.57 -16.68L154.59 -32.28L147.87 -32.28L142.95 -16.68L138.33 -38.82L126.87 -38.82L126.87 -32.76L127.59 -32.76C128.91 -32.76 129.84 -32.57 130.38 -32.19C130.92 -31.81 131.33 -31.06 131.61 -29.94Z" fill="#4D4D4D"></path></g></g></svg>