<svg xmlns:xlink="http://www.w3.org/1999/xlink" id="SvgjsSvg1265" width="300" height="148" xmlns="http://www.w3.org/2000/svg" version="1.1" xlink="http://www.w3.org/1999/xlink" xmlns:svgjs="http://svgjs.com/svgjs" preserveAspectRatio="xMidYMid meet" viewBox="0 0 136.7910919189453 147" overflow="visible"><defs id="SvgjsDefs1266"></defs><g id="SvgjsG1267" transform="scale(0.45065261856762373)" opacity="1"><g id="SvgjsG1268" class="cAS-3ibSaS" transform="translate(24.283200000000008, 0) scale(0.9528161217655899)" light-content="false" non-strokable="false" fill="#2F9EF9"><circle cx="133.8" cy="133.8" r="133.8" fill="#2F9EF9"></circle></g><g id="SvgjsG1269" class="RyUXJ_VgJi" transform="translate(64.27235698375361, 39.98915698375361) scale(1.7499528937026299)" light-content="true" non-strokable="false" fill="#FFFFFF"><path d="M51.1 56.4h.2c.2 0 .3-.1.4-.1h.2c.1 0 .3-.1.4-.2.1 0 .1 0 .2-.1.2-.1.3-.1.5-.2h.1c2-1.1 3.4-3.2 3.4-5.7 0-.9-.2-1.8-.6-2.6l11.6-11.6-3.3-3.3-11.6 11.5s-.1 0-.1-.1c0 0-.1 0-.2-.1s-.3-.1-.4-.2h-.2c-.1 0-.3-.1-.4-.1h-.2c-.2 0-.3-.1-.5-.1H50c-1.7 0-3.3.7-4.6 1.9-.6.6-1.1 1.4-1.5 2.2h-13v4.7H44c.3.8.8 1.6 1.5 2.2 1.2 1.2 2.8 1.9 4.6 1.9h1zM48.2 50c0-1 .8-1.8 1.8-1.8.5 0 .9.2 1.3.5.3.3.5.8.5 1.3s-.2.9-.5 1.3c-.5.5-1.4.6-2.1.3-.6-.3-1-.9-1-1.6zM23.6 30.8l-3.8-2.7c1.1-1.6 2.4-3.1 3.8-4.4l3.3 3.3c-1.2 1.1-2.3 2.5-3.3 3.8zm4.5-11c1.6-1.1 3.3-2.2 5-3.1l2.1 4.2c-1.5.8-3 1.7-4.4 2.7l-2.7-3.8zM21 64.9c.8 1.5 1.7 3 2.7 4.4L19.9 72c-1.1-1.6-2.2-3.2-3.1-5l4.2-2.1zm-2-4.8l-4.4 1.5c-.6-1.8-1.1-3.8-1.4-5.7l4.6-.7c.3 1.7.7 3.3 1.2 4.9zm-1.6-10h-4.7V50c0-2 .2-3.9.5-5.8l4.6.7c-.3 1.7-.4 3.4-.4 5.2zm-.6-17l4.2 2.1c-.8 1.5-1.4 3.1-2 4.7l-4.4-1.4c.5-1.9 1.3-3.7 2.2-5.4zm52.4 43.3l2.8 3.8c-1.6 1.1-3.2 2.2-5 3.1l-2.1-4.2c1.5-.8 2.9-1.7 4.3-2.7zM60.1 81l1.4 4.4c-1.8.6-3.8 1.1-5.7 1.4l-.7-4.6c1.7-.2 3.4-.7 5-1.2zm16.3-57.4l-3.3 3.3c-1.2-1.2-2.5-2.3-3.9-3.3l2.7-3.8c1.6 1.2 3.1 2.4 4.5 3.8zm3.8 4.5c1.1 1.6 2.2 3.2 3.1 5l-4.2 2.1c-.8-1.5-1.7-3-2.7-4.4l3.8-2.7zm-3.8 41l3.8 2.7c-1.1 1.6-2.4 3.1-3.8 4.5L73.1 73c1.2-1.2 2.3-2.5 3.3-3.9zM82.6 50h4.7v.1c0 1.9-.2 3.8-.4 5.7l-4.6-.7c.2-1.7.3-3.4.3-5.1zM35.2 79.1c1.5.8 3.1 1.4 4.7 2l-1.4 4.4c-1.9-.6-3.7-1.3-5.4-2.2l2.1-4.2zm47-34.2c-.3-1.7-.7-3.4-1.2-5l4.4-1.4c.6 1.9 1.1 3.8 1.4 5.7l-4.6.7zM50 82.6l.1 4.7H50c-1.9 0-3.9-.1-5.8-.4l.7-4.6c1.7.2 3.4.3 5.1.3zm-23-9.5c1.2 1.2 2.5 2.3 3.9 3.3l-2.7 3.8c-1.6-1.1-3.1-2.4-4.5-3.8l3.3-3.3zM81 60l4.4 1.4c-.6 1.9-1.4 3.7-2.2 5.4L79 64.7c.9-1.4 1.5-3 2-4.7zM50 17.4v-4.7c1.9 0 3.9.2 5.8.5l-.7 4.6c-1.7-.3-3.4-.4-5.1-.4zm-11.5-2.9c1.9-.6 3.8-1.1 5.7-1.4l.7 4.6c-1.7.3-3.4.7-5 1.2l-1.4-4.4zm26.3 6.4c-1.5-.8-3.1-1.4-4.7-2l1.4-4.4c1.9.6 3.7 1.4 5.4 2.2l-2.1 4.2z" fill="#FFFFFF"></path></g><g id="SvgjsG1270" class="text" transform="translate(151.9199981689453, 325.4735999999999) scale(1)" light-content="false" fill="#383838"><path d="M-139.98 0.72C-137.22 0.72 -134.9 0.26 -133.02 -0.66L-132.06 -7.98C-133.82 -7.18 -135.58 -6.78 -137.34 -6.78C-137.82 -6.78 -138.23 -6.93 -138.57 -7.23C-138.91 -7.53 -139.08 -7.96 -139.08 -8.52L-139.08 -23.04L-132.42 -23.04L-132.42 -30.66L-139.08 -30.66L-139.08 -43.32L-147.72 -39.18L-147.72 -30.66L-151.92 -30.66L-151.92 -23.04L-147.72 -23.04L-147.72 -7.68C-147.72 -2.08 -145.14 0.72 -139.98 0.72Z M-114.72 -33.6C-113.32 -33.6 -112.14 -34.09 -111.18 -35.07C-110.22 -36.05 -109.74 -37.22 -109.74 -38.58C-109.74 -39.98 -110.22 -41.15 -111.18 -42.09C-112.14 -43.03 -113.32 -43.5 -114.72 -43.5C-116.12 -43.5 -117.31 -43.02 -118.29 -42.06C-119.27 -41.1 -119.76 -39.94 -119.76 -38.58C-119.76 -37.22 -119.26 -36.05 -118.26 -35.07C-117.26 -34.09 -116.08 -33.6 -114.72 -33.6ZM-119.1 0L-110.4 0L-110.4 -30.66L-119.1 -30.66Z M-59.34 0L-50.64 0L-50.64 -18.96C-50.64 -23.56 -51.66 -26.78 -53.7 -28.62C-55.74 -30.46 -58.62 -31.38 -62.34 -31.38C-66.66 -31.38 -69.86 -29.96 -71.94 -27.12C-73.3 -29.96 -75.86 -31.38 -79.62 -31.38C-82.38 -31.38 -84.72 -30.2 -86.64 -27.84L-86.64 -30.66L-95.34 -30.66L-95.34 0L-86.64 0L-86.64 -16.08C-86.64 -18.64 -86.29 -20.43 -85.59 -21.45C-84.89 -22.47 -83.6 -22.98 -81.72 -22.98C-80.08 -22.98 -78.94 -22.46 -78.3 -21.42C-77.66 -20.38 -77.34 -18.52 -77.34 -15.84L-77.34 0L-68.64 0L-68.64 -16.08C-68.64 -18.64 -68.29 -20.43 -67.59 -21.45C-66.89 -22.47 -65.6 -22.98 -63.72 -22.98C-62.08 -22.98 -60.94 -22.46 -60.3 -21.42C-59.66 -20.38 -59.34 -18.52 -59.34 -15.84Z M-22.86 0.72C-17.98 0.72 -14 -1.14 -10.92 -4.86L-15.96 -9.9C-17.76 -7.74 -20.06 -6.66 -22.86 -6.66C-24.58 -6.66 -26 -7.13 -27.12 -8.07C-28.24 -9.01 -28.84 -10.44 -28.92 -12.36L-9.3 -12.36C-9.14 -13.4 -9.06 -14.9 -9.06 -16.86C-9.06 -21.58 -10.34 -25.18 -12.9 -27.66C-15.46 -30.14 -18.78 -31.38 -22.86 -31.38C-27.34 -31.38 -30.89 -29.94 -33.51 -27.06C-36.13 -24.18 -37.44 -20.28 -37.44 -15.36C-37.44 -10.32 -36.14 -6.38 -33.54 -3.54C-30.94 -0.7 -27.38 0.72 -22.86 0.72ZM-28.86 -18.9C-28.66 -20.5 -28.06 -21.75 -27.06 -22.65C-26.06 -23.55 -24.78 -24 -23.22 -24C-19.78 -24 -17.84 -22.3 -17.4 -18.9Z M48.48 0L57.18 0L57.18 -43.32L48.48 -39.24ZM34.62 -23.04L41.04 -23.04L41.04 -30.66L34.62 -30.66L34.62 -33.42C34.62 -34.58 35.3 -35.16 36.66 -35.16C37.9 -35.16 39.36 -34.82 41.04 -34.14L41.04 -41.16C39.12 -42.2 36.7 -42.72 33.78 -42.72C28.54 -42.72 25.92 -40.22 25.92 -35.22L25.92 -30.66L21.84 -30.66L21.84 -23.04L25.92 -23.04L25.92 0L34.62 0Z M85.2 0.72C89.56 0.72 93 -0.7 95.52 -3.54C98.04 -6.38 99.3 -10.3 99.3 -15.3C99.3 -20.26 98.03 -24.18 95.49 -27.06C92.95 -29.94 89.52 -31.38 85.2 -31.38C80.84 -31.38 77.38 -29.94 74.82 -27.06C72.26 -24.18 70.98 -20.26 70.98 -15.3C70.98 -10.3 72.25 -6.38 74.79 -3.54C77.33 -0.7 80.8 0.72 85.2 0.72ZM85.2 -7.68C83.52 -7.68 82.18 -8.35 81.18 -9.69C80.18 -11.03 79.68 -12.9 79.68 -15.3C79.68 -17.7 80.18 -19.58 81.18 -20.94C82.18 -22.3 83.52 -22.98 85.2 -22.98C86.92 -22.98 88.25 -22.3 89.19 -20.94C90.13 -19.58 90.6 -17.7 90.6 -15.3C90.6 -12.9 90.13 -11.03 89.19 -9.69C88.25 -8.35 86.92 -7.68 85.2 -7.68Z M118.74 0L126.42 0L129.66 -13.92L129.96 -15.12C130.12 -15.76 130.28 -16.43 130.44 -17.13C130.6 -17.83 130.72 -18.42 130.8 -18.9C130.88 -18.26 131.07 -17.3 131.37 -16.02C131.67 -14.74 131.82 -14.04 131.82 -13.92L135.06 0L142.74 0L151.62 -30.66L143.04 -30.66L139.68 -18.06C139.56 -17.7 139.41 -16.95 139.23 -15.81C139.05 -14.67 138.92 -13.92 138.84 -13.56C138.72 -14 138.54 -14.78 138.3 -15.9C138.06 -17.02 137.9 -17.74 137.82 -18.06L134.64 -30.66L126.84 -30.66L123.6 -18.06C123.48 -17.66 123.3 -16.88 123.06 -15.72C122.82 -14.56 122.66 -13.84 122.58 -13.56C122.46 -14 122.3 -14.78 122.1 -15.9C121.9 -17.02 121.76 -17.74 121.68 -18.06L118.5 -30.66L109.92 -30.66Z" fill="#383838"></path></g></g></svg>