<svg xmlns:xlink="http://www.w3.org/1999/xlink" id="SvgjsSvg1256" width="300" height="148" xmlns="http://www.w3.org/2000/svg" version="1.1" xlink="http://www.w3.org/1999/xlink" xmlns:svgjs="http://svgjs.com/svgjs" preserveAspectRatio="xMidYMid meet" viewBox="6.332001589726133e-7 0 299.9999694824219 46.25332260131836" overflow="visible"><defs id="SvgjsDefs1257"></defs><g id="SvgjsG1258" transform="scale(0.6683388109724041)" opacity="1"><g id="SvgjsG1259" class="YWAtf1TKnV" transform="translate(-0.4837518697451943, 0) scale(0.692064)" light-content="false" non-strokable="false" fill="#0C36B6"><path d="M44 0l43.301 25v50L44 100 .699 75V25z" fill="#0C36B6"></path></g><g id="SvgjsG1260" class="4xBcMLbJaR" transform="translate(7.702269667576363, 12.338406403576364) scale(0.4452958804218176)" light-content="true" non-strokable="false" fill="#FFFFFF"><path d="M51.1 56.4h.2c.2 0 .3-.1.4-.1h.2c.1 0 .3-.1.4-.2.1 0 .1 0 .2-.1.2-.1.3-.1.5-.2h.1c2-1.1 3.4-3.2 3.4-5.7 0-.9-.2-1.8-.6-2.6l11.6-11.6-3.3-3.3-11.6 11.5s-.1 0-.1-.1c0 0-.1 0-.2-.1s-.3-.1-.4-.2h-.2c-.1 0-.3-.1-.4-.1h-.2c-.2 0-.3-.1-.5-.1H50c-1.7 0-3.3.7-4.6 1.9-.6.6-1.1 1.4-1.5 2.2h-13v4.7H44c.3.8.8 1.6 1.5 2.2 1.2 1.2 2.8 1.9 4.6 1.9h1zM48.2 50c0-1 .8-1.8 1.8-1.8.5 0 .9.2 1.3.5.3.3.5.8.5 1.3s-.2.9-.5 1.3c-.5.5-1.4.6-2.1.3-.6-.3-1-.9-1-1.6zM23.6 30.8l-3.8-2.7c1.1-1.6 2.4-3.1 3.8-4.4l3.3 3.3c-1.2 1.1-2.3 2.5-3.3 3.8zm4.5-11c1.6-1.1 3.3-2.2 5-3.1l2.1 4.2c-1.5.8-3 1.7-4.4 2.7l-2.7-3.8zM21 64.9c.8 1.5 1.7 3 2.7 4.4L19.9 72c-1.1-1.6-2.2-3.2-3.1-5l4.2-2.1zm-2-4.8l-4.4 1.5c-.6-1.8-1.1-3.8-1.4-5.7l4.6-.7c.3 1.7.7 3.3 1.2 4.9zm-1.6-10h-4.7V50c0-2 .2-3.9.5-5.8l4.6.7c-.3 1.7-.4 3.4-.4 5.2zm-.6-17l4.2 2.1c-.8 1.5-1.4 3.1-2 4.7l-4.4-1.4c.5-1.9 1.3-3.7 2.2-5.4zm52.4 43.3l2.8 3.8c-1.6 1.1-3.2 2.2-5 3.1l-2.1-4.2c1.5-.8 2.9-1.7 4.3-2.7zM60.1 81l1.4 4.4c-1.8.6-3.8 1.1-5.7 1.4l-.7-4.6c1.7-.2 3.4-.7 5-1.2zm16.3-57.4l-3.3 3.3c-1.2-1.2-2.5-2.3-3.9-3.3l2.7-3.8c1.6 1.2 3.1 2.4 4.5 3.8zm3.8 4.5c1.1 1.6 2.2 3.2 3.1 5l-4.2 2.1c-.8-1.5-1.7-3-2.7-4.4l3.8-2.7zm-3.8 41l3.8 2.7c-1.1 1.6-2.4 3.1-3.8 4.5L73.1 73c1.2-1.2 2.3-2.5 3.3-3.9zM82.6 50h4.7v.1c0 1.9-.2 3.8-.4 5.7l-4.6-.7c.2-1.7.3-3.4.3-5.1zM35.2 79.1c1.5.8 3.1 1.4 4.7 2l-1.4 4.4c-1.9-.6-3.7-1.3-5.4-2.2l2.1-4.2zm47-34.2c-.3-1.7-.7-3.4-1.2-5l4.4-1.4c.6 1.9 1.1 3.8 1.4 5.7l-4.6.7zM50 82.6l.1 4.7H50c-1.9 0-3.9-.1-5.8-.4l.7-4.6c1.7.2 3.4.3 5.1.3zm-23-9.5c1.2 1.2 2.5 2.3 3.9 3.3l-2.7 3.8c-1.6-1.1-3.1-2.4-4.5-3.8l3.3-3.3zM81 60l4.4 1.4c-.6 1.9-1.4 3.7-2.2 5.4L79 64.7c.9-1.4 1.5-3 2-4.7zM50 17.4v-4.7c1.9 0 3.9.2 5.8.5l-.7 4.6c-1.7-.3-3.4-.4-5.1-.4zm-11.5-2.9c1.9-.6 3.8-1.1 5.7-1.4l.7 4.6c-1.7.3-3.4.7-5 1.2l-1.4-4.4zm26.3 6.4c-1.5-.8-3.1-1.4-4.7-2l1.4-4.4c1.9.6 3.7 1.4 5.4 2.2l-2.1 4.2z" fill="#FFFFFF"></path></g><g id="SvgjsG1261" class="text" transform="translate(272.11411920378123, 58.033199084472656) scale(1)" light-content="false" fill="#3D3D3D"><path d="M-140.28 -46.26C-140.68 -46.66 -141.2 -46.86 -141.84 -46.86L-175.02 -46.86C-175.66 -46.86 -176.18 -46.66 -176.58 -46.26C-176.98 -45.86 -177.18 -45.34 -177.18 -44.7C-177.18 -44.1 -176.98 -43.6 -176.58 -43.2C-176.18 -42.8 -175.66 -42.6 -175.02 -42.6L-160.8 -42.6L-160.8 -2.34C-160.8 -1.7 -160.57 -1.15 -160.11 -0.69C-159.65 -0.23 -159.1 0 -158.46 0C-157.78 0 -157.22 -0.23 -156.78 -0.69C-156.34 -1.15 -156.12 -1.7 -156.12 -2.34L-156.12 -42.6L-141.84 -42.6C-141.2 -42.6 -140.68 -42.8 -140.28 -43.2C-139.88 -43.6 -139.68 -44.1 -139.68 -44.7C-139.68 -45.34 -139.88 -45.86 -140.28 -46.26Z M-132.09 -46.2C-132.55 -45.76 -132.78 -45.2 -132.78 -44.52L-132.78 -2.34C-132.78 -1.7 -132.55 -1.15 -132.09 -0.69C-131.63 -0.23 -131.08 0 -130.44 0C-129.76 0 -129.2 -0.23 -128.76 -0.69C-128.32 -1.15 -128.1 -1.7 -128.1 -2.34L-128.1 -44.52C-128.1 -45.2 -128.32 -45.76 -128.76 -46.2C-129.2 -46.64 -129.76 -46.86 -130.44 -46.86C-131.08 -46.86 -131.63 -46.64 -132.09 -46.2Z M-69.9 -46.2C-70.34 -46.64 -70.88 -46.86 -71.52 -46.86C-72.44 -46.86 -73.14 -46.46 -73.62 -45.66L-92.46 -7.5L-111.66 -45.66C-112.14 -46.46 -112.84 -46.86 -113.76 -46.86C-114.4 -46.86 -114.95 -46.64 -115.41 -46.2C-115.87 -45.76 -116.1 -45.2 -116.1 -44.52L-116.1 -2.34C-116.1 -1.7 -115.87 -1.15 -115.41 -0.69C-114.95 -0.23 -114.4 0 -113.76 0C-113.08 0 -112.52 -0.23 -112.08 -0.69C-111.64 -1.15 -111.42 -1.7 -111.42 -2.34L-111.42 -35.76L-94.8 -2.52C-94.36 -1.56 -93.64 -1.08 -92.64 -1.08C-91.76 -1.08 -91.08 -1.46 -90.6 -2.22L-73.92 -36.3L-73.92 -2.34C-73.92 -1.7 -73.69 -1.15 -73.23 -0.69C-72.77 -0.23 -72.2 0 -71.52 0C-70.88 0 -70.34 -0.23 -69.9 -0.69C-69.46 -1.15 -69.24 -1.7 -69.24 -2.34L-69.24 -44.52C-69.24 -45.2 -69.46 -45.76 -69.9 -46.2Z M-25.08 -3.87C-25.52 -4.29 -26.08 -4.5 -26.76 -4.5L-52.56 -4.5L-52.56 -21.24L-33.78 -21.24C-33.14 -21.24 -32.59 -21.46 -32.13 -21.9C-31.67 -22.34 -31.44 -22.88 -31.44 -23.52C-31.44 -24.16 -31.66 -24.7 -32.1 -25.14C-32.54 -25.58 -33.1 -25.8 -33.78 -25.8L-52.56 -25.8L-52.56 -42.36L-26.76 -42.36C-26.08 -42.36 -25.52 -42.57 -25.08 -42.99C-24.64 -43.41 -24.42 -43.94 -24.42 -44.58C-24.42 -45.22 -24.64 -45.76 -25.08 -46.2C-25.52 -46.64 -26.08 -46.86 -26.76 -46.86L-54.9 -46.86C-55.54 -46.86 -56.09 -46.64 -56.55 -46.2C-57.01 -45.76 -57.24 -45.2 -57.24 -44.52L-57.24 -2.34C-57.24 -1.7 -57.01 -1.15 -56.55 -0.69C-56.09 -0.23 -55.54 0 -54.9 0L-26.76 0C-26.08 0 -25.52 -0.22 -25.08 -0.66C-24.64 -1.1 -24.42 -1.64 -24.42 -2.28C-24.42 -2.92 -24.64 -3.45 -25.08 -3.87Z M23.28 -25.17C22.84 -25.59 22.28 -25.8 21.6 -25.8L2.82 -25.8L2.82 -42.36L28.62 -42.36C29.3 -42.36 29.86 -42.57 30.3 -42.99C30.74 -43.41 30.96 -43.94 30.96 -44.58C30.96 -45.22 30.74 -45.76 30.3 -46.2C29.86 -46.64 29.3 -46.86 28.62 -46.86L0.48 -46.86C-0.16 -46.86 -0.71 -46.64 -1.17 -46.2C-1.63 -45.76 -1.86 -45.2 -1.86 -44.52L-1.86 -2.34C-1.86 -1.7 -1.63 -1.15 -1.17 -0.69C-0.71 -0.23 -0.16 0 0.48 0C1.16 0 1.72 -0.23 2.16 -0.69C2.6 -1.15 2.82 -1.7 2.82 -2.34L2.82 -21.24L21.6 -21.24C22.28 -21.24 22.84 -21.46 23.28 -21.9C23.72 -22.34 23.94 -22.88 23.94 -23.52C23.94 -24.2 23.72 -24.75 23.28 -25.17Z M69.18 -3.81C68.74 -4.23 68.18 -4.44 67.5 -4.44L44.04 -4.44L44.04 -44.52C44.04 -45.2 43.82 -45.76 43.38 -46.2C42.94 -46.64 42.38 -46.86 41.7 -46.86C41.06 -46.86 40.51 -46.63 40.05 -46.17C39.59 -45.71 39.36 -45.16 39.36 -44.52L39.36 -2.34C39.36 -1.7 39.59 -1.15 40.05 -0.69C40.51 -0.23 41.06 0 41.7 0L67.5 0C68.18 0 68.74 -0.21 69.18 -0.63C69.62 -1.05 69.84 -1.58 69.84 -2.22C69.84 -2.86 69.62 -3.39 69.18 -3.81Z M107.07 -44.34C103.41 -46.42 99.32 -47.46 94.8 -47.46C90.24 -47.46 86.14 -46.42 82.5 -44.34C78.86 -42.26 76.01 -39.4 73.95 -35.76C71.89 -32.12 70.86 -28.02 70.86 -23.46C70.86 -18.9 71.89 -14.79 73.95 -11.13C76.01 -7.47 78.86 -4.6 82.5 -2.52C86.14 -0.44 90.24 0.6 94.8 0.6C99.32 0.6 103.41 -0.44 107.07 -2.52C110.73 -4.6 113.59 -7.47 115.65 -11.13C117.71 -14.79 118.74 -18.9 118.74 -23.46C118.74 -28.02 117.71 -32.12 115.65 -35.76C113.59 -39.4 110.73 -42.26 107.07 -44.34ZM84.87 -40.44C87.81 -42.16 91.12 -43.02 94.8 -43.02C98.44 -43.02 101.73 -42.16 104.67 -40.44C107.61 -38.72 109.92 -36.37 111.6 -33.39C113.28 -30.41 114.12 -27.1 114.12 -23.46C114.12 -19.78 113.28 -16.45 111.6 -13.47C109.92 -10.49 107.61 -8.14 104.67 -6.42C101.73 -4.7 98.44 -3.84 94.8 -3.84C91.12 -3.84 87.81 -4.7 84.87 -6.42C81.93 -8.14 79.62 -10.49 77.94 -13.47C76.26 -16.45 75.42 -19.78 75.42 -23.46C75.42 -27.1 76.26 -30.41 77.94 -33.39C79.62 -36.37 81.93 -38.72 84.87 -40.44Z M176.22 -46.23C175.86 -46.65 175.36 -46.86 174.72 -46.86C173.52 -46.86 172.76 -46.34 172.44 -45.3L162 -8.82L152.1 -43.98C151.94 -44.46 151.66 -44.84 151.26 -45.12C150.86 -45.4 150.4 -45.54 149.88 -45.54C149.36 -45.54 148.89 -45.4 148.47 -45.12C148.05 -44.84 147.78 -44.48 147.66 -44.04L137.82 -8.88L127.44 -45.06C127.04 -46.26 126.28 -46.86 125.16 -46.86C124.52 -46.86 124 -46.65 123.6 -46.23C123.2 -45.81 123 -45.26 123 -44.58C123 -44.3 123.06 -43.94 123.18 -43.5L135.48 -1.92C135.64 -1.36 135.93 -0.9 136.35 -0.54C136.77 -0.18 137.26 0 137.82 0C138.38 0 138.87 -0.18 139.29 -0.54C139.71 -0.9 140.02 -1.38 140.22 -1.98L149.88 -37.38L159.6 -1.92C159.76 -1.36 160.05 -0.9 160.47 -0.54C160.89 -0.18 161.38 0 161.94 0C162.5 0 162.99 -0.17 163.41 -0.51C163.83 -0.85 164.14 -1.34 164.34 -1.98L176.58 -43.5C176.7 -43.94 176.76 -44.32 176.76 -44.64C176.76 -45.28 176.58 -45.81 176.22 -46.23Z" fill="#3D3D3D"></path></g></g></svg>