<svg xmlns:xlink="http://www.w3.org/1999/xlink" id="SvgjsSvg1138" width="300" height="148" xmlns="http://www.w3.org/2000/svg" version="1.1" xlink="http://www.w3.org/1999/xlink" xmlns:svgjs="http://svgjs.com/svgjs" preserveAspectRatio="xMidYMid meet" viewBox="6.389688564922835e-7 1.3515347063730587e-7 299.9999694824219 51.83502960205078" overflow="visible"><defs id="SvgjsDefs1139"></defs><g id="SvgjsG1140" transform="scale(0.5668747881525931)" opacity="1"><g id="SvgjsG1141" class="CpN6JP2q1" transform="translate(-5.077966062133795, -5.08) scale(1.016)" light-content="false" non-strokable="false" fill="#45BFFC"><path d="M51.508 31.537a.858.858 0 0 1-.855.856h-.22a.858.858 0 0 1-.856-.856V26.56c0-.471.385-.856.856-.856h.22c.472 0 .855.385.855.856v4.977zm8.971 3.193a.854.854 0 0 1-1.166.317l-.201-.115a.858.858 0 0 1-.316-1.168l2.473-4.317a.859.859 0 0 1 1.168-.317l.198.114c.408.234.552.76.317 1.169l-2.473 4.317zm6.178 7.226a.858.858 0 0 1-1.171-.308l-.11-.193a.859.859 0 0 1 .31-1.172l4.293-2.506a.861.861 0 0 1 1.172.307l.109.188c.238.406.1.933-.307 1.171l-4.296 2.513zm1.766 9.343a.854.854 0 0 1-.86-.85v-.221a.86.86 0 0 1 .853-.862l4.967-.037a.86.86 0 0 1 .864.85l.003.218a.857.857 0 0 1-.849.863l-4.978.039zm-3.116 8.993a.856.856 0 0 1-.326-1.164l.109-.194a.86.86 0 0 1 1.167-.326l4.335 2.438c.41.23.559.756.327 1.166l-.107.188a.86.86 0 0 1-1.166.328l-4.339-2.436zm-7.179 6.237a.855.855 0 0 1 .299-1.17l.196-.114a.864.864 0 0 1 1.176.301l2.542 4.269a.862.862 0 0 1-.296 1.176l-.188.111a.858.858 0 0 1-1.174-.295l-2.555-4.278zm-9.325 1.844a.854.854 0 0 1 .842-.866l.225-.004a.862.862 0 0 1 .869.845l.079 4.971a.858.858 0 0 1-.841.871l-.223.004a.853.853 0 0 1-.869-.838l-.082-4.983zm-9.017-3.036a.856.856 0 0 1 1.162-.335l.194.107a.86.86 0 0 1 .335 1.164l-2.402 4.349a.86.86 0 0 1-1.164.336l-.188-.104a.858.858 0 0 1-.337-1.162l2.4-4.355zm-6.298-7.121a.854.854 0 0 1 1.172.29l.114.189a.864.864 0 0 1-.292 1.178l-4.25 2.576a.859.859 0 0 1-1.175-.289l-.113-.188a.86.86 0 0 1 .289-1.178l4.255-2.578zm-1.923-9.315a.85.85 0 0 1 .871.834l.003.216a.866.866 0 0 1-.841.877l-4.969.126a.854.854 0 0 1-.874-.834l-.004-.218a.864.864 0 0 1 .838-.877l4.976-.124zm2.966-9.04a.854.854 0 0 1 .343 1.158l-.105.192a.864.864 0 0 1-1.164.343l-4.37-2.366a.86.86 0 0 1-.346-1.161l.101-.187a.859.859 0 0 1 1.16-.346l4.381 2.367zm7.066-6.36a.855.855 0 0 1-.279 1.176l-.187.114a.861.861 0 0 1-1.18-.281l-2.611-4.229a.858.858 0 0 1 .278-1.178l.186-.115a.859.859 0 0 1 1.179.279l2.614 4.234zm13.585 16a4.725 4.725 0 0 1-6.956 4.171l-2.392 2.386-1.609-1.604 2.312-2.312a4.719 4.719 0 0 1-.808-2.641 4.73 4.73 0 0 1 4.729-4.723c1.043 0 2.007.336 2.783.911l12.448-11.45.615.612L54.77 47.564a4.8 4.8 0 0 1 .412 1.937z" fill="#45BFFC"></path><path d="M87.635 49.32a37.263 37.263 0 0 0-1.613-10.308l6.153-4.819-4.586-9.028-7.555 2.163a37.367 37.367 0 0 0-7.362-7.388l2.139-7.531-8.979-4.585-4.848 6.154a39.342 39.342 0 0 0-5.082-1.165 38.961 38.961 0 0 0-5.202-.473L47.993 5l-9.978 1.566-.306 7.838a37.828 37.828 0 0 0-9.29 4.75l-6.509-4.393-7.151 7.148 4.371 6.509a36.894 36.894 0 0 0-4.723 9.312l-7.84.284-1.569 9.977L12.34 50.7c.07 3.542.615 7.011 1.636 10.282l-6.175 4.853 4.609 8.999 7.531-2.143a38.662 38.662 0 0 0 7.362 7.369l-2.138 7.53 9.026 4.582 4.82-6.153c1.664.502 3.35.881 5.108 1.168 1.734.281 3.469.422 5.2.446L52.007 95l9.999-1.564.287-7.844a36.779 36.779 0 0 0 9.264-4.748l6.508 4.368 7.151-7.151-4.37-6.457a37.266 37.266 0 0 0 4.75-9.311l7.812-.288 1.594-9.972-7.367-2.713zm-9.167 5.203c-2.495 15.722-17.245 26.437-32.967 23.94-15.728-2.468-26.462-17.239-23.969-32.966 2.493-15.725 17.27-26.463 32.993-23.967 15.7 2.494 26.439 17.271 23.943 32.993z" fill="#45BFFC"></path></g><g id="SvgjsG1142" class="text" transform="translate(326.2074001816406, 67.97999893188477) scale(1)" light-content="false" fill="#242424"><path d="M-194.79 -43.62L-195.75 -36.78C-195.79 -36.42 -195.74 -36.18 -195.6 -36.06C-195.46 -35.94 -195.21 -35.88 -194.85 -35.88L-183.63 -35.88C-183.23 -35.88 -183.03 -35.7 -183.03 -35.34L-183.03 -35.16L-187.83 -1.44C-187.87 -1.28 -187.89 -1.1 -187.89 -0.9C-187.89 -0.58 -187.8 -0.35 -187.62 -0.21C-187.44 -0.07 -187.15 0 -186.75 0L-176.79 0C-176.15 0 -175.81 -0.36 -175.77 -1.08L-170.97 -34.92C-170.89 -35.32 -170.79 -35.58 -170.67 -35.7C-170.55 -35.82 -170.31 -35.88 -169.95 -35.88L-159.03 -35.88C-158.67 -35.88 -158.41 -35.93 -158.25 -36.03C-158.09 -36.13 -157.99 -36.32 -157.95 -36.6L-156.93 -43.56C-156.89 -43.92 -156.92 -44.17 -157.02 -44.31C-157.12 -44.45 -157.39 -44.52 -157.83 -44.52L-193.53 -44.52C-193.97 -44.52 -194.27 -44.46 -194.43 -44.34C-194.59 -44.22 -194.71 -43.98 -194.79 -43.62Z M-134.19 -44.52L-144.45 -44.52C-144.77 -44.52 -145 -44.46 -145.14 -44.34C-145.28 -44.22 -145.37 -43.96 -145.41 -43.56L-151.35 -1.68L-151.41 -1.14C-151.41 -0.38 -151.01 0 -150.21 0L-141.03 0C-140.39 0 -139.95 -0.07 -139.71 -0.21C-139.47 -0.35 -139.33 -0.7 -139.29 -1.26L-133.41 -43.02C-133.29 -44.02 -133.55 -44.52 -134.19 -44.52Z M-125.82 -0.18C-125.68 -0.06 -125.43 0 -125.07 0L-117.45 0C-117.09 0 -116.82 -0.06 -116.64 -0.18C-116.46 -0.3 -116.35 -0.54 -116.31 -0.9L-112.29 -29.28C-112.29 -29.4 -112.26 -29.51 -112.2 -29.61C-112.14 -29.71 -112.07 -29.76 -111.99 -29.76C-111.83 -29.76 -111.69 -29.56 -111.57 -29.16L-106.05 -1.26C-105.93 -0.78 -105.78 -0.45 -105.6 -0.27C-105.42 -0.09 -105.15 0 -104.79 0L-99.09 0C-98.73 0 -98.46 -0.05 -98.28 -0.15C-98.1 -0.25 -97.93 -0.46 -97.77 -0.78L-84.15 -29.34C-83.95 -29.7 -83.81 -29.88 -83.73 -29.88C-83.65 -29.88 -83.61 -29.82 -83.61 -29.7L-83.61 -29.46L-87.57 -1.68C-87.65 -1.04 -87.57 -0.6 -87.33 -0.36C-87.09 -0.12 -86.69 0 -86.13 0L-77.13 0C-76.49 0 -76.07 -0.07 -75.87 -0.21C-75.67 -0.35 -75.53 -0.7 -75.45 -1.26L-69.51 -43.62C-69.39 -44.22 -69.63 -44.52 -70.23 -44.52L-85.83 -44.52C-86.19 -44.52 -86.48 -44.43 -86.7 -44.25C-86.92 -44.07 -87.11 -43.72 -87.27 -43.2L-97.59 -21.42C-97.71 -21.14 -97.85 -21 -98.01 -21C-98.17 -21 -98.25 -21.12 -98.25 -21.36L-102.81 -43.26C-103.01 -44.1 -103.49 -44.52 -104.25 -44.52L-119.01 -44.52C-119.41 -44.52 -119.66 -44.47 -119.76 -44.37C-119.86 -44.27 -119.95 -44 -120.03 -43.56L-125.91 -1.86L-126.03 -0.9C-126.03 -0.54 -125.96 -0.3 -125.82 -0.18Z M-55.92 -44.37C-56.02 -44.27 -56.11 -44 -56.19 -43.56L-62.13 -1.68L-62.19 -1.2C-62.19 -0.4 -61.73 0 -60.81 0L-29.43 0C-28.99 0 -28.7 -0.06 -28.56 -0.18C-28.42 -0.3 -28.31 -0.54 -28.23 -0.9L-27.33 -7.74C-27.25 -8.14 -27.27 -8.42 -27.39 -8.58C-27.51 -8.74 -27.75 -8.82 -28.11 -8.82L-48.51 -8.82C-48.79 -8.82 -48.93 -8.98 -48.93 -9.3L-48.93 -9.54L-47.85 -17.1C-47.77 -17.46 -47.68 -17.71 -47.58 -17.85C-47.48 -17.99 -47.29 -18.06 -47.01 -18.06L-34.65 -18.06C-34.29 -18.06 -34.06 -18.1 -33.96 -18.18C-33.86 -18.26 -33.79 -18.46 -33.75 -18.78L-32.73 -25.74C-32.69 -26.1 -32.72 -26.35 -32.82 -26.49C-32.92 -26.63 -33.15 -26.7 -33.51 -26.7L-45.69 -26.7C-45.97 -26.7 -46.16 -26.73 -46.26 -26.79C-46.36 -26.85 -46.41 -26.98 -46.41 -27.18L-46.35 -27.54L-45.33 -34.68C-45.29 -35.08 -45.19 -35.35 -45.03 -35.49C-44.87 -35.63 -44.61 -35.7 -44.25 -35.7L-25.17 -35.7C-24.69 -35.7 -24.36 -35.78 -24.18 -35.94C-24 -36.1 -23.87 -36.4 -23.79 -36.84L-22.89 -43.08C-22.85 -43.2 -22.83 -43.36 -22.83 -43.56C-22.83 -44.2 -23.11 -44.52 -23.67 -44.52L-55.23 -44.52C-55.59 -44.52 -55.82 -44.47 -55.92 -44.37Z M8.04 -44.34C7.9 -44.22 7.81 -43.96 7.77 -43.56L1.83 -1.68C1.79 -1.44 1.77 -1.14 1.77 -0.78C1.77 -0.46 1.84 -0.25 1.98 -0.15C2.12 -0.05 2.41 0 2.85 0L12.51 0C13.03 0 13.37 -0.07 13.53 -0.21C13.69 -0.35 13.81 -0.7 13.89 -1.26L16.05 -16.44C16.13 -16.96 16.22 -17.29 16.32 -17.43C16.42 -17.57 16.63 -17.64 16.95 -17.64L29.25 -17.64C29.65 -17.64 29.93 -17.69 30.09 -17.79C30.25 -17.89 30.35 -18.1 30.39 -18.42L31.35 -25.44C31.39 -25.72 31.37 -25.91 31.29 -26.01C31.21 -26.11 31.01 -26.16 30.69 -26.16L18.15 -26.16C17.87 -26.16 17.69 -26.19 17.61 -26.25C17.53 -26.31 17.49 -26.44 17.49 -26.64L17.49 -27L18.57 -34.5C18.65 -34.98 18.75 -35.3 18.87 -35.46C18.99 -35.62 19.19 -35.7 19.47 -35.7L38.37 -35.7C38.85 -35.7 39.18 -35.78 39.36 -35.94C39.54 -36.1 39.65 -36.4 39.69 -36.84L40.65 -43.5C40.73 -43.86 40.72 -44.12 40.62 -44.28C40.52 -44.44 40.33 -44.52 40.05 -44.52L8.73 -44.52C8.41 -44.52 8.18 -44.46 8.04 -44.34Z M52.47 -44.28C52.31 -44.12 52.21 -43.84 52.17 -43.44L46.29 -1.68C46.25 -1.16 46.34 -0.75 46.56 -0.45C46.78 -0.15 47.13 0 47.61 0L77.61 0C78.05 0 78.36 -0.06 78.54 -0.18C78.72 -0.3 78.83 -0.54 78.87 -0.9L79.77 -7.44C79.85 -8.36 79.57 -8.82 78.93 -8.82L60.15 -8.82C59.71 -8.82 59.49 -9.04 59.49 -9.48L59.55 -9.78L64.23 -43.02C64.27 -43.14 64.29 -43.32 64.29 -43.56C64.29 -43.84 64.22 -44.07 64.08 -44.25C63.94 -44.43 63.77 -44.52 63.57 -44.52L53.19 -44.52C52.87 -44.52 52.63 -44.44 52.47 -44.28Z M96.51 -1.65C99.31 -0.15 102.65 0.6 106.53 0.6C110.69 0.6 114.44 -0.29 117.78 -2.07C121.12 -3.85 123.87 -6.41 126.03 -9.75C128.19 -13.09 129.59 -17.02 130.23 -21.54C130.43 -22.86 130.53 -24.38 130.53 -26.1C130.53 -29.98 129.79 -33.35 128.31 -36.21C126.83 -39.07 124.7 -41.27 121.92 -42.81C119.14 -44.35 115.85 -45.12 112.05 -45.12C107.89 -45.12 104.13 -44.21 100.77 -42.39C97.41 -40.57 94.64 -37.97 92.46 -34.59C90.28 -31.21 88.87 -27.24 88.23 -22.68C88.03 -21.32 87.93 -19.78 87.93 -18.06C87.93 -14.22 88.66 -10.9 90.12 -8.1C91.58 -5.3 93.71 -3.15 96.51 -1.65ZM114 -11.28C112.3 -8.96 109.91 -7.8 106.83 -7.8C104.59 -7.8 102.95 -8.42 101.91 -9.66C100.87 -10.9 100.35 -12.92 100.35 -15.72C100.35 -17.44 100.49 -19.34 100.77 -21.42C101.53 -26.74 102.8 -30.63 104.58 -33.09C106.36 -35.55 108.77 -36.78 111.81 -36.78C113.97 -36.78 115.56 -36.12 116.58 -34.8C117.6 -33.48 118.11 -31.38 118.11 -28.5C118.11 -26.66 117.97 -24.68 117.69 -22.56C116.93 -17.36 115.7 -13.6 114 -11.28Z M202.74 -44.37C202.56 -44.47 202.25 -44.52 201.81 -44.52L194.67 -44.52C194.11 -44.52 193.72 -44.46 193.5 -44.34C193.28 -44.22 193.11 -43.98 192.99 -43.62L182.55 -18.36C182.39 -18 182.23 -17.82 182.07 -17.82C181.91 -17.82 181.83 -17.96 181.83 -18.24L178.11 -43.08C178.03 -43.6 177.91 -43.97 177.75 -44.19C177.59 -44.41 177.25 -44.52 176.73 -44.52L169.05 -44.52C168.49 -44.52 168.09 -44.46 167.85 -44.34C167.61 -44.22 167.43 -43.98 167.31 -43.62L156.69 -18.6C156.57 -18.2 156.43 -18 156.27 -18C156.15 -18 156.05 -18.22 155.97 -18.66L152.43 -43.08C152.31 -44.04 151.75 -44.52 150.75 -44.52L141.93 -44.52C140.85 -44.52 140.31 -44.08 140.31 -43.2C140.31 -42.96 140.33 -42.78 140.37 -42.66L146.91 -1.32C146.99 -0.84 147.17 -0.5 147.45 -0.3C147.73 -0.1 148.15 0 148.71 0L156.45 0C157.05 0 157.48 -0.07 157.74 -0.21C158 -0.35 158.25 -0.66 158.49 -1.14L168.87 -25.08C169.07 -25.4 169.21 -25.56 169.29 -25.56C169.37 -25.56 169.45 -25.4 169.53 -25.08L173.25 -1.2C173.29 -0.72 173.46 -0.4 173.76 -0.24C174.06 -0.08 174.51 0 175.11 0L182.49 0C183.05 0 183.46 -0.07 183.72 -0.21C183.98 -0.35 184.23 -0.66 184.47 -1.14L202.53 -42.12C202.85 -42.96 203.01 -43.52 203.01 -43.8C203.01 -44.08 202.92 -44.27 202.74 -44.37Z" fill="#242424"></path></g></g></svg>