<svg xmlns:xlink="http://www.w3.org/1999/xlink" id="SvgjsSvg1200" width="300" height="148" xmlns="http://www.w3.org/2000/svg" version="1.1" xlink="http://www.w3.org/1999/xlink" xmlns:svgjs="http://svgjs.com/svgjs" preserveAspectRatio="xMidYMid meet" viewBox="0.000006893961199239129 -2.154362874762228e-7 155.24842834472656 147" overflow="visible"><defs id="SvgjsDefs1201"><linearGradient id="SvgjsLinearGradientLbjgP1M-Uj" gradientUnits="userSpaceOnUse" x1="4.998998641967801" y1="95.00099945068358" x2="95.00099754333496" y2="4.999000549316409"><stop id="SvgjsStop1204" stop-color="#51b1f5" offset="0.05"></stop><stop id="SvgjsStop1205" stop-color="#0b72bc" offset="0.95"></stop></linearGradient><linearGradient id="SvgjsLinearGradientLbjgP1M-Uj" gradientUnits="userSpaceOnUse" x1="4.998998641967801" y1="95.00099945068358" x2="95.00099754333496" y2="4.999000549316409"><stop id="SvgjsStop1204" stop-color="#51b1f5" offset="0.05"></stop><stop id="SvgjsStop1205" stop-color="#0b72bc" offset="0.95"></stop></linearGradient><linearGradient id="SvgjsLinearGradientLbjgP1M-Uj" gradientUnits="userSpaceOnUse" x1="4.998998641967801" y1="95.00099945068358" x2="95.00099754333496" y2="4.999000549316409"><stop id="SvgjsStop1204" stop-color="#51b1f5" offset="0.05"></stop><stop id="SvgjsStop1205" stop-color="#0b72bc" offset="0.95"></stop></linearGradient><linearGradient id="SvgjsLinearGradientLbjgP1M-Uj" gradientUnits="userSpaceOnUse" x1="4.998998641967801" y1="95.00099945068358" x2="95.00099754333496" y2="4.999000549316409"><stop id="SvgjsStop1204" stop-color="#51b1f5" offset="0.05"></stop><stop id="SvgjsStop1205" stop-color="#0b72bc" offset="0.95"></stop></linearGradient></defs><g id="SvgjsG1202" transform="scale(0.45180263246666036)" opacity="1"><g id="SvgjsG1206" class="st5ZdxGkO" transform="translate(38.18594394451574, -13.362406115283767) scale(2.6724812230567534)" light-content="false" non-strokable="false" fill="url(&quot;#SvgjsLinearGradientLbjgP1M-Uj&quot;)"><path d="M51.508 31.537a.858.858 0 0 1-.855.856h-.22a.858.858 0 0 1-.856-.856V26.56c0-.471.385-.856.856-.856h.22c.472 0 .855.385.855.856v4.977zm8.971 3.193a.854.854 0 0 1-1.166.317l-.201-.115a.858.858 0 0 1-.316-1.168l2.473-4.317a.859.859 0 0 1 1.168-.317l.198.114c.408.234.552.76.317 1.169l-2.473 4.317zm6.178 7.226a.858.858 0 0 1-1.171-.308l-.11-.193a.859.859 0 0 1 .31-1.172l4.293-2.506a.861.861 0 0 1 1.172.307l.109.188c.238.406.1.933-.307 1.171l-4.296 2.513zm1.766 9.343a.854.854 0 0 1-.86-.85v-.221a.86.86 0 0 1 .853-.862l4.967-.037a.86.86 0 0 1 .864.85l.003.218a.857.857 0 0 1-.849.863l-4.978.039zm-3.116 8.993a.856.856 0 0 1-.326-1.164l.109-.194a.86.86 0 0 1 1.167-.326l4.335 2.438c.41.23.559.756.327 1.166l-.107.188a.86.86 0 0 1-1.166.328l-4.339-2.436zm-7.179 6.237a.855.855 0 0 1 .299-1.17l.196-.114a.864.864 0 0 1 1.176.301l2.542 4.269a.862.862 0 0 1-.296 1.176l-.188.111a.858.858 0 0 1-1.174-.295l-2.555-4.278zm-9.325 1.844a.854.854 0 0 1 .842-.866l.225-.004a.862.862 0 0 1 .869.845l.079 4.971a.858.858 0 0 1-.841.871l-.223.004a.853.853 0 0 1-.869-.838l-.082-4.983zm-9.017-3.036a.856.856 0 0 1 1.162-.335l.194.107a.86.86 0 0 1 .335 1.164l-2.402 4.349a.86.86 0 0 1-1.164.336l-.188-.104a.858.858 0 0 1-.337-1.162l2.4-4.355zm-6.298-7.121a.854.854 0 0 1 1.172.29l.114.189a.864.864 0 0 1-.292 1.178l-4.25 2.576a.859.859 0 0 1-1.175-.289l-.113-.188a.86.86 0 0 1 .289-1.178l4.255-2.578zm-1.923-9.315a.85.85 0 0 1 .871.834l.003.216a.866.866 0 0 1-.841.877l-4.969.126a.854.854 0 0 1-.874-.834l-.004-.218a.864.864 0 0 1 .838-.877l4.976-.124zm2.966-9.04a.854.854 0 0 1 .343 1.158l-.105.192a.864.864 0 0 1-1.164.343l-4.37-2.366a.86.86 0 0 1-.346-1.161l.101-.187a.859.859 0 0 1 1.16-.346l4.381 2.367zm7.066-6.36a.855.855 0 0 1-.279 1.176l-.187.114a.861.861 0 0 1-1.18-.281l-2.611-4.229a.858.858 0 0 1 .278-1.178l.186-.115a.859.859 0 0 1 1.179.279l2.614 4.234zm13.585 16a4.725 4.725 0 0 1-6.956 4.171l-2.392 2.386-1.609-1.604 2.312-2.312a4.719 4.719 0 0 1-.808-2.641 4.73 4.73 0 0 1 4.729-4.723c1.043 0 2.007.336 2.783.911l12.448-11.45.615.612L54.77 47.564a4.8 4.8 0 0 1 .412 1.937z" fill="url(&quot;#SvgjsLinearGradientLbjgP1M-Uj&quot;)"></path><path d="M87.635 49.32a37.263 37.263 0 0 0-1.613-10.308l6.153-4.819-4.586-9.028-7.555 2.163a37.367 37.367 0 0 0-7.362-7.388l2.139-7.531-8.979-4.585-4.848 6.154a39.342 39.342 0 0 0-5.082-1.165 38.961 38.961 0 0 0-5.202-.473L47.993 5l-9.978 1.566-.306 7.838a37.828 37.828 0 0 0-9.29 4.75l-6.509-4.393-7.151 7.148 4.371 6.509a36.894 36.894 0 0 0-4.723 9.312l-7.84.284-1.569 9.977L12.34 50.7c.07 3.542.615 7.011 1.636 10.282l-6.175 4.853 4.609 8.999 7.531-2.143a38.662 38.662 0 0 0 7.362 7.369l-2.138 7.53 9.026 4.582 4.82-6.153c1.664.502 3.35.881 5.108 1.168 1.734.281 3.469.422 5.2.446L52.007 95l9.999-1.564.287-7.844a36.779 36.779 0 0 0 9.264-4.748l6.508 4.368 7.151-7.151-4.37-6.457a37.266 37.266 0 0 0 4.75-9.311l7.812-.288 1.594-9.972-7.367-2.713zm-9.167 5.203c-2.495 15.722-17.245 26.437-32.967 23.94-15.728-2.468-26.462-17.239-23.969-32.966 2.493-15.725 17.27-26.463 32.993-23.967 15.7 2.494 26.439 17.271 23.943 32.993z" fill="url(&quot;#SvgjsLinearGradientLbjgP1M-Uj&quot;)"></path></g><g id="SvgjsG1207" class="text" transform="translate(171.77999877929688, 318.7633117535746) scale(1)" light-content="false" fill="#1A1A1A"><path d="M-150.72 -1.32L-153.54 -9.3C-154.54 -8.62 -155.7 -8.28 -157.02 -8.28C-158.06 -8.28 -158.88 -8.6 -159.48 -9.24C-160.08 -9.88 -160.38 -10.8 -160.38 -12L-160.38 -22.8L-153 -22.8L-153 -31.32L-160.38 -31.32L-160.38 -39.78L-171.78 -39.78L-171.78 -11.88C-171.78 -7.76 -170.65 -4.66 -168.39 -2.58C-166.13 -0.5 -162.88 0.54 -158.64 0.54C-157.08 0.54 -155.61 0.38 -154.23 0.06C-152.85 -0.26 -151.68 -0.72 -150.72 -1.32Z M-140.34 -32.52L-140.34 0L-128.94 0L-128.94 -32.52ZM-139.68 -37.86C-138.4 -36.7 -136.72 -36.12 -134.64 -36.12C-132.56 -36.12 -130.88 -36.71 -129.6 -37.89C-128.32 -39.07 -127.68 -40.56 -127.68 -42.36C-127.68 -44.08 -128.32 -45.49 -129.6 -46.59C-130.88 -47.69 -132.56 -48.24 -134.64 -48.24C-136.72 -48.24 -138.4 -47.66 -139.68 -46.5C-140.96 -45.34 -141.6 -43.9 -141.6 -42.18C-141.6 -40.46 -140.96 -39.02 -139.68 -37.86Z M-63.63 -29.46C-66.01 -31.86 -69.2 -33.06 -73.2 -33.06C-75.52 -33.06 -77.66 -32.62 -79.62 -31.74C-81.58 -30.86 -83.2 -29.6 -84.48 -27.96C-85.6 -29.68 -87.06 -30.96 -88.86 -31.8C-90.66 -32.64 -92.7 -33.06 -94.98 -33.06C-96.94 -33.06 -98.75 -32.73 -100.41 -32.07C-102.07 -31.41 -103.5 -30.42 -104.7 -29.1L-104.7 -32.52L-115.56 -32.52L-115.56 0L-104.16 0L-104.16 -16.14C-104.16 -18.58 -103.64 -20.4 -102.6 -21.6C-101.56 -22.8 -100.16 -23.4 -98.4 -23.4C-95.12 -23.4 -93.48 -21.18 -93.48 -16.74L-93.48 0L-82.08 0L-82.08 -16.14C-82.08 -18.58 -81.56 -20.4 -80.52 -21.6C-79.48 -22.8 -78.1 -23.4 -76.38 -23.4C-74.82 -23.4 -73.61 -22.86 -72.75 -21.78C-71.89 -20.7 -71.46 -19.02 -71.46 -16.74L-71.46 0L-60.06 0L-60.06 -18.6C-60.06 -23.44 -61.25 -27.06 -63.63 -29.46Z M-24.93 -8.82C-26.07 -8.38 -27.42 -8.16 -28.98 -8.16C-32.66 -8.16 -35.12 -9.46 -36.36 -12.06L-13.14 -16.5C-13.14 -19.94 -13.92 -22.91 -15.48 -25.41C-17.04 -27.91 -19.13 -29.81 -21.75 -31.11C-24.37 -32.41 -27.26 -33.06 -30.42 -33.06C-33.82 -33.06 -36.89 -32.34 -39.63 -30.9C-42.37 -29.46 -44.52 -27.47 -46.08 -24.93C-47.64 -22.39 -48.42 -19.52 -48.42 -16.32C-48.42 -13.08 -47.63 -10.18 -46.05 -7.62C-44.47 -5.06 -42.24 -3.06 -39.36 -1.62C-36.48 -0.18 -33.14 0.54 -29.34 0.54C-23.22 0.54 -18.62 -1.22 -15.54 -4.74L-21.48 -10.98C-22.64 -9.98 -23.79 -9.26 -24.93 -8.82ZM-35.16 -23.13C-33.92 -24.35 -32.32 -24.96 -30.36 -24.96C-28.8 -24.96 -27.46 -24.55 -26.34 -23.73C-25.22 -22.91 -24.46 -21.82 -24.06 -20.46L-37.26 -17.88C-37.1 -20.16 -36.4 -21.91 -35.16 -23.13Z M62.7 5.76L62.22 -2.82C61.5 -2.42 60.64 -2.22 59.64 -2.22C58.52 -2.22 57.66 -2.54 57.06 -3.18C56.46 -3.82 56.16 -4.76 56.16 -6L56.16 -30C56.16 -34.68 54.74 -38.36 51.9 -41.04C49.06 -43.72 44.94 -45.06 39.54 -45.06C34.5 -45.06 30.55 -43.83 27.69 -41.37C24.83 -38.91 23.26 -35.56 22.98 -31.32L18.18 -31.32L18.18 -22.8L22.92 -22.8L22.92 0L34.32 0L34.32 -22.8L41.76 -22.8L41.76 -31.32L34.32 -31.32C34.48 -32.96 35 -34.19 35.88 -35.01C36.76 -35.83 37.98 -36.24 39.54 -36.24C41.22 -36.24 42.51 -35.76 43.41 -34.8C44.31 -33.84 44.76 -32.42 44.76 -30.54L44.76 -5.34C44.76 -1.5 45.87 1.45 48.09 3.51C50.31 5.57 53.4 6.6 57.36 6.6C59.2 6.6 60.98 6.32 62.7 5.76Z M79.74 -1.62C82.54 -0.18 85.68 0.54 89.16 0.54C92.68 0.54 95.84 -0.18 98.64 -1.62C101.44 -3.06 103.62 -5.06 105.18 -7.62C106.74 -10.18 107.52 -13.08 107.52 -16.32C107.52 -19.56 106.74 -22.45 105.18 -24.99C103.62 -27.53 101.44 -29.51 98.64 -30.93C95.84 -32.35 92.68 -33.06 89.16 -33.06C85.64 -33.06 82.49 -32.35 79.71 -30.93C76.93 -29.51 74.75 -27.52 73.17 -24.96C71.59 -22.4 70.8 -19.52 70.8 -16.32C70.8 -13.08 71.59 -10.18 73.17 -7.62C74.75 -5.06 76.94 -3.06 79.74 -1.62ZM94.08 -10.59C92.8 -9.21 91.16 -8.52 89.16 -8.52C87.16 -8.52 85.52 -9.21 84.24 -10.59C82.96 -11.97 82.32 -13.88 82.32 -16.32C82.32 -18.72 82.96 -20.6 84.24 -21.96C85.52 -23.32 87.16 -24 89.16 -24C91.16 -24 92.8 -23.32 94.08 -21.96C95.36 -20.6 96 -18.72 96 -16.32C96 -13.88 95.36 -11.97 94.08 -10.59Z M171.84 -32.52L160.44 -32.52L160.44 -15.36C160.44 -13.08 160.06 -11.41 159.3 -10.35C158.54 -9.29 157.36 -8.76 155.76 -8.76C154.16 -8.76 152.96 -9.3 152.16 -10.38C151.36 -11.46 150.96 -13.12 150.96 -15.36L150.96 -32.52L139.56 -32.52L139.56 -15.36C139.56 -13.12 139.16 -11.46 138.36 -10.38C137.56 -9.3 136.36 -8.76 134.76 -8.76C133.16 -8.76 131.98 -9.29 131.22 -10.35C130.46 -11.41 130.08 -13.08 130.08 -15.36L130.08 -32.52L118.68 -32.52L118.68 -14.58C118.68 -9.74 120.05 -6.01 122.79 -3.39C125.53 -0.77 129.44 0.54 134.52 0.54C139.28 0.54 142.84 -0.84 145.2 -3.6C147.64 -0.84 151.22 0.54 155.94 0.54C160.98 0.54 164.89 -0.77 167.67 -3.39C170.45 -6.01 171.84 -9.74 171.84 -14.58Z" fill="#1A1A1A"></path></g></g></svg>