<svg xmlns:xlink="http://www.w3.org/1999/xlink" id="SvgjsSvg1183" width="300" height="148" xmlns="http://www.w3.org/2000/svg" version="1.1" xlink="http://www.w3.org/1999/xlink" xmlns:svgjs="http://svgjs.com/svgjs" preserveAspectRatio="xMidYMid meet" viewBox="0 0 203.6011199951172 147" overflow="visible"><defs id="SvgjsDefs1184"></defs><g id="SvgjsG1185" transform="scale(0.4709064980660503)" opacity="1"><g id="SvgjsG1186" class="EHTn2KW1gQ" transform="translate(86.85970131448009, -12.827992298565881) scale(2.5655984597131734)" light-content="false" non-strokable="false" fill="#0E5A81"><path fill-rule="evenodd" clip-rule="evenodd" d="M54.023 21.181c-14.246-.382-26.924 9.86-29.215 24.319-2.493 15.725 8.24 30.496 23.969 32.965 14.033 2.227 27.291-6.066 31.75-19.057l8.344 2.885a37.183 37.183 0 0 1-4.75 9.311l4.371 6.457-7.15 7.15-6.51-4.367a36.748 36.748 0 0 1-9.262 4.748l-.287 7.842-10 1.566-2.686-7.365a35.683 35.683 0 0 1-5.2-.447 39.662 39.662 0 0 1-5.108-1.168l-4.821 6.154-9.026-4.582 2.138-7.531a38.581 38.581 0 0 1-7.363-7.369l-7.531 2.143-4.609-9 6.176-4.85c-1.021-3.275-1.566-6.742-1.637-10.285l-7.341-2.707 1.569-9.976 7.839-.284a36.894 36.894 0 0 1 4.723-9.312l-4.371-6.509 7.151-7.148 6.51 4.392a37.81 37.81 0 0 1 9.29-4.75l.305-7.838L51.27 5l2.753 16.181z" fill="#0E5A81"></path><path d="M68.752 21.434a1.482 1.482 0 0 1-2.018.548l-.346-.199a1.483 1.483 0 0 1-.549-2.019l4.271-7.458a1.483 1.483 0 0 1 2.018-.548l.342.196c.707.404.953 1.313.549 2.019l-4.267 7.461zm10.67 12.482a1.478 1.478 0 0 1-2.02-.532l-.195-.334a1.487 1.487 0 0 1 .535-2.024l7.414-4.328a1.487 1.487 0 0 1 2.025.53l.191.325c.41.702.172 1.612-.529 2.022l-7.421 4.341zm3.053 16.139a1.478 1.478 0 0 1-1.486-1.467l-.004-.387a1.487 1.487 0 0 1 1.471-1.488l8.584-.062a1.486 1.486 0 0 1 1.492 1.468l.004.381a1.48 1.48 0 0 1-1.465 1.49l-8.596.065zM58.459 49.5a4.726 4.726 0 0 1-6.957 4.171l-2.392 2.387-1.608-1.605 2.312-2.312a4.712 4.712 0 0 1-.809-2.641 4.732 4.732 0 0 1 4.731-4.723 4.66 4.66 0 0 1 2.783.912l12.449-11.451.615.612-11.538 12.714c.264.594.414 1.245.414 1.936z" fill="#0E5A81"></path></g><g id="SvgjsG1187" class="text" transform="translate(216.8699951171875, 312.1638792696816) scale(1)" light-content="false" fill="#0D0D0D"><path d="M-216.87 -43.2L-216.87 -33.84L-199.95 -33.84L-199.95 0L-190.59 0L-190.59 -33.84L-173.67 -33.84L-173.67 -43.2Z M-163.11 0L-153.75 0L-153.75 -43.2L-163.11 -43.2Z M-119.73 -25.74L-134.37 -43.2L-143.97 -43.2L-143.97 0L-134.67 0L-134.67 -28.92L-119.73 -11.22L-104.85 -28.98L-104.85 0L-95.49 0L-95.49 -43.2L-105.15 -43.2Z M-42.27 -43.2L-82.17 -43.2L-82.17 0L-42.27 0L-42.27 -9.36L-72.75 -9.36L-72.75 -16.92L-48.21 -16.92L-48.21 -26.28L-72.75 -26.28L-72.75 -33.84L-42.27 -33.84Z M-4.89 -43.2L-4.89 0L4.53 0L4.53 -16.92L29.07 -16.92L29.07 -26.28L4.53 -26.28L4.53 -33.84L35.01 -33.84L35.01 -43.2Z M44.43 0L87.63 0L87.63 -9.36L53.73 -9.36L53.73 -43.26L44.43 -43.26Z M105.87 -43.2C103.39 -43.2 101.29 -42.34 99.57 -40.62C97.85 -38.9 96.99 -36.8 96.99 -34.32L96.99 -8.88C96.99 -6.4 97.85 -4.3 99.57 -2.58C101.29 -0.86 103.39 0 105.87 0L131.31 0C133.75 0 135.84 -0.87 137.58 -2.61C139.32 -4.35 140.19 -6.44 140.19 -8.88L140.19 -34.32C140.19 -36.76 139.32 -38.85 137.58 -40.59C135.84 -42.33 133.75 -43.2 131.31 -43.2ZM106.29 -33.84L130.77 -33.84L130.77 -9.36L106.29 -9.36Z M205.65 -43.2L197.73 -21.48L196.23 -17.46L186.75 -43.2L178.17 -43.2L170.25 -21.48L168.75 -17.46L159.33 -43.2L149.43 -43.2L165.15 0L172.29 0L178.59 -17.22L182.43 -27.78L192.63 0L199.77 0L215.49 -43.2Z" fill="#0D0D0D"></path></g></g></svg>