<svg xmlns:xlink="http://www.w3.org/1999/xlink" xmlns="http://www.w3.org/2000/svg" width="300" height="148" preserveAspectRatio="xMidYMid meet" viewBox="0 0 161.1122283935547 147.00001525878906" overflow="visible"><defs id="SvgjsDefs1381"><linearGradient id="SvgjsLinearGradientRiiNsXxqML" gradientUnits="userSpaceOnUse" x1="-2.6505005955695746" y1="96.65049934387204" x2="90.65049809217453" y2="3.3495006561279217"><stop id="SvgjsStop1384" stop-color="#4873eb" offset="0.05"></stop><stop id="SvgjsStop1385" stop-color="#1238a1" offset="0.95"></stop></linearGradient></defs><g id="SvgjsG1382" transform="scale(0.4622090828229935)" opacity="1"><g id="SvgjsG1386" class="YJ7l1Lv79" transform="translate(68.02593279349816, 0) scale(2.4149788688482947)" light-content="false" non-strokable="false" fill="#FFFFFF"><path d="M44 0l43.301 25v50L44 100 .699 75V25z" fill="#FFFFFF"></path></g><g id="SvgjsG1387" class="DwrL3v9V0O" transform="translate(109.36327675697251, 56.34950748571429) scale(1.2879886208682756)" light-content="true" non-strokable="false" fill="#1238A1"><path fill-rule="evenodd" clip-rule="evenodd" d="M54.023 21.181c-14.246-.382-26.924 9.86-29.215 24.319-2.493 15.725 8.24 30.496 23.969 32.965 14.033 2.227 27.291-6.066 31.75-19.057l8.344 2.885a37.183 37.183 0 0 1-4.75 9.311l4.371 6.457-7.15 7.15-6.51-4.367a36.748 36.748 0 0 1-9.262 4.748l-.287 7.842-10 1.566-2.686-7.365a35.683 35.683 0 0 1-5.2-.447 39.662 39.662 0 0 1-5.108-1.168l-4.821 6.154-9.026-4.582 2.138-7.531a38.581 38.581 0 0 1-7.363-7.369l-7.531 2.143-4.609-9 6.176-4.85c-1.021-3.275-1.566-6.742-1.637-10.285l-7.341-2.707 1.569-9.976 7.839-.284a36.894 36.894 0 0 1 4.723-9.312l-4.371-6.509 7.151-7.148 6.51 4.392a37.81 37.81 0 0 1 9.29-4.75l.305-7.838L51.27 5l2.753 16.181z" fill="#1238A1"></path><path d="M68.752 21.434a1.482 1.482 0 0 1-2.018.548l-.346-.199a1.483 1.483 0 0 1-.549-2.019l4.271-7.458a1.483 1.483 0 0 1 2.018-.548l.342.196c.707.404.953 1.313.549 2.019l-4.267 7.461zm10.67 12.482a1.478 1.478 0 0 1-2.02-.532l-.195-.334a1.487 1.487 0 0 1 .535-2.024l7.414-4.328a1.487 1.487 0 0 1 2.025.53l.191.325c.41.702.172 1.612-.529 2.022l-7.421 4.341zm3.053 16.139a1.478 1.478 0 0 1-1.486-1.467l-.004-.387a1.487 1.487 0 0 1 1.471-1.488l8.584-.062a1.486 1.486 0 0 1 1.492 1.468l.004.381a1.48 1.48 0 0 1-1.465 1.49l-8.596.065zM58.459 49.5a4.726 4.726 0 0 1-6.957 4.171l-2.392 2.387-1.608-1.605 2.312-2.312a4.712 4.712 0 0 1-.809-2.641 4.732 4.732 0 0 1 4.731-4.723 4.66 4.66 0 0 1 2.783.912l12.449-11.451.615.612-11.538 12.714c.264.594.414 1.245.414 1.936z" fill="#1238A1"></path></g><g id="SvgjsG1388" class="text" transform="translate(174.49000549316406, 317.4678881055326) scale(1)" light-content="false" fill="#FFFFFF"><path d="M-162.22 0L-153.31 0L-153.31 -36.51L-141.04 -36.51L-141.04 -44.4L-174.49 -44.4L-174.49 -36.51L-162.22 -36.51Z M-131.59 0L-122.68 0L-122.68 -44.4L-131.59 -44.4Z M-77.59 -44.4L-88.15 -16.29L-99.04 -44.4L-109.96 -44.4L-109.96 0L-101.68 0L-101.68 -31.05L-91.87 -6.42L-84.76 -6.42L-74.95 -31.77L-74.95 0L-66.67 0L-66.67 -44.4Z M-45.19 -7.65L-45.19 -18.87L-29.86 -18.87L-29.86 -26.52L-45.19 -26.52L-45.19 -36.75L-26.86 -36.75L-26.86 -44.4L-53.95 -44.4L-53.95 0L-26.56 0L-26.56 -7.65Z M30.23 -36.66L30.23 -44.4L3.22 -44.4L3.22 0L12.14 0L12.14 -17.82L27.38 -17.82L27.38 -25.56L12.14 -25.56L12.14 -36.66Z M39.92 0L66.29 0L66.29 -7.89L48.83 -7.89L48.83 -44.4L39.92 -44.4Z M78.06 -4.95C81.23 -1.27 85.61 0.57 91.22 0.57C96.82 0.57 101.2 -1.27 104.35 -4.95C107.52 -8.63 109.1 -14.38 109.1 -22.2C109.1 -30.02 107.52 -35.77 104.35 -39.45C101.2 -43.13 96.82 -44.97 91.22 -44.97C85.61 -44.97 81.23 -43.13 78.06 -39.45C74.89 -35.77 73.31 -30.02 73.31 -22.2C73.31 -14.38 74.89 -8.63 78.06 -4.95ZM95.96 -8.29C94.68 -7.33 93.1 -6.84 91.22 -6.84C89.32 -6.84 87.73 -7.33 86.45 -8.31C85.17 -9.29 84.18 -10.92 83.51 -13.21C82.83 -15.5 82.49 -18.57 82.49 -22.41C82.49 -26.11 82.83 -29.07 83.51 -31.3C84.18 -33.54 85.16 -35.13 86.45 -36.1C87.73 -37.08 89.32 -37.56 91.22 -37.56C93.11 -37.56 94.7 -37.07 95.99 -36.09C97.27 -35.11 98.24 -33.48 98.93 -31.18C99.61 -28.9 99.95 -25.83 99.95 -21.99C99.95 -18.29 99.6 -15.33 98.91 -13.09C98.22 -10.87 97.24 -9.27 95.96 -8.29Z M165.74 -44.4L158.11 -8.88L150.58 -44.4L140.77 -44.4L132.95 -9.21L125.62 -44.4L116.65 -44.4L126.43 0L138.01 0L145.6 -33.06L152.71 0L164.3 0L174.08 -44.4Z" fill="#FFFFFF"></path></g></g></svg>