<svg xmlns:xlink="http://www.w3.org/1999/xlink" id="SvgjsSvg1514" width="300" height="148" xmlns="http://www.w3.org/2000/svg" version="1.1" xlink="http://www.w3.org/1999/xlink" xmlns:svgjs="http://svgjs.com/svgjs" preserveAspectRatio="xMidYMid meet" viewBox="0 0.0000011446478538346128 187.5390625 147" overflow="visible"><defs id="SvgjsDefs1515"><linearGradient id="SvgjsLinearGradientwftL-Gypwh" gradientUnits="userSpaceOnUse" x1="1.9225006103515763" y1="94.23249816894531" x2="98.07749938964842" y2="-1.9225006103515656"><stop id="SvgjsStop1518" stop-color="#4e9ac6" offset="0.05"></stop><stop id="SvgjsStop1519" stop-color="#245470" offset="0.95"></stop></linearGradient><linearGradient id="SvgjsLinearGradientwftL-Gypwh" gradientUnits="userSpaceOnUse" x1="1.9225006103515763" y1="94.23249816894531" x2="98.07749938964842" y2="-1.9225006103515656"><stop id="SvgjsStop1518" stop-color="#4e9ac6" offset="0.05"></stop><stop id="SvgjsStop1519" stop-color="#245470" offset="0.95"></stop></linearGradient><linearGradient id="SvgjsLinearGradientwftL-Gypwh" gradientUnits="userSpaceOnUse" x1="1.9225006103515763" y1="94.23249816894531" x2="98.07749938964842" y2="-1.9225006103515656"><stop id="SvgjsStop1518" stop-color="#4e9ac6" offset="0.05"></stop><stop id="SvgjsStop1519" stop-color="#245470" offset="0.95"></stop></linearGradient><linearGradient id="SvgjsLinearGradientwftL-Gypwh" gradientUnits="userSpaceOnUse" x1="1.9225006103515763" y1="94.23249816894531" x2="98.07749938964842" y2="-1.9225006103515656"><stop id="SvgjsStop1518" stop-color="#4e9ac6" offset="0.05"></stop><stop id="SvgjsStop1519" stop-color="#245470" offset="0.95"></stop></linearGradient></defs><g id="SvgjsG1516" transform="scale(1.11762845293405)" opacity="1"><g id="SvgjsG1520" class="BUk9Wu7Y0t" transform="translate(41.95022499934974, 0.000001024175418251616) scale(0.8390044999869949)" light-content="false" non-strokable="false" fill="url(&quot;#SvgjsLinearGradientwftL-Gypwh&quot;)"><path d="M54.842.02c-.1-.01-.2-.02-.3-.02-2.66 0-4.5 2.155-4.5 4.814 0 2.62 1.02 4.75 5.02 4.805v.015c18.999.26 35.618 16.489 35.618 36.408 0 20.079-16.489 36.648-36.568 36.648-19.164 0-35.073-14.46-36.474-33.458h8.455L13.044 27.539 0 49.233h8C9.414 73.231 29.483 92.31 53.952 92.31 79.341 92.31 100 71.551 100 46.158 100 21.069 79.82.495 54.842.02z" fill="url(&quot;#SvgjsLinearGradientwftL-Gypwh&quot;)"></path><path d="M59.062 22.444c0-2.265-1.819-4.21-4.079-4.21h-.881c-2.26 0-4.039 1.945-4.039 4.21v24.204L38.208 58.482c-1.75 1.75-1.66 4.59-.005 6.33 1.66 1.76 4.569 1.76 6.319 0l13.1-13.1c.1-.11.18-.22.28-.32a4.111 4.111 0 0 0 1.159-2.87V22.444z" fill="url(&quot;#SvgjsLinearGradientwftL-Gypwh&quot;)"></path></g><g id="SvgjsG1521" class="text" transform="translate(85.98999786376953, 130.76850508862373) scale(1)" light-content="false" fill="#245470"><path d="M-58.8 -26.07C-58.8 -26.39 -58.87 -26.69 -59 -26.98C-59.14 -27.28 -59.31 -27.54 -59.5 -27.77C-59.7 -28.05 -59.93 -28.3 -60.21 -28.54C-60.99 -29.24 -61.69 -29.75 -62.31 -30.06C-62.94 -30.37 -63.66 -30.57 -64.48 -30.64C-65.3 -30.72 -66.35 -30.71 -67.62 -30.62C-68.89 -30.52 -70.56 -30.43 -72.63 -30.35C-72.82 -30.31 -73.12 -30.29 -73.51 -30.29C-73.43 -32.21 -73.38 -33.84 -73.36 -35.19C-73.34 -36.53 -73.33 -37.38 -73.33 -37.73C-73.33 -38.09 -73.61 -38.22 -74.18 -38.14C-74.75 -38.07 -75.36 -37.89 -76.03 -37.62C-76.69 -37.34 -77.3 -37.04 -77.87 -36.71C-78.44 -36.38 -78.72 -36.09 -78.72 -35.86C-78.68 -35.27 -78.66 -34.64 -78.66 -33.96C-78.66 -33.27 -78.64 -32.66 -78.6 -32.11C-78.6 -31.41 -78.58 -30.74 -78.54 -30.12L-81.12 -30C-81.87 -29.96 -82.68 -29.94 -83.55 -29.94L-85.99 -29.94C-85.6 -29.08 -85.27 -28.42 -85.02 -27.95C-84.77 -27.48 -84.56 -27.13 -84.4 -26.89C-84.25 -26.62 -84.11 -26.45 -83.99 -26.37C-83.88 -26.33 -83.31 -26.31 -82.29 -26.31C-81.28 -26.31 -80.03 -26.33 -78.54 -26.37C-78.54 -24.37 -78.6 -22.32 -78.72 -20.21C-78.84 -18.18 -78.96 -16.32 -79.07 -14.62C-79.19 -12.92 -79.3 -11.33 -79.39 -9.84C-79.49 -8.36 -79.57 -6.94 -79.63 -5.6C-79.69 -4.25 -79.68 -2.91 -79.6 -1.58C-79.56 -0.8 -79.38 -0.25 -79.07 0.06C-78.76 0.37 -78.37 0.53 -77.9 0.53C-77.39 0.53 -76.88 0.47 -76.38 0.35C-75.95 0.27 -75.46 0.15 -74.91 -0.03C-74.37 -0.21 -73.86 -0.47 -73.39 -0.82C-73.97 -1.64 -74.37 -2.76 -74.59 -4.19C-74.8 -5.62 -74.91 -7.21 -74.91 -8.96C-74.91 -10.72 -74.84 -12.58 -74.71 -14.53C-74.57 -16.48 -74.4 -18.4 -74.21 -20.27C-74.13 -21.29 -74.04 -22.32 -73.95 -23.38C-73.85 -24.43 -73.78 -25.47 -73.74 -26.48C-72.14 -26.48 -70.61 -26.51 -69.14 -26.57C-67.68 -26.63 -66.46 -26.62 -65.48 -26.54C-64.5 -26.54 -63.58 -26.52 -62.72 -26.48C-61.98 -26.45 -61.25 -26.39 -60.53 -26.31C-59.8 -26.23 -59.23 -26.15 -58.8 -26.07Z M-68.29 -20.74C-68.25 -19.84 -68.17 -18.51 -68.06 -16.73C-67.94 -14.95 -67.96 -12.44 -68.12 -9.2C-68.19 -7.56 -68.21 -6.16 -68.17 -5.01C-68.13 -3.86 -68.08 -2.92 -68 -2.2C-67.92 -1.47 -67.84 -0.92 -67.76 -0.53C-67.69 -0.14 -67.61 0.14 -67.53 0.29C-67.49 0.45 -67.26 0.53 -66.83 0.53C-66.4 0.53 -65.95 0.48 -65.48 0.38C-65.01 0.28 -64.58 0.14 -64.19 -0.06C-63.8 -0.25 -63.6 -0.45 -63.6 -0.64C-63.64 -1.74 -63.64 -2.81 -63.6 -3.87C-63.56 -4.92 -63.51 -5.88 -63.43 -6.74C-63.35 -7.75 -63.27 -8.69 -63.19 -9.55C-63.15 -10.37 -63.08 -11.38 -62.96 -12.57L-62.61 -16.14C-62.49 -17.33 -62.39 -18.47 -62.31 -19.54C-62.24 -20.62 -62.2 -21.45 -62.2 -22.03C-62.2 -22.34 -62.52 -22.49 -63.16 -22.47C-63.81 -22.45 -64.51 -22.35 -65.27 -22.18C-66.04 -22 -66.73 -21.78 -67.35 -21.5C-67.98 -21.23 -68.29 -20.98 -68.29 -20.74ZM-64.19 -32.4C-65.05 -32.4 -65.75 -32.27 -66.3 -31.99C-66.85 -31.72 -67.28 -31.38 -67.59 -30.97C-67.9 -30.56 -68.12 -30.11 -68.23 -29.62C-68.35 -29.13 -68.41 -28.69 -68.41 -28.3C-68.41 -27.99 -68.37 -27.66 -68.29 -27.3C-68.21 -26.95 -68.07 -26.63 -67.85 -26.34C-67.64 -26.04 -67.33 -25.79 -66.94 -25.58C-66.55 -25.36 -66.04 -25.25 -65.42 -25.25C-64.95 -25.25 -64.44 -25.38 -63.9 -25.63C-63.35 -25.89 -62.86 -26.23 -62.43 -26.66C-62 -27.09 -61.64 -27.58 -61.35 -28.12C-61.05 -28.67 -60.91 -29.24 -60.91 -29.82C-60.91 -30.61 -61.26 -31.23 -61.96 -31.7C-62.67 -32.17 -63.41 -32.4 -64.19 -32.4ZM-65.65 -26.95C-65.97 -26.95 -66.12 -27.15 -66.12 -27.54C-66.12 -27.77 -66.04 -28.02 -65.86 -28.27C-65.68 -28.53 -65.46 -28.76 -65.19 -28.97C-64.91 -29.19 -64.63 -29.37 -64.34 -29.53C-64.04 -29.69 -63.8 -29.77 -63.6 -29.77C-63.29 -29.77 -63.13 -29.61 -63.13 -29.3C-63.13 -29.1 -63.22 -28.87 -63.4 -28.59C-63.57 -28.32 -63.79 -28.07 -64.04 -27.83C-64.3 -27.6 -64.57 -27.39 -64.86 -27.22C-65.16 -27.04 -65.42 -26.95 -65.65 -26.95Z M-45.21 -18.28C-44.81 -18.28 -44.51 -18.09 -44.3 -17.7C-44.08 -17.3 -43.94 -16.79 -43.86 -16.14C-43.78 -15.5 -43.73 -14.79 -43.71 -14C-43.69 -13.22 -43.68 -12.46 -43.68 -11.72C-43.64 -10.74 -43.61 -9.72 -43.59 -8.64C-43.57 -7.57 -43.55 -6.54 -43.54 -5.57C-43.52 -4.59 -43.51 -3.71 -43.51 -2.93L-43.51 -1.17C-43.51 -0.63 -43.27 -0.23 -42.8 0C-42.33 0.23 -41.82 0.36 -41.25 0.38C-40.68 0.4 -40.17 0.32 -39.7 0.15C-39.23 -0.03 -39.01 -0.23 -39.05 -0.47C-39.09 -1.09 -39.12 -1.72 -39.14 -2.34C-39.16 -2.97 -39.17 -3.65 -39.17 -4.39L-39.11 -3.87C-39.11 -4.41 -39.05 -5.15 -38.94 -6.06C-38.82 -6.98 -38.64 -7.99 -38.41 -9.08C-38.17 -10.18 -37.91 -11.28 -37.62 -12.39C-37.32 -13.51 -36.98 -14.52 -36.59 -15.44C-36.2 -16.36 -35.79 -17.1 -35.36 -17.67C-34.93 -18.23 -34.48 -18.52 -34.01 -18.52C-33.47 -18.52 -33.04 -18.18 -32.72 -17.52C-32.41 -16.86 -32.19 -16.01 -32.05 -14.97C-31.91 -13.94 -31.83 -12.8 -31.79 -11.57C-31.75 -10.34 -31.75 -9.14 -31.79 -7.97C-31.83 -6.8 -31.87 -5.75 -31.93 -4.83C-31.99 -3.92 -32.02 -3.26 -32.02 -2.87C-32.02 -2.44 -32 -2.01 -31.96 -1.58C-31.92 -1.15 -31.83 -0.76 -31.67 -0.41C-31.51 -0.06 -31.3 0.22 -31.03 0.44C-30.75 0.65 -30.4 0.76 -29.97 0.76C-29.66 0.76 -29.29 0.7 -28.86 0.59C-28.51 0.51 -28.1 0.38 -27.63 0.21C-27.16 0.03 -26.65 -0.23 -26.1 -0.59C-26.92 -1.21 -27.39 -2.18 -27.51 -3.49C-27.63 -4.79 -27.65 -6.58 -27.57 -8.85C-27.53 -9.63 -27.51 -10.54 -27.51 -11.57C-27.51 -12.61 -27.53 -13.61 -27.57 -14.59C-27.61 -15.57 -27.67 -16.46 -27.74 -17.29C-27.82 -18.11 -27.92 -18.71 -28.04 -19.1C-28.15 -19.45 -28.46 -19.82 -28.95 -20.21C-29.43 -20.61 -30 -20.95 -30.64 -21.24C-31.29 -21.53 -31.94 -21.74 -32.61 -21.86C-33.27 -21.97 -33.84 -21.93 -34.31 -21.74C-34.66 -21.58 -35.05 -21.29 -35.48 -20.86C-35.91 -20.43 -36.33 -19.91 -36.74 -19.31C-37.15 -18.7 -37.55 -18.05 -37.94 -17.34C-38.33 -16.64 -38.68 -15.92 -38.99 -15.18C-38.96 -16.19 -38.96 -17.11 -38.99 -17.93C-39.03 -18.75 -39.13 -19.36 -39.29 -19.75C-39.44 -20.1 -39.73 -20.45 -40.14 -20.8C-40.55 -21.15 -41.01 -21.47 -41.51 -21.77C-42.02 -22.06 -42.56 -22.29 -43.12 -22.47C-43.69 -22.65 -44.19 -22.73 -44.62 -22.73C-45.24 -22.73 -45.91 -22.37 -46.61 -21.65C-47.31 -20.93 -48 -20.03 -48.66 -18.96C-49.33 -17.88 -49.95 -16.73 -50.54 -15.5C-51.12 -14.27 -51.63 -13.16 -52.06 -12.19C-51.94 -14.65 -51.84 -16.57 -51.74 -17.96C-51.64 -19.35 -51.59 -20.37 -51.59 -21.04C-51.59 -21.78 -51.86 -22.19 -52.38 -22.27C-52.91 -22.34 -53.64 -22.34 -54.58 -22.27C-54.93 -22.23 -55.32 -22.15 -55.75 -22.03C-56.1 -21.95 -56.49 -21.84 -56.92 -21.68C-57.35 -21.52 -57.78 -21.33 -58.21 -21.09C-58.02 -20.78 -57.87 -20.41 -57.77 -19.98C-57.68 -19.55 -57.59 -19.12 -57.51 -18.69C-57.43 -18.22 -57.35 -17.71 -57.28 -17.17C-57.24 -16.39 -57.22 -15.24 -57.22 -13.74C-57.22 -12.24 -57.24 -10.7 -57.28 -9.14C-57.31 -7.58 -57.35 -6.18 -57.39 -4.95C-57.43 -3.72 -57.45 -2.99 -57.45 -2.75C-57.45 -2.56 -57.44 -2.32 -57.42 -2.05C-57.4 -1.78 -57.36 -1.49 -57.3 -1.2C-57.25 -0.91 -57.15 -0.65 -57.01 -0.44C-56.88 -0.22 -56.67 -0.08 -56.4 0C-55.97 0.12 -55.52 0.16 -55.05 0.12C-54.58 0.08 -54.11 0.02 -53.64 -0.06C-53.21 -0.18 -52.93 -0.4 -52.79 -0.73C-52.66 -1.06 -52.55 -1.5 -52.47 -2.05C-52.47 -2.21 -52.45 -2.32 -52.41 -2.4L-52.41 -2.67C-52.41 -2.76 -52.39 -2.87 -52.35 -2.99C-52.24 -4.24 -51.87 -5.72 -51.24 -7.44C-50.62 -9.16 -49.97 -10.84 -49.31 -12.48C-49.03 -13.18 -48.72 -13.88 -48.37 -14.56C-48.02 -15.24 -47.67 -15.87 -47.31 -16.44C-46.96 -17 -46.6 -17.45 -46.23 -17.78C-45.86 -18.12 -45.52 -18.28 -45.21 -18.28Z M-15.21 0.64C-13.72 0.64 -12.46 0.31 -11.43 -0.35C-10.39 -1.02 -9.54 -1.79 -8.88 -2.67C-8.21 -3.54 -7.73 -4.42 -7.44 -5.3C-7.15 -6.18 -7 -6.84 -7 -7.27C-7 -7.73 -7.15 -7.97 -7.44 -7.97C-7.73 -7.97 -7.94 -7.85 -8.06 -7.62C-8.17 -7.34 -8.39 -6.94 -8.7 -6.42C-9.01 -5.89 -9.42 -5.37 -9.93 -4.86C-10.44 -4.36 -11.05 -3.91 -11.78 -3.52C-12.5 -3.12 -13.33 -2.93 -14.27 -2.93C-15.63 -2.93 -16.75 -3.37 -17.61 -4.25C-18.47 -5.13 -18.96 -6.68 -19.07 -8.91C-18.72 -8.59 -18.33 -8.36 -17.9 -8.2C-17.47 -8.05 -16.94 -7.97 -16.32 -7.97C-15.34 -7.97 -14.33 -8.26 -13.27 -8.85C-12.22 -9.43 -11.25 -10.21 -10.37 -11.16C-9.49 -12.12 -8.78 -13.21 -8.23 -14.44C-7.69 -15.67 -7.41 -16.91 -7.41 -18.16C-7.41 -20.08 -7.92 -21.55 -8.94 -22.59C-9.95 -23.62 -11.18 -24.14 -12.63 -24.14C-14.11 -24.14 -15.53 -23.76 -16.87 -23C-18.22 -22.24 -19.4 -21.19 -20.42 -19.86C-21.44 -18.54 -22.25 -16.96 -22.85 -15.15C-23.46 -13.33 -23.76 -11.39 -23.76 -9.32C-23.76 -6.35 -23.02 -3.95 -21.53 -2.11C-20.05 -0.27 -17.94 0.64 -15.21 0.64ZM-12.51 -21.62C-12.31 -21.62 -12.08 -21.42 -11.81 -21.01C-11.53 -20.6 -11.4 -19.82 -11.4 -18.69C-11.4 -16.43 -12.08 -14.71 -13.45 -13.54C-14.81 -12.36 -16.67 -11.5 -19.01 -10.96C-18.86 -12.6 -18.48 -14.07 -17.87 -15.38C-17.27 -16.69 -16.6 -17.81 -15.88 -18.75C-15.16 -19.69 -14.47 -20.4 -13.83 -20.89C-13.18 -21.38 -12.74 -21.62 -12.51 -21.62Z M20.07 -38.09C16.98 -38.09 14.68 -36.73 13.15 -34.01C11.63 -31.3 10.79 -27.46 10.63 -22.5C10.01 -22.34 9.47 -22.22 9.02 -22.12C8.57 -22.02 8.21 -21.93 7.94 -21.86C7.78 -21.86 7.71 -21.78 7.71 -21.62L7.76 -18.87C7.76 -18.63 7.84 -18.52 8 -18.52C8.23 -18.48 8.57 -18.47 9.02 -18.49C9.47 -18.51 10.03 -18.55 10.69 -18.63C10.77 -16.95 10.89 -15.12 11.04 -13.12C11.16 -11.41 11.31 -9.4 11.48 -7.12C11.66 -4.83 11.9 -2.4 12.22 0.18C12.72 0.41 13.23 0.55 13.74 0.59C14.17 0.62 14.63 0.58 15.12 0.44C15.61 0.3 16.06 -0.04 16.49 -0.59C16.42 -2.15 16.34 -3.68 16.26 -5.19C16.18 -6.69 16.11 -8.19 16.05 -9.7C16 -11.2 15.95 -12.74 15.91 -14.33C15.87 -15.91 15.83 -17.6 15.79 -19.39C16.57 -19.47 17.33 -19.51 18.08 -19.51C18.7 -19.51 19.36 -19.47 20.04 -19.39C20.72 -19.32 21.3 -19.16 21.77 -18.93C22.04 -19.36 22.26 -19.8 22.41 -20.27C22.57 -20.7 22.69 -21.19 22.76 -21.74C22.84 -22.29 22.84 -22.89 22.76 -23.55C22.37 -23.75 21.95 -23.89 21.5 -23.96C21.05 -24.04 20.62 -24.08 20.19 -24.08C19.72 -24.08 19.23 -24.06 18.72 -24.02C18.17 -23.98 17.69 -23.91 17.26 -23.79C16.83 -23.67 16.34 -23.57 15.79 -23.5C15.91 -26.86 16.27 -29.5 16.88 -31.44C17.48 -33.37 18.43 -34.34 19.72 -34.34C20.15 -34.3 20.5 -34.12 20.77 -33.81C21.01 -33.54 21.19 -33.11 21.33 -32.52C21.47 -31.93 21.46 -31.09 21.3 -30C21.81 -29.92 22.33 -29.92 22.88 -30C23.35 -30.08 23.88 -30.21 24.46 -30.41C25.05 -30.6 25.63 -30.92 26.22 -31.35C26.18 -33.03 25.85 -34.33 25.22 -35.24C24.6 -36.16 23.9 -36.84 23.12 -37.27C22.22 -37.73 21.2 -38.01 20.07 -38.09Z M31.49 -37.97C31.26 -38.09 30.97 -38.17 30.62 -38.23C30.26 -38.29 29.93 -38.32 29.62 -38.32L28.51 -38.32C28.12 -38.24 27.72 -38.14 27.33 -38.03C27.02 -37.91 26.69 -37.77 26.34 -37.62C25.99 -37.46 25.69 -37.23 25.46 -36.91C25.54 -36.76 25.56 -36.26 25.52 -35.42C25.48 -34.58 25.42 -33.65 25.34 -32.64C25.26 -31.46 25.19 -30.16 25.11 -28.71C25.03 -26.84 24.93 -24.95 24.81 -23.06C24.7 -21.16 24.59 -19.35 24.49 -17.61C24.39 -15.87 24.31 -14.23 24.23 -12.69C24.15 -11.14 24.11 -9.79 24.11 -8.61C24.11 -7.52 24.18 -6.42 24.32 -5.3C24.45 -4.19 24.65 -3.18 24.9 -2.29C25.16 -1.39 25.5 -0.65 25.93 -0.09C26.36 0.48 26.87 0.76 27.45 0.76C27.76 0.76 28.12 0.7 28.51 0.59C28.82 0.51 29.19 0.39 29.62 0.23C30.05 0.08 30.52 -0.16 31.03 -0.47C30.6 -0.98 30.24 -1.5 29.97 -2.05C29.7 -2.6 29.48 -3.34 29.33 -4.28C29.17 -5.21 29.08 -6.42 29.06 -7.88C29.04 -9.35 29.11 -11.25 29.27 -13.59C29.42 -15.94 29.61 -18.26 29.82 -20.57C30.04 -22.87 30.25 -25.08 30.47 -27.19C30.68 -29.3 30.89 -31.27 31.08 -33.11C31.28 -34.94 31.42 -36.56 31.49 -37.97Z M50.42 -10.08C50.54 -12.34 50.36 -14.29 49.89 -15.91C49.42 -17.53 48.87 -18.85 48.22 -19.86C47.58 -20.88 46.91 -21.62 46.23 -22.09C45.55 -22.56 45.07 -22.77 44.79 -22.73C44.4 -22.7 44.01 -22.6 43.62 -22.44C43.31 -22.32 43 -22.13 42.69 -21.86C42.37 -21.58 42.12 -21.23 41.92 -20.8C41.88 -21.54 41.79 -22.05 41.63 -22.32C41.55 -22.48 41.47 -22.58 41.4 -22.62C41.12 -22.7 40.87 -22.76 40.63 -22.82C40.4 -22.88 40.15 -22.85 39.87 -22.73C39.72 -22.66 39.34 -22.39 38.73 -21.94C38.12 -21.49 37.47 -20.8 36.77 -19.86C36.06 -18.93 35.4 -17.74 34.78 -16.32C34.15 -14.89 33.78 -13.18 33.66 -11.19C33.51 -9.47 33.61 -7.88 33.98 -6.42C34.36 -4.95 34.91 -3.69 35.65 -2.64C36.4 -1.58 37.27 -0.76 38.26 -0.18C39.26 0.41 40.32 0.68 41.46 0.64C42.74 0.61 43.93 0.31 45 -0.23C46.07 -0.78 47 -1.53 47.78 -2.49C48.56 -3.45 49.18 -4.57 49.63 -5.86C50.08 -7.15 50.34 -8.55 50.42 -10.08ZM46.44 -10.78C46.36 -9.84 46.2 -8.89 45.97 -7.91C45.73 -6.93 45.42 -6.05 45.03 -5.27C44.64 -4.49 44.19 -3.85 43.68 -3.34C43.17 -2.83 42.59 -2.56 41.92 -2.52C41.26 -2.48 40.69 -2.7 40.22 -3.16C39.76 -3.63 39.36 -4.26 39.02 -5.04C38.69 -5.82 38.46 -6.72 38.32 -7.73C38.18 -8.75 38.13 -9.79 38.17 -10.84C38.25 -11.82 38.37 -12.79 38.53 -13.77C38.68 -14.59 38.91 -15.45 39.2 -16.35C39.49 -17.25 39.91 -18.03 40.46 -18.69C40.38 -17.91 40.35 -17.29 40.37 -16.85C40.39 -16.4 40.42 -16.04 40.46 -15.76C40.5 -15.45 40.54 -15.23 40.58 -15.12C40.97 -16.05 41.38 -16.78 41.81 -17.29C42.24 -17.79 42.63 -18.16 42.98 -18.4C43.41 -18.67 43.8 -18.85 44.15 -18.93C44.46 -18.93 44.78 -18.68 45.09 -18.19C45.4 -17.71 45.66 -17.06 45.88 -16.26C46.09 -15.46 46.25 -14.58 46.35 -13.62C46.45 -12.67 46.47 -11.72 46.44 -10.78Z M79.48 -23.14C79.13 -23.14 78.74 -23.11 78.31 -23.03C77.96 -22.95 77.58 -22.84 77.17 -22.71C76.76 -22.57 76.36 -22.36 75.97 -22.09C76.32 -21.7 76.54 -20.94 76.64 -19.8C76.74 -18.67 76.57 -16.86 76.14 -14.36C75.91 -13.11 75.64 -11.93 75.35 -10.84C75.06 -9.75 74.76 -8.75 74.44 -7.85C74.13 -6.95 73.84 -6.19 73.56 -5.57C73.29 -4.94 73.08 -4.49 72.92 -4.22C72.76 -3.91 72.59 -3.69 72.39 -3.57C72.2 -3.46 72 -3.38 71.81 -3.34C71.65 -4.2 71.46 -5.2 71.22 -6.33C70.99 -7.46 70.75 -8.57 70.52 -9.67C70.21 -10.8 69.89 -11.96 69.58 -13.15C69.27 -14.35 68.99 -15.33 68.76 -16.11C68.99 -17.01 69.19 -17.78 69.35 -18.43C69.5 -19.07 69.6 -19.55 69.64 -19.86C69.83 -21.07 69.75 -21.9 69.38 -22.35C69 -22.8 68.31 -22.99 67.29 -22.91C66.98 -22.91 66.65 -22.87 66.3 -22.79C65.99 -22.71 65.65 -22.63 65.3 -22.53C64.95 -22.43 64.62 -22.29 64.31 -22.09C64.42 -21.82 64.53 -21.36 64.63 -20.71C64.73 -20.07 64.8 -19.33 64.86 -18.49C64.92 -17.65 64.92 -16.72 64.86 -15.7C64.8 -14.69 64.68 -13.67 64.48 -12.66C63.97 -10.2 63.33 -8.15 62.55 -6.53C61.77 -4.91 61.16 -3.75 60.73 -3.05C60.3 -3.67 59.96 -4.44 59.71 -5.36C59.45 -6.28 59.27 -7.27 59.15 -8.32C59.03 -9.37 58.95 -10.45 58.89 -11.54C58.83 -12.64 58.78 -13.67 58.74 -14.65C58.74 -15.43 58.72 -16.27 58.68 -17.17C58.64 -17.95 58.6 -18.82 58.56 -19.78C58.53 -20.73 58.47 -21.72 58.39 -22.73C57.88 -23.2 57.36 -23.51 56.84 -23.64C56.31 -23.78 55.79 -23.82 55.28 -23.76C54.78 -23.7 54.29 -23.54 53.82 -23.29C53.35 -23.04 52.94 -22.77 52.59 -22.5C52.94 -21.99 53.18 -21.31 53.32 -20.45C53.46 -19.59 53.57 -18.58 53.67 -17.43C53.77 -16.28 53.88 -15.02 53.99 -13.65C54.11 -12.29 54.33 -10.86 54.64 -9.37C54.91 -8.2 55.26 -7.03 55.69 -5.86C56.04 -4.84 56.51 -3.76 57.1 -2.61C57.69 -1.46 58.37 -0.37 59.15 0.64C59.38 0.68 59.68 0.64 60.03 0.53C60.62 0.41 61.55 0.06 62.84 -0.53C63.15 -0.92 63.49 -1.48 63.84 -2.23C64.19 -2.97 64.55 -3.81 64.92 -4.75C65.29 -5.68 65.66 -6.69 66.04 -7.76C66.41 -8.84 66.77 -9.9 67.12 -10.96C67.51 -9.79 67.89 -8.5 68.26 -7.09C68.63 -5.68 68.92 -4.37 69.11 -3.16C69.23 -2.34 69.39 -1.7 69.61 -1.23C69.82 -0.76 70.06 -0.41 70.31 -0.18C70.57 0.06 70.83 0.21 71.1 0.29C71.38 0.37 71.67 0.41 71.98 0.41C72.22 0.45 72.49 0.43 72.8 0.35C73.39 0.27 74.09 0.04 74.91 -0.35C75.81 -1.48 76.64 -2.93 77.4 -4.69C78.16 -6.45 78.84 -8.25 79.42 -10.11C80.01 -11.96 80.5 -13.75 80.89 -15.47C81.28 -17.19 81.55 -18.55 81.71 -19.57C82.1 -21.95 81.36 -23.14 79.48 -23.14Z" fill="#245470"></path></g></g></svg>