<svg xmlns:xlink="http://www.w3.org/1999/xlink" id="SvgjsSvg1467" width="300" height="148" xmlns="http://www.w3.org/2000/svg" version="1.1" xlink="http://www.w3.org/1999/xlink" xmlns:svgjs="http://svgjs.com/svgjs" preserveAspectRatio="xMidYMid meet" viewBox="0 0.0000010876541409743368 297.0020446777344 147.00003051757812" overflow="visible"><defs id="SvgjsDefs1468"></defs><g id="SvgjsG1469" transform="scale(0.8675137958948526)" opacity="1"><g id="SvgjsG1470" class="7QoH_5U614" transform="translate(119.82600000000001, 0.0000012537597697814817) scale(1.02708)" light-content="false" non-strokable="false" fill="#1365C3"><path d="M54.842.02c-.1-.01-.2-.02-.3-.02-2.66 0-4.5 2.155-4.5 4.814 0 2.62 1.02 4.75 5.02 4.805v.015c18.999.26 35.618 16.489 35.618 36.408 0 20.079-16.489 36.648-36.568 36.648-19.164 0-35.073-14.46-36.474-33.458h8.455L13.044 27.539 0 49.233h8C9.414 73.231 29.483 92.31 53.952 92.31 79.341 92.31 100 71.551 100 46.158 100 21.069 79.82.495 54.842.02z" fill="#1365C3"></path><path d="M59.062 22.444c0-2.265-1.819-4.21-4.079-4.21h-.881c-2.26 0-4.039 1.945-4.039 4.21v24.204L38.208 58.482c-1.75 1.75-1.66 4.59-.005 6.33 1.66 1.76 4.569 1.76 6.319 0l13.1-13.1c.1-.11.18-.22.28-.32a4.111 4.111 0 0 0 1.159-2.87V22.444z" fill="#1365C3"></path></g><g id="SvgjsG1471" class="text" transform="translate(170.88999938964844, 167.9897551051758) scale(1)" light-content="false" fill="#121212"><path d="M-141.94 0.35C-141.28 0.35 -140.95 -0.04 -140.95 -0.82C-140.95 -1.45 -141.02 -1.87 -141.15 -2.11C-141.29 -2.34 -141.57 -2.48 -142 -2.52C-142.47 -2.56 -143.12 -2.62 -143.94 -2.7C-145.54 -2.81 -146.52 -2.95 -146.89 -3.11C-147.27 -3.26 -147.45 -3.65 -147.45 -4.28L-147.45 -35.68C-147.45 -36.04 -147.44 -36.3 -147.42 -36.47C-147.4 -36.65 -147.29 -36.84 -147.07 -37.03C-146.86 -37.23 -146.55 -37.32 -146.16 -37.32L-137.31 -37.32C-137.12 -37.32 -136.95 -37.31 -136.82 -37.29L-136.41 -37.24C-136.27 -37.22 -136.14 -37.17 -136.03 -37.09C-135.91 -37.01 -135.8 -36.94 -135.7 -36.88C-135.61 -36.83 -135.5 -36.71 -135.38 -36.53C-135.26 -36.36 -135.15 -36.2 -135.03 -36.06C-134.91 -35.93 -134.77 -35.69 -134.59 -35.36C-134.41 -35.03 -134.26 -34.74 -134.12 -34.48C-133.98 -34.23 -133.78 -33.86 -133.51 -33.37C-133.23 -32.88 -132.98 -32.44 -132.74 -32.05C-132.31 -31.27 -131.87 -30.88 -131.4 -30.88C-131.08 -30.88 -130.81 -31.02 -130.58 -31.29C-130.34 -31.56 -130.22 -31.87 -130.22 -32.23C-130.22 -32.27 -130.71 -34.82 -131.69 -39.9C-131.85 -40.84 -132.26 -41.31 -132.92 -41.31L-167.9 -41.31C-168.6 -41.31 -169.01 -41 -169.13 -40.37C-170.3 -35.02 -170.89 -32.27 -170.89 -32.11L-170.89 -32.05C-170.89 -31.62 -170.76 -31.26 -170.51 -30.97C-170.25 -30.67 -169.93 -30.53 -169.54 -30.53C-169.15 -30.53 -168.82 -30.68 -168.54 -31C-168.43 -31.15 -167.55 -32.85 -165.91 -36.09C-165.67 -36.56 -165.42 -36.88 -165.15 -37.06C-164.87 -37.24 -164.37 -37.32 -163.62 -37.32L-154.66 -37.32C-154.19 -37.32 -153.83 -37.21 -153.57 -36.97C-153.32 -36.74 -153.17 -36.52 -153.13 -36.33C-153.1 -36.13 -153.08 -35.84 -153.08 -35.45L-153.08 -5.04C-153.08 -4.34 -153.2 -3.81 -153.46 -3.46C-153.71 -3.11 -154.25 -2.89 -155.07 -2.81C-155.46 -2.77 -155.99 -2.73 -156.65 -2.7C-157.86 -2.62 -158.63 -2.5 -158.96 -2.34C-159.3 -2.19 -159.46 -1.8 -159.46 -1.17C-159.46 -0.16 -159.07 0.35 -158.29 0.35C-158.25 0.35 -158.08 0.34 -157.76 0.32C-157.45 0.3 -157.04 0.27 -156.53 0.23C-156.03 0.2 -155.45 0.16 -154.8 0.12C-154.16 0.08 -153.42 0.05 -152.58 0.03C-151.74 0.01 -150.91 0 -150.09 0C-148.8 0 -147.5 0.03 -146.19 0.09C-144.88 0.15 -143.86 0.2 -143.12 0.23Z M-127 -40.78C-127.86 -40.78 -128.29 -40.23 -128.29 -39.14C-128.29 -38.36 -127.84 -37.93 -126.94 -37.85C-126.59 -37.81 -126.12 -37.79 -125.54 -37.79C-124.44 -37.75 -123.74 -37.68 -123.43 -37.56C-123.12 -37.44 -122.96 -37.13 -122.96 -36.62C-122.96 -36.58 -122.97 -36.46 -122.99 -36.24C-123.01 -36.03 -123.02 -35.86 -123.02 -35.74L-123.02 -4.57C-123.02 -3.48 -123.45 -2.91 -124.31 -2.87C-124.89 -2.83 -125.62 -2.79 -126.47 -2.75C-127.72 -2.68 -128.52 -2.58 -128.85 -2.46C-129.18 -2.34 -129.35 -2.05 -129.35 -1.58C-129.35 -1.31 -129.33 -1.11 -129.29 -1C-129.21 -0.1 -128.86 0.35 -128.23 0.35C-128.19 0.35 -128.03 0.34 -127.73 0.32C-127.44 0.3 -127.06 0.27 -126.59 0.23C-126.12 0.2 -125.59 0.16 -124.98 0.12C-124.37 0.08 -123.68 0.05 -122.9 0.03C-122.12 0.01 -121.34 0 -120.56 0C-119.78 0 -118.99 0.01 -118.21 0.03C-117.43 0.05 -116.75 0.08 -116.16 0.12C-115.58 0.16 -115.04 0.2 -114.55 0.23C-114.06 0.27 -113.68 0.3 -113.41 0.32C-113.14 0.34 -112.98 0.35 -112.94 0.35C-112.16 0.35 -111.77 -0.23 -111.77 -1.41C-111.77 -1.6 -111.8 -1.78 -111.86 -1.93C-111.91 -2.09 -112.01 -2.21 -112.15 -2.29C-112.29 -2.36 -112.43 -2.42 -112.59 -2.46C-112.74 -2.5 -112.97 -2.54 -113.26 -2.58C-113.55 -2.62 -113.84 -2.64 -114.11 -2.64C-114.38 -2.64 -114.76 -2.65 -115.22 -2.67C-115.69 -2.69 -116.12 -2.71 -116.51 -2.75C-117.22 -2.83 -117.57 -3.34 -117.57 -4.28L-117.57 -36.68C-117.57 -37.3 -117.26 -37.64 -116.63 -37.68C-116.4 -37.71 -116.11 -37.74 -115.78 -37.76C-115.45 -37.78 -115.21 -37.8 -115.05 -37.82C-114.89 -37.84 -114.7 -37.86 -114.46 -37.88C-114.23 -37.9 -114.06 -37.93 -113.96 -37.97C-113.87 -38.01 -113.74 -38.05 -113.58 -38.09C-113.43 -38.13 -113.32 -38.17 -113.26 -38.23L-113.06 -38.44C-112.98 -38.52 -112.93 -38.61 -112.91 -38.73C-112.89 -38.85 -112.87 -38.97 -112.85 -39.11C-112.83 -39.25 -112.82 -39.41 -112.82 -39.61C-112.82 -40.35 -113.15 -40.72 -113.82 -40.72C-113.94 -40.72 -114.26 -40.7 -114.79 -40.66C-115.31 -40.63 -116.04 -40.59 -116.98 -40.55C-117.92 -40.51 -118.96 -40.49 -120.09 -40.49C-121.18 -40.49 -122.28 -40.52 -123.37 -40.58C-124.46 -40.63 -125.34 -40.68 -126.01 -40.72Z M-67.53 0.35C-67.49 0.35 -67.33 0.34 -67.06 0.32C-66.79 0.3 -66.41 0.27 -65.92 0.23C-65.43 0.2 -64.89 0.16 -64.31 0.12C-63.72 0.08 -63.04 0.05 -62.26 0.03C-61.47 0.01 -60.69 0 -59.91 0C-58.7 0 -57.48 0.03 -56.25 0.09C-55.02 0.15 -54.03 0.2 -53.29 0.23L-52.18 0.35C-51.83 0.35 -51.53 0.23 -51.3 0C-51.06 -0.23 -50.95 -0.55 -50.95 -0.94C-50.95 -1.17 -50.97 -1.38 -51.01 -1.55C-51.04 -1.73 -51.13 -1.87 -51.27 -1.99C-51.41 -2.11 -51.52 -2.21 -51.62 -2.29C-51.72 -2.36 -51.9 -2.42 -52.18 -2.46C-52.45 -2.5 -52.69 -2.53 -52.88 -2.55C-53.08 -2.57 -53.38 -2.59 -53.79 -2.61C-54.2 -2.63 -54.54 -2.66 -54.81 -2.7C-55.48 -2.77 -55.97 -2.97 -56.28 -3.28C-56.59 -3.59 -56.77 -3.9 -56.81 -4.19C-56.85 -4.48 -56.87 -4.96 -56.87 -5.62L-56.87 -6.04C-56.87 -6.78 -56.88 -7.88 -56.89 -9.35C-56.91 -10.81 -56.95 -13.83 -57.01 -18.4C-57.07 -22.97 -57.14 -28.57 -57.22 -35.21C-57.22 -36.15 -56.73 -36.74 -55.75 -36.97C-55.21 -37.13 -54.64 -37.28 -54.05 -37.41C-53.47 -37.55 -53.02 -37.65 -52.71 -37.71C-52.39 -37.76 -52.09 -37.85 -51.8 -37.97C-51.5 -38.09 -51.31 -38.24 -51.21 -38.44C-51.11 -38.63 -51.06 -38.89 -51.06 -39.2C-51.06 -39.59 -51.11 -39.89 -51.21 -40.11C-51.31 -40.32 -51.41 -40.44 -51.5 -40.46C-51.6 -40.48 -51.75 -40.49 -51.94 -40.49L-60.67 -40.49C-61.18 -40.49 -61.53 -40.31 -61.73 -39.96L-78.02 -9.55C-78.21 -9.12 -78.49 -8.91 -78.84 -8.91C-79.31 -8.91 -79.66 -9.14 -79.89 -9.61L-86.87 -20.74L-98.23 -39.73C-98.54 -40.23 -99.05 -40.49 -99.76 -40.49L-108.37 -40.49C-108.56 -40.49 -108.72 -40.48 -108.84 -40.46C-108.96 -40.44 -109.08 -40.32 -109.22 -40.11C-109.36 -39.89 -109.42 -39.59 -109.42 -39.2C-109.42 -38.57 -109.03 -38.2 -108.25 -38.09C-107.43 -38.09 -106.67 -37.92 -105.97 -37.59C-105.26 -37.26 -104.76 -36.94 -104.44 -36.65C-104.13 -36.36 -103.74 -35.93 -103.27 -35.36C-102.8 -34.8 -102.55 -34.49 -102.51 -34.45C-102.04 -33.91 -101.81 -33.4 -101.81 -32.93C-101.81 -27.34 -102.31 -18.4 -103.33 -6.09C-103.33 -5.94 -103.35 -5.67 -103.39 -5.3C-103.43 -4.93 -103.46 -4.68 -103.48 -4.54C-103.5 -4.4 -103.54 -4.21 -103.62 -3.96C-103.7 -3.7 -103.8 -3.53 -103.92 -3.43C-104.03 -3.33 -104.21 -3.23 -104.44 -3.13C-104.68 -3.04 -104.95 -2.97 -105.26 -2.93C-105.58 -2.89 -105.97 -2.85 -106.44 -2.81C-106.9 -2.77 -107.25 -2.73 -107.46 -2.7C-107.68 -2.66 -107.94 -2.61 -108.25 -2.55C-108.56 -2.49 -108.79 -2.43 -108.93 -2.37C-109.06 -2.31 -109.2 -2.22 -109.34 -2.08C-109.47 -1.94 -109.57 -1.79 -109.63 -1.61C-109.69 -1.44 -109.72 -1.21 -109.72 -0.94C-109.72 -0.08 -109.35 0.35 -108.6 0.35C-108.56 0.35 -108.41 0.34 -108.13 0.32C-107.86 0.3 -107.5 0.27 -107.05 0.23C-106.6 0.2 -106.1 0.16 -105.56 0.12C-105.01 0.08 -104.36 0.05 -103.59 0.03C-102.83 0.01 -102.1 0 -101.4 0C-100.69 0 -99.96 0.01 -99.2 0.03C-98.44 0.05 -97.78 0.08 -97.24 0.12C-96.69 0.16 -96.19 0.2 -95.74 0.23C-95.29 0.27 -94.93 0.3 -94.66 0.32C-94.39 0.34 -94.23 0.35 -94.19 0.35C-93.49 0.35 -93.13 -0.1 -93.13 -1C-93.13 -1.74 -93.46 -2.22 -94.1 -2.43C-94.75 -2.65 -95.53 -2.75 -96.45 -2.75C-97.36 -2.75 -98.02 -2.89 -98.41 -3.16C-98.64 -3.36 -98.8 -4.02 -98.88 -5.16C-99.03 -8.91 -99.11 -12.48 -99.11 -15.88C-99.11 -19.98 -98.99 -24.14 -98.76 -28.36C-98.76 -28.55 -98.68 -28.65 -98.53 -28.65C-98.45 -28.65 -98.39 -28.63 -98.35 -28.59C-98.15 -28.48 -97.26 -27.13 -95.65 -24.55C-94.05 -21.97 -91.99 -18.46 -89.47 -14C-86.95 -9.55 -84.72 -5.31 -82.76 -1.29C-82.06 0.16 -81.36 0.88 -80.65 0.88C-80.15 0.88 -79.7 0.64 -79.31 0.18C-79.03 -0.18 -77.98 -2.07 -76.14 -5.51C-74.31 -8.95 -72.15 -12.92 -69.67 -17.43C-67.19 -21.94 -65.19 -25.43 -63.66 -27.89C-63.39 -28.36 -63.12 -28.59 -62.84 -28.59C-62.61 -28.59 -62.47 -28.48 -62.43 -28.24C-62.31 -27.89 -62.26 -24.69 -62.26 -18.63L-62.26 -5.62C-62.26 -5 -62.34 -4.48 -62.52 -4.07C-62.7 -3.66 -62.97 -3.36 -63.34 -3.16C-63.71 -2.97 -64.08 -2.83 -64.45 -2.75C-64.82 -2.68 -65.32 -2.62 -65.95 -2.58C-66.88 -2.5 -67.57 -2.37 -68 -2.2C-68.43 -2.02 -68.64 -1.64 -68.64 -1.05C-68.64 -0.12 -68.27 0.35 -67.53 0.35Z M-24.81 -30.76C-25.87 -30.76 -26.4 -30.33 -26.4 -29.47L-26.4 -27.6C-26.4 -27.01 -26.53 -26.56 -26.81 -26.25C-27.08 -25.94 -27.35 -25.75 -27.63 -25.69C-27.9 -25.63 -28.25 -25.61 -28.68 -25.61L-37.88 -25.61C-38.66 -25.61 -39.05 -26.05 -39.05 -26.95L-39.05 -35.98C-39.05 -36.72 -38.95 -37.29 -38.73 -37.68C-38.52 -38.07 -38.02 -38.26 -37.24 -38.26L-25.93 -38.26C-25.15 -38.26 -24.58 -38.09 -24.23 -37.73C-23.99 -37.46 -23 -35.78 -21.24 -32.7C-20.73 -31.99 -20.17 -31.64 -19.54 -31.64C-18.72 -31.64 -18.31 -31.93 -18.31 -32.52C-18.31 -32.6 -18.42 -33.1 -18.63 -34.01C-18.85 -34.93 -19.1 -36.05 -19.39 -37.38C-19.69 -38.71 -19.91 -39.75 -20.07 -40.49C-20.26 -41.15 -20.69 -41.48 -21.36 -41.48L-48.96 -41.48C-49.74 -41.48 -50.13 -41.04 -50.13 -40.14C-50.13 -39.79 -50.07 -39.51 -49.95 -39.32C-49.83 -39.12 -49.64 -38.97 -49.37 -38.88C-49.09 -38.78 -48.83 -38.71 -48.57 -38.67C-48.32 -38.63 -47.94 -38.59 -47.43 -38.55C-46.92 -38.52 -46.49 -38.48 -46.14 -38.44C-45.44 -38.32 -44.99 -38.2 -44.79 -38.09C-44.6 -37.97 -44.5 -37.7 -44.5 -37.27L-44.5 -5.98C-44.5 -4.73 -44.95 -3.95 -45.85 -3.63C-46.32 -3.48 -46.9 -3.26 -47.61 -2.99C-48.86 -2.52 -49.64 -2.19 -49.95 -1.99C-50.26 -1.8 -50.42 -1.48 -50.42 -1.05C-50.42 -0.78 -50.29 -0.42 -50.04 0.03C-49.79 0.48 -49.42 0.7 -48.96 0.7C-48.88 0.7 -48.07 0.59 -46.52 0.35C-44.98 0.12 -43.31 0 -41.51 0L-20.89 0C-20.26 0 -19.82 -0.08 -19.57 -0.23C-19.32 -0.39 -19.15 -0.7 -19.07 -1.17C-17.86 -6.52 -17.26 -9.37 -17.26 -9.73L-17.26 -9.79C-17.26 -10.21 -17.36 -10.55 -17.58 -10.78C-17.79 -11.02 -18.04 -11.13 -18.31 -11.13C-18.47 -11.13 -18.66 -11.07 -18.9 -10.96C-19.21 -10.76 -19.89 -9.72 -20.95 -7.82C-22 -5.93 -22.71 -4.84 -23.06 -4.57C-23.56 -4.18 -24.79 -3.87 -26.75 -3.63C-28.7 -3.4 -30.34 -3.28 -31.67 -3.28C-33.66 -3.28 -35.54 -3.42 -37.29 -3.69C-37.84 -3.77 -38.26 -3.94 -38.55 -4.19C-38.85 -4.44 -39.02 -4.7 -39.08 -4.95C-39.14 -5.21 -39.17 -5.55 -39.17 -5.98L-39.17 -19.75C-39.17 -20.29 -39.09 -20.74 -38.94 -21.09C-38.78 -21.45 -38.54 -21.69 -38.2 -21.83C-37.87 -21.96 -37.57 -22.05 -37.29 -22.09C-37.02 -22.13 -36.67 -22.15 -36.24 -22.15L-27.98 -22.15C-26.92 -22.15 -26.4 -21.7 -26.4 -20.8L-26.4 -17.58C-26.4 -16.72 -25.87 -16.29 -24.81 -16.29C-23.68 -16.29 -23.12 -16.86 -23.12 -17.99L-23.12 -29.06C-23.12 -30.2 -23.68 -30.76 -24.81 -30.76Z M25.69 -29C25.69 -29.36 25.56 -29.65 25.28 -29.88C25.01 -30.12 24.68 -30.23 24.29 -30.23C23.51 -30.23 23.04 -29.69 22.88 -28.59C22.84 -28.32 22.79 -28.02 22.73 -27.69C22.68 -27.35 22.64 -27.1 22.62 -26.92C22.6 -26.75 22.57 -26.55 22.53 -26.34C22.49 -26.12 22.45 -25.97 22.41 -25.87C22.37 -25.77 22.32 -25.66 22.27 -25.55C22.21 -25.43 22.16 -25.35 22.12 -25.31C22.08 -25.27 22.01 -25.23 21.91 -25.2C21.82 -25.16 21.72 -25.13 21.62 -25.11C21.52 -25.09 21.4 -25.08 21.24 -25.08L11.22 -25.08C10.63 -25.08 10.34 -25.37 10.34 -25.96L10.34 -35.98C10.34 -36.45 10.36 -36.81 10.4 -37.06C10.44 -37.31 10.6 -37.56 10.87 -37.79C11.14 -38.03 11.53 -38.14 12.04 -38.14L23.12 -38.14C23.66 -38.14 24.07 -38.07 24.35 -37.91C24.62 -37.75 24.91 -37.42 25.22 -36.91C25.42 -36.52 25.71 -36.02 26.1 -35.39C27.35 -33.09 28.31 -31.93 28.97 -31.93C29.33 -31.93 29.62 -32.06 29.85 -32.31C30.09 -32.57 30.21 -32.89 30.21 -33.28C30.21 -33.4 30.12 -33.86 29.94 -34.66C29.77 -35.46 29.55 -36.41 29.3 -37.5C29.04 -38.59 28.88 -39.34 28.8 -39.73C28.56 -40.7 27.9 -41.19 26.81 -41.19L26.51 -41.19L15.15 -41.19C14.01 -41.19 12.28 -41.16 9.93 -41.1C7.59 -41.04 6.08 -41.02 5.42 -41.02C4.56 -41.02 3.75 -41.04 2.99 -41.07C2.23 -41.11 1.63 -41.16 1.2 -41.22C0.77 -41.28 0.5 -41.31 0.38 -41.31C-0.36 -41.31 -0.73 -40.7 -0.73 -39.49C-0.73 -38.63 -0.26 -38.2 0.67 -38.2C0.91 -38.2 1.21 -38.19 1.58 -38.17C1.95 -38.15 2.22 -38.14 2.37 -38.14C2.53 -38.14 2.73 -38.13 2.99 -38.12C3.24 -38.1 3.42 -38.07 3.52 -38.03C3.61 -37.99 3.74 -37.94 3.9 -37.88C4.05 -37.82 4.16 -37.75 4.22 -37.68C4.28 -37.6 4.34 -37.5 4.39 -37.38C4.45 -37.27 4.49 -37.13 4.51 -36.97C4.53 -36.82 4.54 -36.62 4.54 -36.39L4.54 -4.57C4.54 -3.98 4.43 -3.54 4.22 -3.25C4 -2.96 3.53 -2.77 2.78 -2.7C2.51 -2.66 2.18 -2.63 1.79 -2.61C1.4 -2.59 1.12 -2.57 0.97 -2.55C0.81 -2.53 0.61 -2.5 0.35 -2.46C0.1 -2.42 -0.07 -2.37 -0.15 -2.31C-0.22 -2.26 -0.31 -2.17 -0.41 -2.05C-0.51 -1.93 -0.58 -1.79 -0.62 -1.61C-0.65 -1.44 -0.67 -1.23 -0.67 -1C-0.67 -0.1 -0.21 0.35 0.73 0.35C0.77 0.35 0.94 0.34 1.23 0.32C1.52 0.3 1.92 0.27 2.43 0.23C2.94 0.2 3.51 0.16 4.13 0.12C4.76 0.08 5.49 0.05 6.33 0.03C7.17 0.01 8 0 8.82 0C10.11 0 11.4 0.03 12.69 0.09C13.97 0.15 15.01 0.2 15.79 0.23L16.9 0.35C17.61 0.35 17.96 -0.06 17.96 -0.88L17.96 -1.46C17.96 -1.66 17.94 -1.83 17.9 -1.96C17.86 -2.1 17.8 -2.21 17.72 -2.29C17.65 -2.36 17.56 -2.44 17.46 -2.52C17.36 -2.6 17.23 -2.65 17.05 -2.67L16.52 -2.72C16.35 -2.74 16.1 -2.76 15.79 -2.78C15.48 -2.8 15.2 -2.81 14.94 -2.81L13.92 -2.81L12.69 -2.81C11.9 -2.85 11.33 -3 10.96 -3.25C10.59 -3.51 10.37 -3.75 10.31 -3.98C10.25 -4.22 10.22 -4.57 10.22 -5.04L10.22 -19.92C10.22 -20.27 10.23 -20.55 10.25 -20.74C10.27 -20.94 10.39 -21.13 10.61 -21.33C10.82 -21.52 11.12 -21.62 11.51 -21.62L21.3 -21.62C21.96 -21.62 22.31 -21.33 22.35 -20.74C22.39 -20.43 22.43 -20.08 22.47 -19.69C22.51 -19.3 22.54 -18.99 22.56 -18.78C22.58 -18.56 22.61 -18.32 22.65 -18.05C22.69 -17.77 22.72 -17.56 22.76 -17.4L22.88 -16.93C22.92 -16.78 22.98 -16.66 23.06 -16.58C23.13 -16.5 23.22 -16.43 23.32 -16.35C23.42 -16.27 23.53 -16.22 23.64 -16.2C23.76 -16.18 23.9 -16.17 24.05 -16.17C25.15 -16.17 25.69 -16.7 25.69 -17.75C25.69 -17.83 25.67 -18.12 25.63 -18.6C25.6 -19.09 25.56 -19.76 25.52 -20.6C25.48 -21.44 25.46 -22.36 25.46 -23.38C25.46 -24.36 25.48 -25.26 25.52 -26.1C25.56 -26.94 25.6 -27.61 25.63 -28.1C25.67 -28.58 25.69 -28.89 25.69 -29Z M40.17 -40.49L39.7 -40.49C38.49 -40.49 37.36 -40.51 36.33 -40.55C35.29 -40.59 34.5 -40.62 33.96 -40.63C33.41 -40.65 33.06 -40.66 32.9 -40.66C32.12 -40.66 31.73 -40.18 31.73 -39.2C31.73 -38.3 32.24 -37.81 33.25 -37.73L34.13 -37.73L34.86 -37.73C35.08 -37.73 35.27 -37.72 35.45 -37.71C35.63 -37.69 35.77 -37.67 35.89 -37.65C36.01 -37.63 36.11 -37.59 36.21 -37.53C36.31 -37.47 36.39 -37.38 36.45 -37.27C36.5 -37.15 36.54 -37.02 36.56 -36.88C36.58 -36.75 36.59 -36.56 36.59 -36.33L36.59 -4.8L36.59 -4.63C36.59 -3.57 36.14 -2.93 35.24 -2.7C35.13 -2.66 34.95 -2.62 34.72 -2.58C33.51 -2.34 32.73 -2.14 32.4 -1.96C32.07 -1.79 31.9 -1.45 31.9 -0.94C31.9 -0.31 32.24 0 32.9 0L36.06 0C38.56 0 41.1 0.01 43.68 0.03C46.26 0.05 48.53 0.08 50.48 0.12C52.43 0.16 54.19 0.2 55.75 0.23C57.31 0.27 58.56 0.3 59.5 0.32C60.44 0.34 60.97 0.35 61.08 0.35C61.51 0.35 61.86 0.28 62.11 0.15C62.36 0.01 62.52 -0.14 62.58 -0.29C62.64 -0.45 62.69 -0.66 62.72 -0.94C63.51 -6.29 63.9 -9.12 63.9 -9.43C63.9 -9.79 63.76 -10.07 63.49 -10.28C63.21 -10.5 62.96 -10.63 62.72 -10.69C62.49 -10.75 62.28 -10.78 62.08 -10.78C61.73 -10.78 61.44 -10.62 61.2 -10.31C61.08 -10.2 60.68 -9.39 60 -7.91C59.32 -6.43 58.88 -5.53 58.68 -5.21C57.98 -4.12 56.88 -3.57 55.4 -3.57L55.22 -3.57L43.74 -3.57C42.69 -3.57 42.16 -4.22 42.16 -5.51L42.16 -35.92C42.16 -36.15 42.17 -36.35 42.19 -36.5C42.21 -36.66 42.25 -36.81 42.3 -36.94C42.36 -37.08 42.43 -37.19 42.51 -37.27C42.59 -37.34 42.71 -37.41 42.86 -37.47C43.02 -37.53 43.17 -37.57 43.33 -37.59C43.49 -37.61 43.71 -37.62 44 -37.62L44.79 -37.62C45.03 -37.62 45.37 -37.63 45.82 -37.65C46.27 -37.67 46.69 -37.68 47.08 -37.68C47.98 -37.68 48.43 -38.14 48.43 -39.08C48.43 -39.63 48.37 -40.03 48.25 -40.28C48.13 -40.54 47.86 -40.66 47.43 -40.66C47.31 -40.66 46.94 -40.64 46.32 -40.61C45.69 -40.57 44.83 -40.54 43.74 -40.52C42.65 -40.5 41.46 -40.49 40.17 -40.49Z M110.42 -20.21C110.42 -26.46 108.27 -31.86 103.97 -36.39C99.68 -40.92 94.37 -43.18 88.04 -43.18C81.98 -43.18 76.78 -41.03 72.42 -36.71C68.07 -32.39 65.89 -27.21 65.89 -21.15C65.97 -14.82 68.29 -9.45 72.86 -5.04C75.01 -2.97 77.49 -1.37 80.3 -0.23C83.12 0.9 85.99 1.46 88.92 1.46C94.85 1.46 99.92 -0.6 104.12 -4.72C108.32 -8.84 110.42 -14 110.42 -20.21ZM71.63 -23.03C71.63 -25.88 72.08 -28.43 72.98 -30.67C73.88 -32.92 75.08 -34.7 76.58 -36.01C78.09 -37.31 79.74 -38.31 81.53 -38.99C83.33 -39.68 85.19 -40.02 87.1 -40.02C91.24 -40.02 94.83 -38.67 97.88 -35.98C100.15 -33.98 101.82 -31.47 102.89 -28.45C103.96 -25.42 104.5 -22.32 104.5 -19.16C104.5 -16.15 104 -13.5 103.01 -11.19C102.01 -8.89 100.71 -7.1 99.11 -5.83C97.51 -4.56 95.83 -3.61 94.07 -2.99C92.31 -2.36 90.52 -2.05 88.68 -2.05C85.95 -2.05 83.47 -2.66 81.24 -3.87C79.01 -5.08 77.22 -6.68 75.85 -8.67C74.48 -10.66 73.44 -12.89 72.71 -15.35C71.99 -17.81 71.63 -20.37 71.63 -23.03Z M113.76 -41.37C113.25 -41.37 112.87 -41.19 112.62 -40.84C112.36 -40.49 112.24 -40.1 112.24 -39.67C112.24 -39.32 112.33 -39.04 112.53 -38.85C112.72 -38.58 113.29 -38.42 114.23 -38.38C115.17 -38.34 115.77 -37.97 116.04 -37.27C116.08 -37.15 116.31 -36.43 116.72 -35.1C117.13 -33.77 117.68 -32.06 118.36 -29.97C119.04 -27.88 119.85 -25.48 120.79 -22.76C121.73 -20.05 122.89 -16.86 124.28 -13.18C125.66 -9.51 127.12 -5.8 128.64 -2.05C128.72 -1.86 128.83 -1.56 128.96 -1.17C129.1 -0.78 129.23 -0.47 129.35 -0.23C129.46 0 129.6 0.25 129.76 0.53C129.91 0.8 130.09 1.01 130.28 1.14C130.48 1.28 130.71 1.35 130.99 1.35C131.1 1.35 131.28 1.27 131.51 1.11L131.57 1.11C131.85 1 132.15 0.57 132.48 -0.18C132.81 -0.92 133.78 -3.38 135.38 -7.56C137.14 -12.17 138.7 -16.25 140.07 -19.8C140.15 -19.96 140.24 -20.04 140.36 -20.04C140.48 -20.04 141.18 -18.42 142.47 -15.18C144.23 -10.61 145.97 -6.17 147.69 -1.87C148.43 0.27 149.29 1.35 150.26 1.35C151.01 1.35 151.81 0.37 152.67 -1.58C154.5 -5.49 156.23 -9.36 157.85 -13.18C159.47 -17.01 160.81 -20.28 161.87 -23C162.92 -25.71 163.84 -28.14 164.62 -30.29C165.4 -32.44 166 -34.11 166.41 -35.3C166.82 -36.49 167.04 -37.13 167.08 -37.21C167.35 -37.71 167.75 -38.07 168.28 -38.26C168.81 -38.46 169.3 -38.55 169.75 -38.55C170.2 -38.55 170.6 -38.66 170.95 -38.88C171.3 -39.09 171.47 -39.45 171.47 -39.96C171.47 -40.9 171.14 -41.37 170.48 -41.37C170.36 -41.37 170.05 -41.35 169.54 -41.31C169.03 -41.27 168.32 -41.23 167.4 -41.19C166.48 -41.15 165.52 -41.13 164.5 -41.13L164.44 -41.13C163.39 -41.13 162.4 -41.15 161.48 -41.19C160.57 -41.23 159.85 -41.27 159.35 -41.31C158.84 -41.35 158.53 -41.37 158.41 -41.37C157.67 -41.37 157.29 -40.92 157.29 -40.02C157.29 -39.16 157.71 -38.69 158.53 -38.61C158.8 -38.57 159.14 -38.54 159.55 -38.5C159.96 -38.46 160.26 -38.43 160.46 -38.41C160.65 -38.39 160.89 -38.36 161.16 -38.32C161.44 -38.28 161.63 -38.23 161.75 -38.17C161.87 -38.12 161.99 -38.03 162.13 -37.91C162.27 -37.79 162.35 -37.67 162.39 -37.53C162.43 -37.39 162.45 -37.21 162.45 -36.97C162.45 -36.43 162.06 -34.8 161.28 -32.11C160.5 -29.41 159.3 -25.86 157.68 -21.45C156.05 -17.03 154.35 -12.93 152.55 -9.14C152.31 -8.4 152 -8.03 151.61 -8.03L151.55 -8.03C151.36 -8.03 151.12 -8.2 150.85 -8.55C150.58 -8.95 149.86 -10.52 148.71 -13.27C147.56 -16.03 146.14 -19.59 144.46 -23.96C142.78 -28.34 141.3 -32.48 140.01 -36.39C139.93 -36.78 139.89 -37.03 139.89 -37.15C139.89 -37.97 140.52 -38.46 141.77 -38.61C142.9 -38.73 143.61 -38.86 143.91 -38.99C144.2 -39.13 144.35 -39.47 144.35 -40.02C144.35 -40.92 144.01 -41.37 143.35 -41.37C143.23 -41.37 142.91 -41.35 142.38 -41.31C141.86 -41.27 141.12 -41.23 140.19 -41.19C139.25 -41.15 138.25 -41.13 137.2 -41.13L137.14 -41.13C136.04 -41.13 135.04 -41.15 134.12 -41.19C133.2 -41.23 132.48 -41.27 131.95 -41.31C131.43 -41.35 131.1 -41.37 130.99 -41.37C130.05 -41.37 129.58 -40.9 129.58 -39.96C129.58 -39.06 129.93 -38.61 130.63 -38.61C132.47 -38.54 133.54 -38.42 133.83 -38.26C134.12 -38.11 134.44 -37.48 134.79 -36.39C137.45 -28.73 138.78 -24.79 138.78 -24.55L138.78 -24.49C138.78 -24.34 138.74 -24.1 138.66 -23.79C138.04 -22.27 137.26 -20.29 136.32 -17.87C134.48 -13.18 133.41 -10.5 133.1 -9.81C132.78 -9.13 132.49 -8.79 132.22 -8.79C131.9 -8.79 131.61 -9.14 131.34 -9.84C127.16 -21.02 124.03 -29.88 121.96 -36.45C121.85 -36.68 121.79 -36.93 121.79 -37.21C121.79 -37.48 121.88 -37.73 122.08 -37.97C122.31 -38.24 122.68 -38.42 123.16 -38.5C123.65 -38.57 124.12 -38.59 124.57 -38.55C125.02 -38.52 125.41 -38.59 125.74 -38.79C126.07 -38.98 126.24 -39.34 126.24 -39.84C126.24 -40.86 125.87 -41.37 125.13 -41.37C125.05 -41.37 124.77 -41.35 124.28 -41.31C123.79 -41.27 123.12 -41.23 122.26 -41.19C121.4 -41.15 120.48 -41.13 119.5 -41.13C118.49 -41.13 117.54 -41.15 116.66 -41.19C115.78 -41.23 115.1 -41.27 114.61 -41.31C114.12 -41.35 113.84 -41.37 113.76 -41.37Z" fill="#121212"></path></g></g></svg>