<svg xmlns:xlink="http://www.w3.org/1999/xlink" id="SvgjsSvg1249" width="300" height="148" xmlns="http://www.w3.org/2000/svg" version="1.1" xlink="http://www.w3.org/1999/xlink" xmlns:svgjs="http://svgjs.com/svgjs" preserveAspectRatio="xMidYMid meet" viewBox="-3.7633463989550364e-7 -3.7633463989550364e-7 300.0000305175781 43.24995803833008" overflow="visible"><defs id="SvgjsDefs1250"></defs><g id="SvgjsG1251" transform="scale(0.6654658704737229)" opacity="1"><g id="SvgjsG1252" class="A7CBkGHnc" transform="translate(-11.064321775959451, -11.064321775959451) scale(0.8712064521361335)" light-content="false" non-strokable="false" fill="#0C3B7D"><path d="M51.1 56.4h.2c.2 0 .3-.1.4-.1h.2c.1 0 .3-.1.4-.2.1 0 .1 0 .2-.1.2-.1.3-.1.5-.2h.1c2-1.1 3.4-3.2 3.4-5.7 0-.9-.2-1.8-.6-2.6l11.6-11.6-3.3-3.3-11.6 11.5s-.1 0-.1-.1c0 0-.1 0-.2-.1s-.3-.1-.4-.2h-.2c-.1 0-.3-.1-.4-.1h-.2c-.2 0-.3-.1-.5-.1H50c-1.7 0-3.3.7-4.6 1.9-.6.6-1.1 1.4-1.5 2.2h-13v4.7H44c.3.8.8 1.6 1.5 2.2 1.2 1.2 2.8 1.9 4.6 1.9h1zM48.2 50c0-1 .8-1.8 1.8-1.8.5 0 .9.2 1.3.5.3.3.5.8.5 1.3s-.2.9-.5 1.3c-.5.5-1.4.6-2.1.3-.6-.3-1-.9-1-1.6zM23.6 30.8l-3.8-2.7c1.1-1.6 2.4-3.1 3.8-4.4l3.3 3.3c-1.2 1.1-2.3 2.5-3.3 3.8zm4.5-11c1.6-1.1 3.3-2.2 5-3.1l2.1 4.2c-1.5.8-3 1.7-4.4 2.7l-2.7-3.8zM21 64.9c.8 1.5 1.7 3 2.7 4.4L19.9 72c-1.1-1.6-2.2-3.2-3.1-5l4.2-2.1zm-2-4.8l-4.4 1.5c-.6-1.8-1.1-3.8-1.4-5.7l4.6-.7c.3 1.7.7 3.3 1.2 4.9zm-1.6-10h-4.7V50c0-2 .2-3.9.5-5.8l4.6.7c-.3 1.7-.4 3.4-.4 5.2zm-.6-17l4.2 2.1c-.8 1.5-1.4 3.1-2 4.7l-4.4-1.4c.5-1.9 1.3-3.7 2.2-5.4zm52.4 43.3l2.8 3.8c-1.6 1.1-3.2 2.2-5 3.1l-2.1-4.2c1.5-.8 2.9-1.7 4.3-2.7zM60.1 81l1.4 4.4c-1.8.6-3.8 1.1-5.7 1.4l-.7-4.6c1.7-.2 3.4-.7 5-1.2zm16.3-57.4l-3.3 3.3c-1.2-1.2-2.5-2.3-3.9-3.3l2.7-3.8c1.6 1.2 3.1 2.4 4.5 3.8zm3.8 4.5c1.1 1.6 2.2 3.2 3.1 5l-4.2 2.1c-.8-1.5-1.7-3-2.7-4.4l3.8-2.7zm-3.8 41l3.8 2.7c-1.1 1.6-2.4 3.1-3.8 4.5L73.1 73c1.2-1.2 2.3-2.5 3.3-3.9zM82.6 50h4.7v.1c0 1.9-.2 3.8-.4 5.7l-4.6-.7c.2-1.7.3-3.4.3-5.1zM35.2 79.1c1.5.8 3.1 1.4 4.7 2l-1.4 4.4c-1.9-.6-3.7-1.3-5.4-2.2l2.1-4.2zm47-34.2c-.3-1.7-.7-3.4-1.2-5l4.4-1.4c.6 1.9 1.1 3.8 1.4 5.7l-4.6.7zM50 82.6l.1 4.7H50c-1.9 0-3.9-.1-5.8-.4l.7-4.6c1.7.2 3.4.3 5.1.3zm-23-9.5c1.2 1.2 2.5 2.3 3.9 3.3l-2.7 3.8c-1.6-1.1-3.1-2.4-4.5-3.8l3.3-3.3zM81 60l4.4 1.4c-.6 1.9-1.4 3.7-2.2 5.4L79 64.7c.9-1.4 1.5-3 2-4.7zM50 17.4v-4.7c1.9 0 3.9.2 5.8.5l-.7 4.6c-1.7-.3-3.4-.4-5.1-.4zm-11.5-2.9c1.9-.6 3.8-1.1 5.7-1.4l.7 4.6c-1.7.3-3.4.7-5 1.2l-1.4-4.4zm26.3 6.4c-1.5-.8-3.1-1.4-4.7-2l1.4-4.4c1.9.6 3.7 1.4 5.4 2.2l-2.1 4.2z" fill="#0C3B7D"></path></g><g id="SvgjsG1253" class="text" transform="translate(275.7020067138672, 51.90600122070313) scale(1)" light-content="false" fill="#333333"><path d="M-166.83 -5.22L-166.83 0L-151.17 0L-151.17 -5.22L-152.67 -5.22C-153.51 -5.22 -154.12 -5.4 -154.5 -5.76C-154.88 -6.12 -155.07 -6.68 -155.07 -7.44L-155.07 -33.6L-150.39 -33.6C-149.55 -33.6 -148.95 -33.43 -148.59 -33.09C-148.23 -32.75 -148.05 -32.18 -148.05 -31.38L-148.05 -29.16L-142.35 -29.16L-142.35 -38.82L-175.71 -38.82L-175.71 -29.16L-170.01 -29.16L-170.01 -31.38C-170.01 -32.18 -169.83 -32.75 -169.47 -33.09C-169.11 -33.43 -168.51 -33.6 -167.67 -33.6L-162.99 -33.6L-162.99 -7.44C-162.99 -6.68 -163.17 -6.12 -163.53 -5.76C-163.89 -5.4 -164.49 -5.22 -165.33 -5.22Z M-133.71 -5.22L-133.71 0L-118.17 0L-118.17 -5.22L-119.73 -5.22C-120.53 -5.22 -121.1 -5.4 -121.44 -5.76C-121.78 -6.12 -121.95 -6.68 -121.95 -7.44L-121.95 -31.38C-121.95 -32.14 -121.78 -32.7 -121.44 -33.06C-121.1 -33.42 -120.53 -33.6 -119.73 -33.6L-118.17 -33.6L-118.17 -38.82L-133.71 -38.82L-133.71 -33.6L-132.15 -33.6C-131.31 -33.6 -130.71 -33.42 -130.35 -33.06C-129.99 -32.7 -129.81 -32.14 -129.81 -31.38L-129.81 -7.56C-129.81 -6.76 -129.99 -6.17 -130.35 -5.79C-130.71 -5.41 -131.31 -5.22 -132.15 -5.22Z M-108.93 -5.22L-108.93 0L-93.33 0L-93.33 -5.22L-94.95 -5.22C-96.51 -5.22 -97.29 -5.96 -97.29 -7.44L-97.29 -26.28L-90.03 -9.48L-84.63 -9.48L-77.43 -26.28L-77.43 -7.44C-77.43 -6.68 -77.61 -6.12 -77.97 -5.76C-78.33 -5.4 -78.89 -5.22 -79.65 -5.22L-81.27 -5.22L-81.27 0L-65.73 0L-65.73 -5.22L-67.35 -5.22C-68.11 -5.22 -68.67 -5.41 -69.03 -5.79C-69.39 -6.17 -69.57 -6.76 -69.57 -7.56L-69.57 -31.26C-69.57 -32.06 -69.39 -32.65 -69.03 -33.03C-68.67 -33.41 -68.11 -33.6 -67.35 -33.6L-65.73 -33.6L-65.73 -38.82L-77.67 -38.82L-87.27 -16.56L-96.93 -38.82L-108.93 -38.82L-108.93 -33.6L-107.37 -33.6C-106.53 -33.6 -105.93 -33.41 -105.57 -33.03C-105.21 -32.65 -105.03 -32.06 -105.03 -31.26L-105.03 -7.56C-105.03 -6.76 -105.21 -6.17 -105.57 -5.79C-105.93 -5.41 -106.53 -5.22 -107.37 -5.22Z M-56.49 -5.22L-56.49 0L-26.97 0L-26.97 -8.58L-34.17 -8.58L-34.17 -7.5C-34.17 -6.7 -34.36 -6.12 -34.74 -5.76C-35.12 -5.4 -35.71 -5.22 -36.51 -5.22L-44.67 -5.22L-44.67 -16.8L-35.43 -16.8L-35.43 -22.08L-44.67 -22.08L-44.67 -33.6L-36.51 -33.6C-34.95 -33.6 -34.17 -32.86 -34.17 -31.38L-34.17 -30.3L-26.97 -30.3L-26.97 -38.82L-56.49 -38.82L-56.49 -33.6L-54.93 -33.6C-54.09 -33.6 -53.49 -33.42 -53.13 -33.06C-52.77 -32.7 -52.59 -32.14 -52.59 -31.38L-52.59 -7.56C-52.59 -6.76 -52.77 -6.17 -53.13 -5.79C-53.49 -5.41 -54.09 -5.22 -54.93 -5.22Z M7.77 -5.22L7.77 0L23.43 0L23.43 -5.22L21.81 -5.22C21.05 -5.22 20.49 -5.4 20.13 -5.76C19.77 -6.12 19.59 -6.68 19.59 -7.44L19.59 -16.8L28.83 -16.8L28.83 -22.08L19.59 -22.08L19.59 -33.6L27.75 -33.6C29.31 -33.6 30.09 -32.86 30.09 -31.38L30.09 -30.3L37.29 -30.3L37.29 -38.82L7.77 -38.82L7.77 -33.6L9.33 -33.6C10.17 -33.6 10.77 -33.42 11.13 -33.06C11.49 -32.7 11.67 -32.14 11.67 -31.38L11.67 -7.56C11.67 -6.76 11.49 -6.17 11.13 -5.79C10.77 -5.41 10.17 -5.22 9.33 -5.22Z M46.53 -5.22L46.53 0L76.05 0L76.05 -9.6L68.85 -9.6L68.85 -7.5C68.85 -6.7 68.66 -6.12 68.28 -5.76C67.9 -5.4 67.31 -5.22 66.51 -5.22L58.35 -5.22L58.35 -31.38C58.35 -32.14 58.53 -32.7 58.89 -33.06C59.25 -33.42 59.85 -33.6 60.69 -33.6L62.25 -33.6L62.25 -38.82L46.53 -38.82L46.53 -33.6L48.09 -33.6C48.93 -33.6 49.53 -33.42 49.89 -33.06C50.25 -32.7 50.43 -32.14 50.43 -31.38L50.43 -7.5C50.43 -6.7 50.24 -6.12 49.86 -5.76C49.48 -5.4 48.87 -5.22 48.03 -5.22Z M87.99 -4.11C90.99 -0.77 95.59 0.9 101.79 0.9C107.95 0.9 112.53 -0.77 115.53 -4.11C118.53 -7.45 120.03 -12.5 120.03 -19.26C120.03 -26.1 118.56 -31.22 115.62 -34.62C112.68 -38.02 108.07 -39.72 101.79 -39.72C95.43 -39.72 90.79 -38.02 87.87 -34.62C84.95 -31.22 83.49 -26.1 83.49 -19.26C83.49 -12.5 84.99 -7.45 87.99 -4.11ZM109.74 -7.86C108.08 -5.58 105.43 -4.44 101.79 -4.44C98.11 -4.44 95.44 -5.57 93.78 -7.83C92.12 -10.09 91.29 -13.9 91.29 -19.26C91.29 -22.94 91.66 -25.89 92.4 -28.11C93.14 -30.33 94.27 -31.93 95.79 -32.91C97.31 -33.89 99.31 -34.38 101.79 -34.38C105.43 -34.38 108.08 -33.22 109.74 -30.9C111.4 -28.58 112.23 -24.7 112.23 -19.26C112.23 -13.94 111.4 -10.14 109.74 -7.86Z M131.31 -30.96L138.21 0L144.69 0L150.81 -19.08L157.05 0L163.47 0L170.31 -30.96C170.55 -32 170.93 -32.7 171.45 -33.06C171.97 -33.42 172.85 -33.6 174.09 -33.6L175.11 -33.6L175.11 -38.82L164.79 -38.82L159.51 -13.86L153.75 -32.28L147.87 -32.28L142.17 -13.86L136.95 -38.82L126.57 -38.82L126.57 -33.6L127.53 -33.6C128.77 -33.6 129.65 -33.42 130.17 -33.06C130.69 -32.7 131.07 -32 131.31 -30.96Z" fill="#333333"></path></g></g></svg>