<svg xmlns:xlink="http://www.w3.org/1999/xlink" id="SvgjsSvg1116" width="300.0000305175781" height="53.0115852355957" xmlns="http://www.w3.org/2000/svg" version="1.1" xlink="http://www.w3.org/1999/xlink" xmlns:svgjs="http://svgjs.com/svgjs" preserveAspectRatio="xMidYMid meet" viewBox="0 0 300.0000305175781 53.0115852355957" overflow="visible"><defs id="SvgjsDefs1117"></defs><g id="SvgjsG1118" transform="scale(0.6111154568210262)" opacity="1"><g id="SvgjsG1119" class="jjKweWeRu" transform="translate(0, 0) scale(0.32416142758398975)" light-content="false" non-strokable="false" fill="#156899"><circle cx="133.8" cy="133.8" r="133.8" fill="#156899"></circle></g><g id="SvgjsG1120" class="65iFMfGfke" transform="translate(13.604872881152783, 13.604872881152783) scale(0.5953585537325076)" light-content="true" non-strokable="false" fill="#FFFFFF"><path d="M51.1 56.4h.2c.2 0 .3-.1.4-.1h.2c.1 0 .3-.1.4-.2.1 0 .1 0 .2-.1.2-.1.3-.1.5-.2h.1c2-1.1 3.4-3.2 3.4-5.7 0-.9-.2-1.8-.6-2.6l11.6-11.6-3.3-3.3-11.6 11.5s-.1 0-.1-.1c0 0-.1 0-.2-.1s-.3-.1-.4-.2h-.2c-.1 0-.3-.1-.4-.1h-.2c-.2 0-.3-.1-.5-.1H50c-1.7 0-3.3.7-4.6 1.9-.6.6-1.1 1.4-1.5 2.2h-13v4.7H44c.3.8.8 1.6 1.5 2.2 1.2 1.2 2.8 1.9 4.6 1.9h1zM48.2 50c0-1 .8-1.8 1.8-1.8.5 0 .9.2 1.3.5.3.3.5.8.5 1.3s-.2.9-.5 1.3c-.5.5-1.4.6-2.1.3-.6-.3-1-.9-1-1.6zM23.6 30.8l-3.8-2.7c1.1-1.6 2.4-3.1 3.8-4.4l3.3 3.3c-1.2 1.1-2.3 2.5-3.3 3.8zm4.5-11c1.6-1.1 3.3-2.2 5-3.1l2.1 4.2c-1.5.8-3 1.7-4.4 2.7l-2.7-3.8zM21 64.9c.8 1.5 1.7 3 2.7 4.4L19.9 72c-1.1-1.6-2.2-3.2-3.1-5l4.2-2.1zm-2-4.8l-4.4 1.5c-.6-1.8-1.1-3.8-1.4-5.7l4.6-.7c.3 1.7.7 3.3 1.2 4.9zm-1.6-10h-4.7V50c0-2 .2-3.9.5-5.8l4.6.7c-.3 1.7-.4 3.4-.4 5.2zm-.6-17l4.2 2.1c-.8 1.5-1.4 3.1-2 4.7l-4.4-1.4c.5-1.9 1.3-3.7 2.2-5.4zm52.4 43.3l2.8 3.8c-1.6 1.1-3.2 2.2-5 3.1l-2.1-4.2c1.5-.8 2.9-1.7 4.3-2.7zM60.1 81l1.4 4.4c-1.8.6-3.8 1.1-5.7 1.4l-.7-4.6c1.7-.2 3.4-.7 5-1.2zm16.3-57.4l-3.3 3.3c-1.2-1.2-2.5-2.3-3.9-3.3l2.7-3.8c1.6 1.2 3.1 2.4 4.5 3.8zm3.8 4.5c1.1 1.6 2.2 3.2 3.1 5l-4.2 2.1c-.8-1.5-1.7-3-2.7-4.4l3.8-2.7zm-3.8 41l3.8 2.7c-1.1 1.6-2.4 3.1-3.8 4.5L73.1 73c1.2-1.2 2.3-2.5 3.3-3.9zM82.6 50h4.7v.1c0 1.9-.2 3.8-.4 5.7l-4.6-.7c.2-1.7.3-3.4.3-5.1zM35.2 79.1c1.5.8 3.1 1.4 4.7 2l-1.4 4.4c-1.9-.6-3.7-1.3-5.4-2.2l2.1-4.2zm47-34.2c-.3-1.7-.7-3.4-1.2-5l4.4-1.4c.6 1.9 1.1 3.8 1.4 5.7l-4.6.7zM50 82.6l.1 4.7H50c-1.9 0-3.9-.1-5.8-.4l.7-4.6c1.7.2 3.4.3 5.1.3zm-23-9.5c1.2 1.2 2.5 2.3 3.9 3.3l-2.7 3.8c-1.6-1.1-3.1-2.4-4.5-3.8l3.3-3.3zM81 60l4.4 1.4c-.6 1.9-1.4 3.7-2.2 5.4L79 64.7c.9-1.4 1.5-3 2-4.7zM50 17.4v-4.7c1.9 0 3.9.2 5.8.5l-.7 4.6c-1.7-.3-3.4-.4-5.1-.4zm-11.5-2.9c1.9-.6 3.8-1.1 5.7-1.4l.7 4.6c-1.7.3-3.4.7-5 1.2l-1.4-4.4zm26.3 6.4c-1.5-.8-3.1-1.4-4.7-2l1.4-4.4c1.9.6 3.7 1.4 5.4 2.2l-2.1 4.2z" fill="#FFFFFF"></path></g><g id="SvgjsG1121" class="text" transform="translate(306.85560061035153, 65.60279969482421) scale(1)" light-content="false" fill="#242424"><path d="M-171.93 -36.42L-171.93 0L-163.05 0L-163.05 -36.42L-150.81 -36.42L-150.81 -44.4L-184.11 -44.4L-184.11 -36.42Z M-140.01 -44.4L-140.01 0L-131.13 0L-131.13 -44.4Z M-79.53 0L-70.95 0L-76.17 -44.4L-84.63 -44.4L-94.77 -10.38L-104.97 -44.4L-113.49 -44.4L-118.65 0L-110.07 0L-106.77 -28.68L-99.03 0L-90.69 0L-82.95 -29.04Z M-56.43 -1.62C-54.27 -0.34 -51.75 0.3 -48.87 0.3C-41.83 0.3 -35.65 0 -30.33 -0.6L-30.33 -8.04L-47.07 -8.04C-49.55 -8.04 -50.79 -9.36 -50.79 -12L-50.79 -18.12L-33.21 -18.6L-33.21 -25.62L-50.79 -26.1L-50.79 -32.52C-50.79 -34.96 -49.49 -36.18 -46.89 -36.18L-30.33 -36.18L-30.33 -43.62C-37.01 -44.14 -43.41 -44.4 -49.53 -44.4C-52.33 -44.4 -54.72 -43.61 -56.7 -42.03C-58.68 -40.45 -59.67 -37.86 -59.67 -34.26L-59.67 -9.48C-59.67 -5.52 -58.59 -2.9 -56.43 -1.62Z M3.63 -34.26L3.63 0L12.51 0L12.51 -17.04L30.09 -17.52L30.09 -24.54L12.51 -25.02L12.51 -32.64C12.51 -33.68 12.83 -34.53 13.47 -35.19C14.11 -35.85 15.03 -36.18 16.23 -36.18L32.97 -36.18L32.97 -43.62C28.13 -44.14 21.73 -44.4 13.77 -44.4C10.97 -44.4 8.58 -43.61 6.6 -42.03C4.62 -40.45 3.63 -37.86 3.63 -34.26Z M47.19 -2.46C48.91 -0.82 51.55 0 55.11 0L71.49 0L71.49 -8.04L57.45 -8.04C54.81 -8.04 53.49 -9.34 53.49 -11.94L53.49 -44.4L44.61 -44.4L44.61 -10.5C44.61 -6.78 45.47 -4.1 47.19 -2.46Z M89.13 -1.38C91.73 -0.22 95.21 0.36 99.57 0.36C103.93 0.36 107.4 -0.22 109.98 -1.38C112.56 -2.54 114.51 -4.74 115.83 -7.98C117.15 -11.22 117.81 -15.94 117.81 -22.14C117.81 -28.34 117.15 -33.07 115.83 -36.33C114.51 -39.59 112.56 -41.82 109.98 -43.02C107.4 -44.22 103.93 -44.82 99.57 -44.82C95.25 -44.82 91.79 -44.22 89.19 -43.02C86.59 -41.82 84.62 -39.59 83.28 -36.33C81.94 -33.07 81.27 -28.34 81.27 -22.14C81.27 -15.94 81.93 -11.22 83.25 -7.98C84.57 -4.74 86.53 -2.54 89.13 -1.38ZM105.3 -8.73C104 -7.99 102.09 -7.62 99.57 -7.62C97.01 -7.62 95.08 -7.99 93.78 -8.73C92.48 -9.47 91.55 -10.86 90.99 -12.9C90.43 -14.94 90.15 -18.02 90.15 -22.14C90.15 -26.34 90.45 -29.48 91.05 -31.56C91.65 -33.64 92.6 -35.04 93.9 -35.76C95.2 -36.48 97.09 -36.84 99.57 -36.84C102.09 -36.84 104 -36.48 105.3 -35.76C106.6 -35.04 107.53 -33.65 108.09 -31.59C108.65 -29.53 108.93 -26.38 108.93 -22.14C108.93 -18.06 108.65 -14.99 108.09 -12.93C107.53 -10.87 106.6 -9.47 105.3 -8.73Z M126.63 -44.4L137.25 0L146.31 0L155.37 -31.32L164.37 0L173.43 0L184.05 -44.4L174.87 -44.4L167.73 -13.08L159.45 -44.4L151.29 -44.4L142.95 -13.08L135.81 -44.4Z" fill="#242424"></path></g></g></svg>