<svg xmlns:xlink="http://www.w3.org/1999/xlink" id="SvgjsSvg1337" width="300" height="148" xmlns="http://www.w3.org/2000/svg" version="1.1" xlink="http://www.w3.org/1999/xlink" xmlns:svgjs="http://svgjs.com/svgjs" preserveAspectRatio="xMidYMid meet" viewBox="4.982417181054188e-7 -5.513126666301105e-8 300 44.84153366088867" overflow="visible"><defs id="SvgjsDefs1338"><linearGradient id="SvgjsLinearGradientrKUIhllruf" gradientUnits="userSpaceOnUse" x1="4.998998641967801" y1="95.00099945068358" x2="95.00099754333496" y2="4.999000549316409"><stop id="SvgjsStop1341" stop-color="#7c9ef4" offset="0.05"></stop><stop id="SvgjsStop1342" stop-color="#134cde" offset="0.95"></stop></linearGradient><linearGradient id="SvgjsLinearGradientrKUIhllruf" gradientUnits="userSpaceOnUse" x1="4.998998641967801" y1="95.00099945068358" x2="95.00099754333496" y2="4.999000549316409"><stop id="SvgjsStop1341" stop-color="#7c9ef4" offset="0.05"></stop><stop id="SvgjsStop1342" stop-color="#134cde" offset="0.95"></stop></linearGradient><linearGradient id="SvgjsLinearGradientrKUIhllruf" gradientUnits="userSpaceOnUse" x1="4.998998641967801" y1="95.00099945068358" x2="95.00099754333496" y2="4.999000549316409"><stop id="SvgjsStop1341" stop-color="#7c9ef4" offset="0.05"></stop><stop id="SvgjsStop1342" stop-color="#134cde" offset="0.95"></stop></linearGradient><linearGradient id="SvgjsLinearGradientrKUIhllruf" gradientUnits="userSpaceOnUse" x1="4.998998641967801" y1="95.00099945068358" x2="95.00099754333496" y2="4.999000549316409"><stop id="SvgjsStop1341" stop-color="#7c9ef4" offset="0.05"></stop><stop id="SvgjsStop1342" stop-color="#134cde" offset="0.95"></stop></linearGradient></defs><g id="SvgjsG1339" transform="scale(0.9249491491733979)" opacity="1"><g id="SvgjsG1343" class="yhCFYrn_n" transform="translate(-2.6922549725748723, -2.693333333333334) scale(0.5386666666666667)" light-content="false" non-strokable="false" fill="url(&quot;#SvgjsLinearGradientrKUIhllruf&quot;)"><path d="M51.508 31.537a.858.858 0 0 1-.855.856h-.22a.858.858 0 0 1-.856-.856V26.56c0-.471.385-.856.856-.856h.22c.472 0 .855.385.855.856v4.977zm8.971 3.193a.854.854 0 0 1-1.166.317l-.201-.115a.858.858 0 0 1-.316-1.168l2.473-4.317a.859.859 0 0 1 1.168-.317l.198.114c.408.234.552.76.317 1.169l-2.473 4.317zm6.178 7.226a.858.858 0 0 1-1.171-.308l-.11-.193a.859.859 0 0 1 .31-1.172l4.293-2.506a.861.861 0 0 1 1.172.307l.109.188c.238.406.1.933-.307 1.171l-4.296 2.513zm1.766 9.343a.854.854 0 0 1-.86-.85v-.221a.86.86 0 0 1 .853-.862l4.967-.037a.86.86 0 0 1 .864.85l.003.218a.857.857 0 0 1-.849.863l-4.978.039zm-3.116 8.993a.856.856 0 0 1-.326-1.164l.109-.194a.86.86 0 0 1 1.167-.326l4.335 2.438c.41.23.559.756.327 1.166l-.107.188a.86.86 0 0 1-1.166.328l-4.339-2.436zm-7.179 6.237a.855.855 0 0 1 .299-1.17l.196-.114a.864.864 0 0 1 1.176.301l2.542 4.269a.862.862 0 0 1-.296 1.176l-.188.111a.858.858 0 0 1-1.174-.295l-2.555-4.278zm-9.325 1.844a.854.854 0 0 1 .842-.866l.225-.004a.862.862 0 0 1 .869.845l.079 4.971a.858.858 0 0 1-.841.871l-.223.004a.853.853 0 0 1-.869-.838l-.082-4.983zm-9.017-3.036a.856.856 0 0 1 1.162-.335l.194.107a.86.86 0 0 1 .335 1.164l-2.402 4.349a.86.86 0 0 1-1.164.336l-.188-.104a.858.858 0 0 1-.337-1.162l2.4-4.355zm-6.298-7.121a.854.854 0 0 1 1.172.29l.114.189a.864.864 0 0 1-.292 1.178l-4.25 2.576a.859.859 0 0 1-1.175-.289l-.113-.188a.86.86 0 0 1 .289-1.178l4.255-2.578zm-1.923-9.315a.85.85 0 0 1 .871.834l.003.216a.866.866 0 0 1-.841.877l-4.969.126a.854.854 0 0 1-.874-.834l-.004-.218a.864.864 0 0 1 .838-.877l4.976-.124zm2.966-9.04a.854.854 0 0 1 .343 1.158l-.105.192a.864.864 0 0 1-1.164.343l-4.37-2.366a.86.86 0 0 1-.346-1.161l.101-.187a.859.859 0 0 1 1.16-.346l4.381 2.367zm7.066-6.36a.855.855 0 0 1-.279 1.176l-.187.114a.861.861 0 0 1-1.18-.281l-2.611-4.229a.858.858 0 0 1 .278-1.178l.186-.115a.859.859 0 0 1 1.179.279l2.614 4.234zm13.585 16a4.725 4.725 0 0 1-6.956 4.171l-2.392 2.386-1.609-1.604 2.312-2.312a4.719 4.719 0 0 1-.808-2.641 4.73 4.73 0 0 1 4.729-4.723c1.043 0 2.007.336 2.783.911l12.448-11.45.615.612L54.77 47.564a4.8 4.8 0 0 1 .412 1.937z" fill="url(&quot;#SvgjsLinearGradientrKUIhllruf&quot;)"></path><path d="M87.635 49.32a37.263 37.263 0 0 0-1.613-10.308l6.153-4.819-4.586-9.028-7.555 2.163a37.367 37.367 0 0 0-7.362-7.388l2.139-7.531-8.979-4.585-4.848 6.154a39.342 39.342 0 0 0-5.082-1.165 38.961 38.961 0 0 0-5.202-.473L47.993 5l-9.978 1.566-.306 7.838a37.828 37.828 0 0 0-9.29 4.75l-6.509-4.393-7.151 7.148 4.371 6.509a36.894 36.894 0 0 0-4.723 9.312l-7.84.284-1.569 9.977L12.34 50.7c.07 3.542.615 7.011 1.636 10.282l-6.175 4.853 4.609 8.999 7.531-2.143a38.662 38.662 0 0 0 7.362 7.369l-2.138 7.53 9.026 4.582 4.82-6.153c1.664.502 3.35.881 5.108 1.168 1.734.281 3.469.422 5.2.446L52.007 95l9.999-1.564.287-7.844a36.779 36.779 0 0 0 9.264-4.748l6.508 4.368 7.151-7.151-4.37-6.457a37.266 37.266 0 0 0 4.75-9.311l7.812-.288 1.594-9.972-7.367-2.713zm-9.167 5.203c-2.495 15.722-17.245 26.437-32.967 23.94-15.728-2.468-26.462-17.239-23.969-32.966 2.493-15.725 17.27-26.463 32.993-23.967 15.7 2.494 26.439 17.271 23.943 32.993z" fill="url(&quot;#SvgjsLinearGradientrKUIhllruf&quot;)"></path></g><g id="SvgjsG1344" class="text" transform="translate(198.26215344596355, 35.93999969482422) scale(1)" light-content="false" fill="#134CDE"><path d="M-120.1 0L-120.1 -18.14L-124.78 -18.14L-124.78 -23.44L-108.66 -23.44L-108.66 -18.14L-113.34 -18.14L-113.34 0Z M-94.84 0L-94.84 -23.44L-88.02 -23.44L-88.02 0Z M-68.22 0L-74.24 0L-72.38 -23.44L-63 -23.44L-61.24 -15.58L-60.44 -11.6L-59.68 -15.56L-58.12 -23.44L-49.76 -23.44L-48.04 0L-54.26 0L-55.28 -13.78L-55.52 -18.86L-58.58 -2.34L-63.8 -2.34L-67.48 -18.86L-67.6 -13.78Z M-20.12 0L-34.3 0L-34.3 -23.44L-20.42 -23.44L-20.82 -18.72L-27.68 -18.92L-27.68 -14.4L-22.28 -14.4L-22.28 -9.72L-27.68 -10.12L-27.68 -4.8L-20.12 -5Z M20.32 0L13.7 0L13.7 -23.44L26.9 -23.44L26.9 -18.34L20.32 -18.74L20.32 -13.3L25.72 -13.3L25.72 -8.34L20.32 -8.74Z M40.52 0L40.52 -23.44L47.14 -23.44L47.14 -5.36L53.1 -5.36L53.1 0Z M73.74 -9.06C73.74 -6.85 73.91 -5.31 74.25 -4.44C74.59 -3.57 75.19 -3.14 76.04 -3.14C76.67 -3.14 77.14 -3.3 77.46 -3.61C77.78 -3.92 78.02 -4.57 78.19 -5.55C78.36 -6.53 78.44 -8 78.44 -9.96L78.44 -14.78C78.44 -16.69 78.25 -18.11 77.88 -19.04C77.51 -19.97 76.89 -20.44 76.04 -20.44C75.19 -20.44 74.59 -19.98 74.25 -19.07C73.91 -18.16 73.74 -16.49 73.74 -14.08ZM75.62 0.42C74.51 0.42 73.52 0.32 72.63 0.12C71.74 -0.08 70.98 -0.36 70.34 -0.72C69.7 -1.08 69.14 -1.54 68.67 -2.1C68.2 -2.66 67.82 -3.26 67.53 -3.9C67.24 -4.54 67.01 -5.29 66.84 -6.15C66.67 -7.01 66.55 -7.87 66.48 -8.73C66.41 -9.59 66.38 -10.56 66.38 -11.64C66.38 -13.24 66.46 -14.63 66.63 -15.82C66.8 -17.01 67.11 -18.12 67.56 -19.17C68.01 -20.22 68.62 -21.07 69.37 -21.72C70.12 -22.37 71.1 -22.89 72.29 -23.26C73.48 -23.63 74.89 -23.82 76.52 -23.82C77.64 -23.82 78.65 -23.72 79.54 -23.51C80.43 -23.3 81.2 -23.02 81.84 -22.66C82.48 -22.3 83.04 -21.83 83.51 -21.26C83.98 -20.69 84.36 -20.08 84.65 -19.43C84.94 -18.78 85.17 -18.03 85.34 -17.16C85.51 -16.29 85.63 -15.43 85.7 -14.58C85.77 -13.73 85.8 -12.76 85.8 -11.68C85.8 -10.08 85.71 -8.69 85.54 -7.5C85.37 -6.31 85.05 -5.2 84.6 -4.17C84.15 -3.14 83.54 -2.3 82.78 -1.65C82.02 -1 81.04 -0.5 79.85 -0.13C78.66 0.24 77.25 0.42 75.62 0.42Z M109.58 0L103.26 0L97.68 -23.44L104.34 -23.44L105.4 -15.36L106.98 -7.52L109 -15.36L109.52 -17.5L107.98 -23.44L114.52 -23.44L115.96 -15.36L117.72 -7.52L118.82 -15.36L120 -23.44L126.08 -23.44L120.92 0L114.1 0L111.64 -9.42Z" fill="#134CDE"></path></g></g></svg>