<svg xmlns:xlink="http://www.w3.org/1999/xlink" xmlns="http://www.w3.org/2000/svg" width="300" height="148" preserveAspectRatio="xMidYMid meet" viewBox="0.000028381899028318003 -8.970827138909954e-7 145.50735473632812 146.99998474121094" overflow="visible"><defs id="SvgjsDefs1423"></defs><g id="SvgjsG1424" transform="scale(0.2375159867673)" opacity="1"><g id="SvgjsG1425" class="E2_wkOfPDg" transform="translate(-99.16827735773313, -85.5262041818739) scale(7.99233970343674)" light-content="false" non-strokable="false" fill="#FFFFFF"><path d="M88.588 49.717c-.02.357.393.229.471.283-.121-.604-.579-.266-.471-.283zm-1.46-5.726l.184.074-.542-.769zm-1.187-5.253c-.544.692.602 1.853.599 2.852l-.12.189.669.297c-.385-1.128-1.121-2.492-1.148-3.338zm.446-3.274c-.194.276-.444-.518.16.686.005-.074.015-.099.022-.144a5.652 5.652 0 0 1-.182-.542zm.182.542c.223.549.084-.446 0 0zm-1.207-2.443l.562.599c.08-.213-.188-.859.032-.675-.473-.67-.546-.445-.594.076zm-.787-.433l.267.312c.032-.093.007-.199-.267-.312zm.834.981l-.567-.669c-.055.15-.261.257.24.315-.222.027.035.09.327.354zm.107.476c.055.448.144 1.004-.366.392.605 1.319 1.028.93.366-.392zm-.372 4.118l-.006.29c-.004.145-.026.294-.026.294l.349.391c-.159-.2-.096-1.081-.317-.975zm-1.771-9.577c-.154.04-.207.438-.343.589l.445.397c-.063-.304-.272-.832-.102-.986zm-.344.589l-.662-.586c.367.661.544.714.662.586zm.776 3.64l1.089 1.001-1.21-1.234zM81.519 26.4l.577.185-.95-.383zm-1.387-1.693c.468.084.041-.689.437-.518-.445-.415-.979-.632-1.453-.818.42.275.749.686 1.016 1.336zm-1.771-1.68c.213.13.473.23.755.344a2.535 2.535 0 0 0-.755-.344zm3.268 4.865c.036-.105.157-.344-.048-.789l-.147.518.195.271z" fill="#FFFFFF"></path><path d="M81.431 27.638l.004-.017-.411-.591.407.608zm.247.322l-.049-.068c-.015.05-.015.073.049.068zm1.462 3.284c-.464-.306-1.204-1.031-1.013-.014.433.149.319-.438 1.013.014zm-1.656-2.651c.021-.014.391.803.391.803.086-.076.14-.303.367-.159 0 0-.737-.661-.758-.644zm-.372-.271l.372.271-.167-.284zm-2-3.874c-.402-.166-.698-.469-1.043-.803.285.437.606.86.945 1.231.149-.036.482-.027.098-.428zm1.145 1.54l-.071-.054c.004.065.02.106.071.054zm-5.598-5.6l.006.111.061-.045zm4.352 4.604c.195.338.428.44.677.52a6.815 6.815 0 0 1-.674-.636c-.067.016-.102.038-.003.116zm-1.715-2.787l.311.641c-.028-.248-.177-.675-.311-.641zm2.904 3.55l.05.035c-.006-.159-.031-.119-.05-.035zm0 0c-.169-.121-.343-.18-.512-.244.169.164.335.311.498.423a.629.629 0 0 1 .014-.179zm-8.351-4.068c.274-.263 1.326-.026 1.637.884.792.319 1.274-1.004 1.179-2.072-.136.123-.216.21-1.067-.124.143.321 1.138 1.634.367 1.419-.968-.6-.632-.684-.932-1.199.065.664-1.589-.292-1.817.443l.927.374c-.056.099-.444.033-.294.275zm4.039-.025l.303.209c-.261-.33-.373-.647-.58-1.253-.583-.266-.769-.237-.885-.165l1.295 1.249-.133-.04z" fill="#FFFFFF"></path><path d="M77.385 22.99c-.485.075-1.27-.346-1.201.334.767.702.76.273 1.329.599-1.226-1.186.505.198-.155-.888.281.199.503.409.711.61a8.883 8.883 0 0 1-.463-.799l.008.048.006.006-.005.003c.012.093.005.134-.03.051-.007-.001-.023-.015-.031-.021a.428.428 0 0 1-.168.056c-.274-.432.026-.137.168-.056.02-.011.043-.015.061-.03l-.001-.008c.031-.036-1.423-1.023-1.423-1.023.223.297.593.571 1.194 1.118zm3.49 7.963c.006-.063.033-.078.058-.097-.101-.063-.152-.078-.058.097zm-.131-.715c.113.07.31.063.475.42.066.357-.176.107-.287.197.217.137.691.542.486-.2l-.111-.069c-.218-.645-.224-1.687-.115-1.62a3.287 3.287 0 0 0-.448 1.272zm-1.577-3.641s-.237-.259-.516-.481l-.549-.448.19.764.148-.17c.438.66.526.37.727.335zm-4.494-6.485l.435-.221c.011-.019-1.066-.022-1.066-.022l.631.243zm-1.539-1.09l.293-.274-.543-.108zM20.952 67.197l.289.259a1.622 1.622 0 0 0-.289-.259zm-1.253-2.377l-.204.026c.151.066.244.076.204-.026zm9.979-47.663c-.722.006-1.643-.101-1.332.23l.403.262a2.06 2.06 0 0 1 .929-.492zM14.64 42.905l.154-.141-.309-.464c.049.183.078.385.155.605zm1.702.734l-.385.67c.122-.146.249-.361.385-.67zM31.16 77.485l.295-.054.302-.07c-.548-.367-.428-.029-.597.124zm24.32-65.596a5.302 5.302 0 0 0-1.287-.459c.614.344 1.069.791 1.287.459zM16.369 68.517c.203.183.336.234.417.18-.202-.19-.353-.279-.417-.18zm36.279-57.189c.091.048.182.075.275.116.395-.043.798-.111 1.269-.014-.451-.252-.999-.365-1.544-.102zm25.286 57.514c.037-.022.068-.057.106-.074-.044-.043-.073.002-.106.074zm9.76-13.774c.002.174-.04.452-.075.715.05-.123.08-.339.075-.715zM66.747 14.937c.374.149.078-.015 0 0zm.94 2.359c-.096.007-.182.035-.238.119a.371.371 0 0 1 .238-.119zm-18.928-3.335h-.032c.113.079.094.064.032 0zm18.444 1.415a2.966 2.966 0 0 0-.404-.338c.06.066.182.172.404.338zm.019-.219l.297.19c.078-.042.058-.102-.297-.19z" fill="#FFFFFF"></path><path d="M66.233 14.716c.21.093.394.204.566.322-.058-.061-.078-.097-.052-.101l-.514-.221zM54.572 84.517c.025.01.054.014.082.029.334-.233.18-.181-.082-.029zM24.994 26.796c.008-.015.005-.029.012-.043l-.047.028.035.015z" fill="#FFFFFF"></path><path d="M24.387 27.944c-.047-.749.215-.94.573-1.164l-1.209-.529.312.854.324.839z" fill="#FFFFFF"></path><path d="M24.838 72.309l-.292-.899c1.193.354 1.513 1.037 1.388.086-.529.398-1.169-.159-1.694-.809-.525-.65-1.054-1.296-1.642-.95l-.114-.627c.088.139.169.115.256.252-.141-1.253-1.298-.116-1.915-1.483-.178-.494-.192-.895.127-.682l-.882-.802c-.142-.3.101-.338.249-.046l-.152-.224-.289-.518-.423-.755.041-.006c-.297-.128-.841-.497-1.091-.692-.016-.482.229.143.333-.03 0 0-.735-.737-.714-.749.096-.255.289-.223.485-.053.215.163.44.46.561.769.424-.682.261-.814-.02-1.049-.253-.241-.622-.596-.579-1.631l.466.776c.523-.812.029-1.356.144-2.424-.164.273-.456 2.26-1.129 1.411 0-.311-.099-.678-.536-1.13.46-.148.214-.638.018-1.291l.63-.122c-.358-.652-.661-.519-1.049-.873-.146-.814.292-1.076.683-1.345-.091-1.297-.646 1.043-.995-.465a3.72 3.72 0 0 0-.192-1.495c-.153-.477-.422-.97-.619-1.62.183-.79.397.104.566-.187l-.543-.647c.004-.169.163-.123.243-.1-.227-.567-.641-.011-.861-.927-.349-.115-.148-.603.111-1.184.276-.585.545-1.254.174-1.843.195-.268.385.158.636.086-.447-1.576-.348-1.342-.842-2.7l.581-1.024c-.595.721-1.003-.379-1.318-1.405-.272.248-.511.466-.632.619l-.053-.784c-.019-.392.007-.779.007-.779.148-.157.324.043.524.338a3.608 3.608 0 0 0-.081-.301c.365-.472.654-.111.909.33l-.519.435c.325.443.698.853 1.078.847-.059-.106-.094-.297-.099-.501.089.113.173.19.243.16.079-.034-.058-.213-.15-.474l.779-.165-.257-.137.895-1.69c-.09-.368-.207-.738-.315-1.118a15.897 15.897 0 0 1-.219-1.168c-.103-.815-.165-1.758.138-2.837.242.701.735.44 1.29.714-.835.288-.316 1.657-.822 2.629.263-.517.498-.299.545-.131l.112-2.045c.45.233.485-.249.914-.614-1.085-.055.029-1.593.106-2.463.318.112.541.444.047 1.282 1.145-.606-.481-1.821.665-2.425-.118.21-.231.296-.131.461.033-.628.954-1.687 1.032-1.254l-.118.207c.231-.323.502-.741.77-1.197.286-.445.617-.897.874-1.352.53-.897.85-1.765.62-2.117.094.059.646.81.729.997 0 0-.039-.256-.059-.62l-.08-1.373c-.047-1.012-.051-2.071-.051-2.071.361.689 2.251 1.193 1.673 2.446.34-.195.692-.486 1.092-1.198-.262.09-1.216-.31-1.005-.604 1.293-.076.814-.151 2.159-.437-.388.142-.84-.996-.348-1.394.04.195.774.823.689 1.062l.196-.939c.111-.462.255-.906.255-.906-.184.39.544.782 1.007.835-.26-.082 1.049-.758 1.302-1.088l-.663.171c1.439-.896.494-2.281 2.039-3.169-.069.313.299 1.492 1.103 1.167.03-.34.041-1.207.266-2.065.222-.856.624-1.783 1.27-2.34l.418.165.487-.442c.244-.223.509-.404.509-.404-.215.511-.603 1.474-1.01 2.388-.406.924-.824 1.818-1.138 2.374.689-.055.341.264 1.175-.173.435.134-.247.638-.483.77l2.027-.754c-.182-.285.121-.619.439-.945.331-.292.681-.564.538-.811l-.314.23c-.191.13-.435.323-.665.543l-.926.834c-.189-.281-.087-.86.269-1.452a2.936 2.936 0 0 1 1.773-1.369c.478.11.136 1.225.254 1.42.104-.283 1.25-.928 1.438-.823l-.507.569c.448-.03.706-.362 1.01-.66.304-.289.672-.489 1.265-.317.369-.05 1.253.572 1.217.17-.736-.602-1.475-2.863-1.193-3.53.074.008.623.056 1.206.138.58.061 1.219.286 1.465.424.714.5-.663 1.551-.046 1.979-.013-.184.277-.457.403-.55.409.097-.06.585.749.377.036-.694 1.693-.201.308-.63.795-.298.882-.04 1.843-.124-.358-.423.754-1.537 1.625-1.777-.044.176.159.392.254.49.437-.007.823.005 1.181.024.358.044.688.114 1.013.171.65.119 1.28.23 2.085.273.137.166.885.42.529.685.237-.09.471-.285.961-.227.861.728-1.09-.075-.461.739.104-.384 1.31-.353 2.048-.49-.111-.636-1.602-.363-2.314-.223.077-.84 1.417-1.531 3.246-1.645 1.422.047.481.658.746.579 1.243.395 1.87.176 2.448.004.575-.174 1.108-.32 2.047.371.643.807-.316 1.022-.261 1.455-.556-.091-.924-.329-1.257-.548-.339-.199-.632-.409-1.003-.494l.832.477c-.396.083-1.144.03-1.495-.221.567.571 4.123 1.298 5.7 2.576.384-.014 1.009.079.845-.24l-.594-.203c-.344-.647 1.323-.028.688-.559.45.047.948.07 1.46.176.256.053.516.126.771.235.244.13.485.295.716.506l-.112.649c.07-.166-.494-.729-.876-.737.577.025 1.154 1.669 2.041 1.267l-.505-.804c.883.201 2.228.164 2.98 1.024-.058-.794-.235-.098-.48-1.145.096 1.089-2.415-1.516-1.965-.157-.277-1.103-.983-1.063-1.613-2.143-.064.194.16.507-.639.01a1.033 1.033 0 0 1-.265.07l-.05-.041.036.044c-.05.01-.056.014.014.015.16.177.274.349.288.481-.627.212-1.929-.431-2.468-.422-.45-.323.297-.115.117-.441l-.404.006-.413.037c.11-.437-1.095-1.198.228-.991l-1.099-.425c-.565-.469-1.44-.914-2.059-.909-.516-.235-1.498.126-.934-.092l-1.854-.189.009-.113c-.868-.291-1.838-.203-2.799-.268a8.596 8.596 0 0 1-2.939-.663c-.621.081-1.253.188-2.269.011l-.194-.398c-.783.084-2.39-.299-2.712.104-.228-.25-.587-.377-1.02-.427-.433-.06-.937-.026-1.447.094-1.027.205-2.092.529-2.803.546l.045.506c-.946.142-1.798.557-2.887 1.033l.19.414c-.879.546-2.549.474-4.049 1.067.038-.197.438-.297.744-.298-.538-.073-1.035.024-1.499.207-.453.208-.861.529-1.262.839-.792.645-1.556 1.225-2.47 1.357a1.366 1.366 0 0 1-.898.539.274.274 0 0 0 .079-.076c-.04.019-.097.052-.155.087-.203.033-.418.059-.639.109a2.26 2.26 0 0 0 .558-.058c-.28.181-.683.491-1.043.842l-.444-.293-.091.071c-.518.109-.207.393.215.56a1.927 1.927 0 0 0-.367.61c-.763-.4-.87.976-1.795.633-.011.261-.46.692-.861 1.158-.368.507-.684 1.05-.496 1.454-.086-.072-.226-.016-.038-.197-.461.288-.929.583-1.12 1.081l-.597-.282-.149.693-.103.721c-.744.264-1.113.347-.968-.512-.633 1.78-.763 1.228-1.176 2.785l-.263-.308c-.305.432-.382 1.419-.829 1.471-1.409.437-3.337 4.698-5.146 7.198.666-.029.38.228.06.569-.302.349-.67.78-.269.999-.317.064-.611.412-.663-.139-.266 1.559-1.278 2.073-.781 3.347-.311.098-.304-.435-.502-.327.026.14.106.549-.094.664-.198.113-.166-.284-.218-.561-.363 1.591.427 1.94 1.175 2.228-.281.339-.436.611-.47.879-.01.272.094.54.309.866-.297.221-.637.635-.581-.346-.113.527-.905 3.279-.239 3.398-.171.155-.087.758-.02.906-.1 1.218-.163 1.326-.162 2.527l.12-.331c.726.478.169.987.308 1.949l-.08-.024c-.223 1.114-.144 1.355-.075 1.584.095.23.065.457-.063 1.575l.459-.174c1.054.06-.318 1.981.274 3.185l.196-.503c.432.593-.914 2.175-.872 2.93-.048.175-.201-.202-.319-.399-.116 1.99.668.078 1.155 1.378-.25.345-.933-.069-.709.855-.05.265.449.832.933 1.49.504.653.911 1.427.919 2.122.117-.361.239-.708.694-.213.513.814.237 2.857 1.422 3.231.002.142-.033.216-.087.252.575.541 1.57 1.906 2.172 2.035-.511.75.38 1.573 1.186 2.298.788.747 1.626 1.299 1.048 1.791l1.614 1.653-.153.064c.95 1.145 1.646 1.181 2.252 1.268.18.304-.097.245-.172.285 1.36 1.699 1.678 1.72 3.534 2.189l-.14.515c.277.031.773.665 1.545 1.286.765.62 1.694 1.425 2.792 1.612-.045.041-.129.107-.314.096 1.218.24 2.315 1.235 3.42 1.855 1.102.609 2.11 1.016 2.793.305 0 0 .396.046.808.022l.811-.02c-1.886-.631.501-.68-.203-1.17.759.086 1.782 1.02.84.874l-.119-.127c-.582.811 2.304.961 2.133 1.527 3.896.714 7.79 1.301 11.571 1.003l-.253-.331-.25-.345c.002.027 1.284-.139 1.284-.139.357.117.534.498-.397.609.544.337 1.504-.581 1.496-.74 1.849.016-.564.95-.014.883l.752-.171-.186-.058c.558-.415.565-.649 1.647-.908.716-.032.454.349.732.307.011.052.109.052.423-.086l1.624-.355-.8-.389c.627-.446 1.487-.371.577-.793.67.337 2.13-.13 3.516-.627 1.357-.57 2.575-1.305 2.959-1.301a4.65 4.65 0 0 1 .573-.545 6.85 6.85 0 0 1 .609-.502c.43-.312.912-.588 1.452-.887-.327.058-.819-.402.112-.876.193.65.711.558 1.284.25.575-.306 1.247-.743 1.891-.623-.506-.02.085-.512.605-.993.519-.487.899-1.034.168-.966.726-.511.364.347 1.074.129.6-.936 1.592-1.584 2.485-2.453.912-.842 1.992-1.656 2.68-2.811-.116-.139-.59.047-.461-.563l1.543-.596c.23-.489-.508-.934.483-1.415-.194.034-.483.081-.35-.246 1.741-1.933 2.856-4.384 3.708-6.874.409-1.257.897-2.483 1.265-3.753.21-.627.446-1.249.721-1.867.282-.616.482-1.253.797-1.876-.446.656-.405.174-.336-.365-.134.338-.428-.074-.674-.042l.492-1.032.339-.72c.093-.198.132-.333.132-.333-.637-.456.077-2.361-.545-2.612l.08.691c-.701-.924-1.721 1.173-2.668.947.2.255.213.537.14.838-.091.299-.297.613-.481.943-.374.664-.706 1.371-.226 2.256-.243.302-.259-.349-.505-.209.367.467.305.951-.089 1.763l-.074-.12c-.276 1.203-.503 2.061-.976 2.868l-.693 1.287c-.25.463-.495.987-.878 1.563l.521.009c-.316.51-.505.559-.732.756.353.921.76-1.481 1.214-.599-.616.167-1.072 1.103-1.529 2.01-.474.896-1.072 1.694-1.657 1.638-.473.767.604.061.127.835l-.374.045.2.406c-.356.485-.882.485-1.087.367.11-.097.186-.364.26-.498-.743.405-1.189 1.783-1.438 1.929l.661-.58c-.32.526-.661 1.086-1.084 1.598l-1.353 1.508-.667.766c-.241.233-.476.469-.701.709-.45.48-.862.974-1.209 1.494l.28.047c-1.155 1.516-1.321.716-2.808 2.101l.029-.088c-.184.444-.603.805-1.092 1.076.295-.485-1.09.067-.672-.526-1.472 1.397-.633.831-1.405 2.198l-.451-.195c-.256.496-.212.671-1.105 1.208.624-.654-.825-.229-.161-1.016a3.293 3.293 0 0 0-1.351.395 6.958 6.958 0 0 0-.942.556c-.544.366-.988.647-1.629.252-.593 1.31 1.915-.096 1.475.3.559.152-.504 1.001-1.186 1.142-.661.249-1.52-.921-3.132-.47.164-.037.157-.116.32-.152-.672-.124-1.114.712-1.972.379-.32.676-.999.116-1.001.916l1.525-.417c-.827.334-1.54 1.38-3.084 1.162.099-.176.512-.452.794-.614-.455-.179-.802.307-1.274.083.05-.754 1.871-.449 2.706-1.173-.496-.264-1.669.835-1.324-.086-.257.591-.68.621-1.153.627-.482-.037-1.012-.115-1.561.331l.048-.477c-.174.083-.538.326-.873.331l.572-.645c-.899.565-1.762-.333-2.622-.133.908.046 1.011.184.983.369-.028.19-.194.432.201.584-2.324.568-1.294-1.286-3.796-1.189.339-.027 1.252.351.7.55-.479-.096-1.089-.377-1.345-.676-1.658-.155.19.523-.553.705-.486-.66-.852.108-1.636.176l.083-.475c-.927-.275-1.084-.145-1.245.092-.153.212-.288.419-1.101.017l.876-.465-.92-.059.318-.485c-1.04.128-1.345.025-2.19-.463.105.4-.389.788-1.215.502-.457-.472.466-.318-.705-.672.371-.186.776-.441 1.119.157.103-.13.352-.192.454-.321-.471-.524-1.43-.603-1.841-.747.15.073.327.165.398.263l-.943.006-.927-.078c-.175-.286.086-.321.338-.358-.339-.105-.654-.011-1.146-.202.294-.294.445-.67 1.172-.524l-1.67-.32c-.027-.193-.533-.786-.274-.818-.632-.675-2.3-.476-3.146-1.412-.093.025-.236.009-.475-.101-.432-.38-.777-.815-1.187-1.201a4.867 4.867 0 0 0-.683-.535 3.376 3.376 0 0 0-.857-.466l-.093-1.034c-.888-.59.174 1.353-1.323.354-1.093-.694.067-.739-.1-1.188-.655-.199-1.936-.537-2.284-1.765.356.195.478.483.757.712zm-6.885-11.108c.184.209.651.574.448.849-.616-.076-.449-.387-.448-.849zm-1.918-20.067c.105.231-.047.503-.31.795.023-.251.111-.523.31-.795zm46.518-27.499c-.014.003-.024.005-.037.011-.548-.4-.356-.25.037-.011zm1.188.657c.15-.016.166-.082.137-.164-.132.081-.417-.014-.727-.164.046.151.177.292.59.328zm-4.623 72.665l-.28-.058c.53-.28.403-.118.28.058z" fill="#FFFFFF"></path><path d="M16.146 43.549a.481.481 0 0 1-.274.062c.064.116.156.135.274-.062zM31.05 77.505l.028.028a.208.208 0 0 0 .081-.048l-.109.02zm13.042-61.157c-.255-.032-.407-.097-.515-.174.008.117.138.199.515.174zm26.413.392l-.811-.346c.373.198.447.367.588.543.043-.106-.015-.333.223-.197zm4.001 6.775c.128.036.19.164.317.198l.13-.185c-.386-.331-.767-.433-.447-.013zm-4.18-5.008c-.173.39.377.498.876.806-.029-.02-.058-.037-.083-.062.466-.367-.147-.594-.793-.744zm.993.876c.155.092.309.194.439.315.188-.143-.149-.171-.439-.315zm-5.895-4.712c.216.219.372-.397.453-.175.499-.348-1.988-.235-.453.175zm4.568 5.197l.102-.524-.494.172zm-3.717-2.545l.759.52c.027-.08.154-.073.301-.044-.5-.26-1.014-.618-1.06-.476z" fill="#FFFFFF"></path><path d="M67.334 17.799c.257.142.493.291.676.3-.141-.074-.435-.25-.676-.3zm1.522 1.555l-.174-.228-.527-.363zm-11.835-5.298l-1.013-.01c-.128.154.122.299.498.287.256-.083.635-.091.515-.277zm2.567 2.038c-.224-.165-.212-.277-.313-.473l-.19.592.503-.119zm-2.754-.534c-.132.154-1.455.28-.26.421.127-.166 1.097-.123.26-.421zm-14.525-.615l.24-.07-.246-.988zm-10.607 7.056c1.057-.354-.116-.664.89-.918.097-.341-.824.209-.708-.105-.436.562-.808.619-.182 1.023zm.182-1.023c.07-.09.142-.19.212-.309a1.171 1.171 0 0 0-.212.309zm56.623 31.233l.253-.795-.368.504zm-.679-1.553l.658-.177-.564-.481c.02.178.059.525-.094.658zM18.61 58.975l-.163-.008c-.136.149-.108.308-.055.628l.218-.62zm3.339 8.641l-.072-.144-.339.572zm5.437 5.571c-.226-.217-.565-.4-.756-.655.516.447.314 1.229.756.655z" fill="#FFFFFF"></path></g><g id="SvgjsG1426" class="text" transform="translate(312.32080348659207, 331.5128537968501) scale(1)" light-content="false" fill="#FFFFFF"><path d="M-165.88 -55.84C-165.92 -56.62 -165.94 -57.39 -165.94 -58.15C-165.94 -58.92 -166.11 -59.63 -166.46 -60.29C-167.01 -60.41 -167.46 -60.59 -167.81 -60.82C-168.16 -61.05 -168.5 -61.3 -168.81 -61.55C-169.12 -61.81 -169.47 -62.02 -169.86 -62.2C-170.25 -62.37 -170.78 -62.46 -171.45 -62.46C-172.58 -62.46 -173.66 -62.3 -174.7 -61.99C-175.73 -61.68 -176.8 -61.52 -177.89 -61.52L-178.3 -61.52C-178.42 -61.52 -178.54 -61.54 -178.65 -61.58C-179.32 -61.11 -180.03 -60.74 -180.79 -60.47C-181.55 -60.2 -182.32 -60.06 -183.11 -60.06L-183.28 -60.06C-184.22 -59.47 -185.21 -59.03 -186.27 -58.74C-187.32 -58.45 -188.4 -58.19 -189.49 -57.98C-190.59 -57.76 -191.66 -57.52 -192.71 -57.25C-193.77 -56.97 -194.77 -56.58 -195.7 -56.07C-196.13 -56.11 -196.49 -56.09 -196.79 -56.02C-197.08 -55.94 -197.36 -55.84 -197.64 -55.72C-197.91 -55.61 -198.17 -55.47 -198.43 -55.31C-198.68 -55.16 -198.96 -55.06 -199.28 -55.02L-200.51 -54.9C-201.13 -54.75 -201.75 -54.58 -202.35 -54.4C-202.96 -54.23 -203.59 -54.14 -204.26 -54.14C-204.69 -54.14 -205 -54.16 -205.2 -54.2C-205.51 -53.85 -205.93 -53.57 -206.46 -53.38C-206.98 -53.18 -207.55 -53.01 -208.15 -52.85C-208.76 -52.7 -209.36 -52.52 -209.94 -52.32C-210.53 -52.13 -211.04 -51.86 -211.46 -51.5C-211.66 -51.78 -211.95 -51.91 -212.34 -51.91C-212.85 -51.91 -213.37 -51.77 -213.9 -51.47C-214.42 -51.18 -214.96 -51.04 -215.51 -51.04C-216.02 -51.04 -216.41 -51.19 -216.68 -51.5C-216.99 -51.07 -217.42 -50.76 -217.97 -50.57C-218.52 -50.37 -219.04 -50.27 -219.55 -50.27C-219.79 -50.27 -220.02 -50.29 -220.25 -50.33C-220.49 -50.37 -220.7 -50.47 -220.9 -50.62C-220.98 -50.27 -221.17 -50 -221.48 -49.8C-221.8 -49.61 -222.14 -49.46 -222.51 -49.37C-222.88 -49.27 -223.27 -49.17 -223.68 -49.07C-224.09 -48.98 -224.43 -48.85 -224.71 -48.69C-224.94 -48.81 -225.16 -48.87 -225.35 -48.87C-226.02 -48.87 -226.66 -48.75 -227.29 -48.52C-227.91 -48.28 -228.54 -48.16 -229.16 -48.16C-229.36 -48.16 -229.53 -48.17 -229.69 -48.19C-229.84 -48.21 -230.02 -48.24 -230.21 -48.28C-231.07 -47.85 -231.7 -47.19 -232.09 -46.29C-232.48 -45.39 -232.68 -44.45 -232.68 -43.48C-232.68 -42.73 -232.56 -41.95 -232.32 -41.13C-231.54 -40.82 -230.86 -40.49 -230.27 -40.14C-229.69 -39.79 -228.96 -39.57 -228.11 -39.49C-227.99 -40.12 -227.71 -40.53 -227.29 -40.72C-226.07 -40.84 -224.89 -41.09 -223.74 -41.48C-222.59 -41.88 -221.45 -42.29 -220.31 -42.74C-219.18 -43.19 -218.04 -43.61 -216.88 -44C-215.73 -44.39 -214.55 -44.65 -213.34 -44.77C-213.38 -45.16 -213.25 -45.39 -212.96 -45.47C-212.67 -45.55 -212.38 -45.64 -212.11 -45.76C-211.91 -45.72 -211.74 -45.7 -211.58 -45.7L-211 -45.7C-210.18 -45.7 -209.36 -45.82 -208.54 -46.05C-207.71 -46.29 -206.87 -46.43 -206.02 -46.46C-205.82 -46.82 -205.5 -47.08 -205.05 -47.26C-204.6 -47.43 -204.16 -47.52 -203.73 -47.52C-203.42 -47.52 -203.07 -47.44 -202.68 -47.29C-202.56 -46.7 -202.5 -46.13 -202.5 -45.59C-202.5 -44.45 -202.6 -43.33 -202.79 -42.22C-202.99 -41.1 -203.09 -40 -203.09 -38.91C-203.32 -38.52 -203.48 -38.05 -203.55 -37.5C-203.63 -36.95 -203.67 -36.4 -203.67 -35.83C-203.67 -35.26 -203.69 -34.73 -203.73 -34.22C-203.77 -33.71 -203.89 -33.3 -204.08 -32.99C-204.16 -30.72 -204.41 -28.51 -204.84 -26.34C-205.27 -24.17 -205.59 -21.97 -205.78 -19.75C-205.82 -19.43 -205.85 -19.03 -205.87 -18.54C-205.89 -18.06 -205.94 -17.56 -206.02 -17.05C-206.09 -16.54 -206.2 -16.07 -206.34 -15.64C-206.47 -15.21 -206.66 -14.9 -206.89 -14.71C-206.82 -13.42 -206.82 -12.14 -206.89 -10.87C-206.97 -9.6 -207.01 -8.32 -207.01 -7.03C-207.01 -5.66 -206.87 -4.36 -206.6 -3.11L-206.6 -2.87C-206.6 -2.68 -206.69 -2.53 -206.87 -2.43C-207.04 -2.33 -207.11 -2.19 -207.07 -1.99L-207.07 -1.87C-206.87 -1.76 -206.75 -1.58 -206.69 -1.35C-206.63 -1.11 -206.6 -0.9 -206.6 -0.7C-206.6 -0.23 -206.7 0.14 -206.89 0.41C-206.35 0.72 -206.04 1.23 -205.99 1.93C-205.93 2.64 -205.86 3.26 -205.78 3.81C-205.55 4.24 -205.31 4.59 -205.08 4.86C-204.84 5.14 -204.75 5.55 -204.79 6.09C-204.39 6.37 -204.05 6.65 -203.76 6.94C-203.47 7.24 -203.24 7.58 -203.09 7.97C-202.93 8.05 -202.79 8.1 -202.68 8.12C-202.56 8.13 -202.42 8.14 -202.27 8.14C-201.95 8.14 -201.64 8.05 -201.33 7.85C-201.02 7.66 -200.76 7.56 -200.57 7.56C-200.45 7.64 -200.28 7.73 -200.07 7.85C-199.85 7.97 -199.69 8.03 -199.57 8.03C-199.22 8.03 -198.86 7.92 -198.49 7.71C-198.12 7.49 -197.83 7.25 -197.64 6.97C-197.48 6.78 -197.35 6.39 -197.26 5.8C-197.16 5.21 -197.07 4.77 -196.99 4.45C-196.91 4.06 -196.82 3.68 -196.7 3.31C-196.58 2.94 -196.52 2.56 -196.52 2.17L-196.52 1.93C-197.07 1.46 -197.69 1.12 -198.37 0.91C-199.05 0.69 -199.65 0.33 -200.16 -0.18C-200.12 -0.37 -200.09 -0.57 -200.07 -0.76C-200.05 -0.96 -200.04 -1.15 -200.04 -1.35C-200.04 -1.86 -200.21 -2.38 -200.57 -2.93C-200.49 -4.18 -200.54 -5.4 -200.71 -6.59C-200.89 -7.78 -200.98 -9 -200.98 -10.25C-200.98 -10.49 -200.95 -10.71 -200.89 -10.93C-200.83 -11.14 -200.76 -11.37 -200.68 -11.6L-200.16 -15.47C-199.84 -17.77 -199.58 -20.08 -199.37 -22.38C-199.15 -24.69 -198.71 -26.95 -198.05 -29.18C-198.13 -29.49 -198.16 -29.73 -198.16 -29.88C-198.16 -30.12 -198.13 -30.34 -198.05 -30.56C-197.97 -30.77 -197.83 -30.94 -197.64 -31.05L-197.58 -31.17C-197.58 -31.41 -197.66 -31.57 -197.81 -31.67C-197.97 -31.77 -198.05 -31.91 -198.05 -32.11L-198.05 -32.34C-197.66 -34.73 -197.34 -37.15 -197.11 -39.61C-196.87 -42.07 -196.41 -44.49 -195.7 -46.87C-195.78 -47.19 -195.88 -47.52 -196 -47.87C-196.11 -48.22 -196.17 -48.59 -196.17 -48.98C-196.17 -49.06 -196.15 -49.12 -196.11 -49.16C-194.94 -49.79 -193.73 -50.31 -192.48 -50.74C-191.23 -51.17 -189.96 -51.56 -188.67 -51.91C-187.38 -52.27 -186.09 -52.6 -184.8 -52.91C-183.52 -53.22 -182.25 -53.59 -181 -54.02C-180.96 -53.75 -180.79 -53.65 -180.5 -53.73C-180.21 -53.81 -180.02 -53.75 -179.94 -53.55C-179.79 -53.95 -179.52 -54.24 -179.15 -54.43C-178.78 -54.63 -178.37 -54.79 -177.92 -54.9C-177.47 -55.02 -177.04 -55.15 -176.63 -55.28C-176.22 -55.42 -175.86 -55.61 -175.55 -55.84C-175.27 -55.64 -175 -55.55 -174.73 -55.55C-174.34 -55.55 -173.95 -55.64 -173.55 -55.84C-173.16 -56.04 -172.77 -56.19 -172.38 -56.31C-171.91 -56 -171.45 -55.7 -170.98 -55.43C-170.51 -55.16 -170.08 -54.83 -169.69 -54.43C-169.53 -54.75 -169.3 -54.96 -168.98 -55.08C-168.67 -55.2 -168.33 -55.28 -167.96 -55.34C-167.59 -55.4 -167.23 -55.45 -166.87 -55.49C-166.52 -55.53 -166.19 -55.64 -165.88 -55.84Z M-166.87 2.93L-166.87 2.75C-166.87 2.68 -166.89 2.6 -166.93 2.52C-167.17 2.05 -167.52 1.74 -167.99 1.58C-168.46 1.43 -168.96 1.33 -169.51 1.29C-170.06 1.25 -170.61 1.23 -171.15 1.23C-171.7 1.23 -172.17 1.17 -172.56 1.05C-173.11 0.27 -173.5 -0.6 -173.73 -1.55C-173.96 -2.51 -174.08 -3.46 -174.08 -4.39C-174.08 -5.06 -174.04 -5.83 -173.96 -6.71C-173.89 -7.59 -173.78 -8.49 -173.64 -9.4C-173.51 -10.32 -173.35 -11.21 -173.17 -12.07C-173 -12.93 -172.79 -13.67 -172.56 -14.3C-172.71 -14.65 -172.79 -15.06 -172.79 -15.53C-172.79 -16.5 -172.62 -17.43 -172.27 -18.31C-171.91 -19.19 -171.74 -20.08 -171.74 -20.98C-171.74 -21.33 -171.75 -21.65 -171.77 -21.94C-171.79 -22.24 -171.78 -22.54 -171.74 -22.85C-171.62 -24.41 -171.4 -25.96 -171.06 -27.48C-170.73 -29 -170.53 -30.57 -170.45 -32.17C-170.37 -34.04 -170.24 -35.89 -170.07 -37.71C-169.89 -39.52 -169.8 -41.37 -169.8 -43.24C-169.8 -43.95 -169.81 -44.65 -169.83 -45.35C-169.85 -46.05 -169.86 -46.76 -169.86 -47.46C-169.86 -47.97 -169.84 -48.47 -169.8 -48.96C-169.77 -49.44 -169.75 -49.94 -169.75 -50.45C-169.75 -51 -169.79 -51.53 -169.89 -52.06C-169.99 -52.59 -170.18 -53.09 -170.45 -53.55C-170.41 -53.63 -170.39 -53.71 -170.39 -53.79L-170.39 -54.02C-170.39 -54.22 -170.41 -54.39 -170.45 -54.55C-170.49 -54.71 -170.51 -54.88 -170.51 -55.08C-170.51 -55.23 -170.49 -55.35 -170.45 -55.43C-171.07 -55.9 -171.82 -56.13 -172.68 -56.13C-173.85 -56.13 -174.86 -55.84 -175.72 -55.25C-175.92 -54.94 -176.04 -54.6 -176.07 -54.23C-176.11 -53.86 -176.13 -53.48 -176.13 -53.09C-176.13 -52.23 -176.06 -51.38 -175.93 -50.54C-175.79 -49.7 -175.72 -48.83 -175.72 -47.93C-175.72 -46.25 -175.81 -44.59 -175.99 -42.95C-176.16 -41.31 -176.25 -39.63 -176.25 -37.91C-176.25 -37.64 -176.23 -37.37 -176.19 -37.12C-176.15 -36.87 -176.15 -36.62 -176.19 -36.39C-176.23 -35.64 -176.33 -34.93 -176.48 -34.25C-176.64 -33.56 -176.72 -32.87 -176.72 -32.17C-176.72 -31.93 -176.71 -31.68 -176.69 -31.41C-176.67 -31.13 -176.64 -30.88 -176.6 -30.64C-176.95 -29.32 -177.22 -27.96 -177.39 -26.57C-177.57 -25.19 -177.72 -23.8 -177.86 -22.41C-178 -21.03 -178.18 -19.65 -178.42 -18.28C-178.65 -16.91 -179.02 -15.59 -179.53 -14.3C-179.41 -14.22 -179.35 -14.12 -179.33 -14C-179.31 -13.89 -179.3 -13.77 -179.3 -13.65C-179.3 -13.46 -179.31 -13.29 -179.33 -13.15C-179.35 -13.02 -179.36 -12.85 -179.36 -12.66L-179.36 -12.36C-179.67 -11.19 -179.9 -9.98 -180.06 -8.73C-180.21 -7.48 -180.29 -6.23 -180.29 -4.98C-180.29 -4.24 -180.24 -3.37 -180.15 -2.37C-180.05 -1.38 -179.89 -0.37 -179.68 0.64C-179.46 1.66 -179.17 2.62 -178.8 3.52C-178.43 4.41 -177.97 5.14 -177.42 5.68C-177.11 6.04 -176.61 6.23 -175.93 6.27C-175.24 6.31 -174.69 6.41 -174.26 6.56C-173.95 6.64 -173.63 6.79 -173.32 7C-173.01 7.22 -172.7 7.34 -172.38 7.38C-172.15 7.15 -171.93 7.01 -171.74 6.97C-171.19 6.78 -170.67 6.65 -170.19 6.59C-169.7 6.53 -169.18 6.37 -168.63 6.09C-168.32 5.63 -167.95 5.14 -167.52 4.63C-167.09 4.12 -166.87 3.55 -166.87 2.93Z M-99.49 15.18C-99.49 14.47 -99.75 13.94 -100.25 13.56C-100.76 13.19 -101.36 12.89 -102.04 12.66C-102.72 12.42 -103.4 12.19 -104.06 11.95C-104.73 11.72 -105.21 11.39 -105.53 10.96C-105.53 10.49 -105.6 10.1 -105.73 9.79C-105.87 9.47 -106.04 9.19 -106.23 8.94C-106.43 8.68 -106.62 8.42 -106.82 8.14C-107.01 7.87 -107.15 7.54 -107.23 7.15C-107.07 6.99 -106.99 6.76 -106.99 6.45C-106.99 6.29 -107.01 6.17 -107.05 6.09C-107.56 5.59 -107.9 4.95 -108.08 4.19C-108.25 3.43 -108.38 2.64 -108.46 1.82L-108.69 -0.64C-108.77 -1.46 -108.93 -2.23 -109.16 -2.93C-108.69 -4.41 -108.5 -5.95 -108.57 -7.53C-108.65 -9.11 -108.63 -10.66 -108.52 -12.19C-108.4 -13.32 -108.2 -14.42 -107.93 -15.5C-107.66 -16.57 -107.36 -17.62 -107.05 -18.63C-107.21 -18.79 -107.29 -19 -107.29 -19.28C-107.29 -19.47 -107.28 -19.64 -107.26 -19.78C-107.24 -19.91 -107.23 -20.08 -107.23 -20.27L-107.23 -20.57C-106.68 -22.21 -106.41 -23.81 -106.41 -25.37L-106.41 -26.02C-106.17 -26.48 -106.02 -27.01 -105.94 -27.6L-105.64 -29.41C-105.53 -30.04 -105.41 -30.63 -105.29 -31.17C-105.18 -31.72 -104.98 -32.19 -104.71 -32.58C-104.9 -32.7 -105.02 -32.88 -105.06 -33.13C-105.1 -33.39 -105.12 -33.63 -105.12 -33.87C-105.12 -34.1 -105.08 -34.38 -105 -34.72C-104.92 -35.05 -104.84 -35.35 -104.77 -35.62L-104.24 -38.96C-103.96 -40.64 -103.76 -42.32 -103.62 -44C-103.49 -45.68 -103.36 -47.4 -103.24 -49.16C-102.85 -49.79 -102.58 -50.45 -102.42 -51.15C-102.27 -51.86 -102.13 -52.58 -102.01 -53.32C-101.89 -54.06 -101.77 -54.79 -101.63 -55.52C-101.49 -56.24 -101.27 -56.91 -100.96 -57.54C-101 -58.52 -100.94 -59.48 -100.78 -60.44C-100.63 -61.4 -100.55 -62.32 -100.55 -63.22C-100.55 -63.89 -100.61 -64.54 -100.72 -65.19C-100.84 -65.83 -101.05 -66.45 -101.37 -67.03C-101.84 -66.95 -102.22 -67 -102.51 -67.18C-102.8 -67.35 -103.08 -67.59 -103.33 -67.88C-103.58 -68.17 -103.85 -68.46 -104.12 -68.73C-104.39 -69 -104.73 -69.2 -105.12 -69.32C-105.74 -69.16 -106.21 -68.84 -106.52 -68.35C-106.84 -67.86 -106.99 -67.34 -106.99 -66.8C-106.99 -66.37 -106.93 -66.02 -106.82 -65.74C-106.89 -65.47 -106.98 -65.21 -107.08 -64.95C-107.18 -64.7 -107.23 -64.42 -107.23 -64.1C-107.23 -63.87 -107.17 -63.63 -107.05 -63.4C-107.36 -63.2 -107.63 -62.88 -107.84 -62.43C-108.06 -61.98 -108.2 -61.54 -108.28 -61.11C-108.71 -59.63 -109.07 -58.11 -109.37 -56.54C-109.66 -54.98 -110.16 -53.5 -110.86 -52.09L-110.86 -50.62C-111.52 -49.57 -112.02 -48.46 -112.35 -47.29C-112.69 -46.11 -113.05 -44.92 -113.44 -43.71C-113.55 -43.28 -113.69 -42.89 -113.85 -42.54C-114 -42.19 -114.18 -41.82 -114.37 -41.43C-114.45 -41.11 -114.49 -40.94 -114.49 -40.9C-114.49 -40.78 -114.47 -40.65 -114.43 -40.52C-114.39 -40.38 -114.37 -40.25 -114.37 -40.14C-115.23 -38.65 -116.05 -37.19 -116.84 -35.74C-117.62 -34.3 -118.28 -32.73 -118.83 -31.05C-119.26 -30.78 -119.6 -30.43 -119.85 -30C-120.11 -29.57 -120.33 -29.11 -120.53 -28.62C-120.72 -28.13 -120.94 -27.66 -121.17 -27.19C-121.41 -26.72 -121.74 -26.33 -122.17 -26.02C-122.17 -25.74 -122.24 -25.5 -122.37 -25.28C-122.51 -25.07 -122.58 -24.8 -122.58 -24.49L-122.58 -24.37C-123.05 -24.26 -123.42 -24.02 -123.69 -23.67C-123.96 -23.32 -124.24 -22.95 -124.51 -22.56C-124.79 -22.17 -125.07 -21.83 -125.36 -21.53C-125.65 -21.24 -126.05 -21.09 -126.56 -21.09C-127.03 -21.09 -127.44 -21.21 -127.79 -21.45C-127.95 -21.6 -128.03 -21.87 -128.03 -22.27L-128.03 -22.68C-128.5 -22.6 -128.84 -22.64 -129.05 -22.79C-129.27 -22.95 -129.55 -23.05 -129.9 -23.09C-131.23 -25.04 -132.36 -27.07 -133.3 -29.18C-134.24 -31.29 -135 -33.46 -135.59 -35.68C-135.9 -36.07 -136.19 -36.42 -136.46 -36.71C-136.74 -37 -136.95 -37.36 -137.11 -37.79C-137.03 -38.03 -136.94 -38.19 -136.85 -38.29C-136.75 -38.39 -136.7 -38.59 -136.7 -38.91C-136.7 -39.26 -136.79 -39.71 -136.96 -40.25C-137.14 -40.8 -137.34 -41.4 -137.58 -42.04C-137.81 -42.69 -138.03 -43.36 -138.22 -44.06C-138.42 -44.77 -138.54 -45.47 -138.57 -46.17C-138.85 -46.56 -139.06 -47.1 -139.22 -47.78C-139.37 -48.47 -139.49 -49.19 -139.57 -49.95C-139.65 -50.71 -139.73 -51.46 -139.8 -52.18C-139.88 -52.9 -139.96 -53.52 -140.04 -54.02C-140.39 -54.53 -140.66 -55.1 -140.86 -55.72C-141.05 -56.35 -141.21 -56.95 -141.33 -57.54C-141.91 -57.89 -142.55 -58.06 -143.23 -58.04C-143.92 -58.02 -144.59 -58.12 -145.25 -58.36C-145.37 -58.16 -145.61 -58.01 -145.96 -57.89C-146.31 -57.77 -146.6 -57.71 -146.84 -57.71C-147.34 -57.71 -147.66 -57.93 -147.77 -58.36C-148.4 -58.09 -148.9 -57.71 -149.27 -57.22C-149.64 -56.73 -149.98 -56.21 -150.29 -55.66C-150.25 -55.47 -150.18 -55.32 -150.06 -55.22C-149.94 -55.13 -149.82 -55 -149.71 -54.84C-149.79 -53.91 -149.81 -52.97 -149.79 -52.03C-149.78 -51.09 -149.8 -50.18 -149.88 -49.28C-149.92 -48.96 -149.95 -48.66 -149.97 -48.37C-149.99 -48.08 -150.04 -47.79 -150.12 -47.52L-150.23 -47.17C-150.27 -47.05 -150.29 -46.95 -150.29 -46.87C-150.37 -46.72 -150.39 -46.55 -150.35 -46.38C-150.31 -46.2 -150.29 -46.04 -150.29 -45.88C-150.29 -45.64 -150.28 -45.39 -150.26 -45.12C-150.24 -44.84 -150.2 -44.59 -150.12 -44.36C-150.39 -43.42 -150.57 -42.43 -150.64 -41.4C-150.72 -40.36 -150.81 -39.34 -150.91 -38.32C-151.01 -37.3 -151.16 -36.31 -151.38 -35.33C-151.59 -34.36 -151.93 -33.44 -152.4 -32.58C-152.13 -32.46 -151.99 -32.27 -151.99 -31.99C-151.99 -31.8 -152.02 -31.61 -152.08 -31.44C-152.14 -31.26 -152.17 -31.07 -152.17 -30.88C-152.17 -30.72 -152.11 -30.57 -151.99 -30.41C-152.11 -30.33 -152.2 -30.24 -152.26 -30.15C-152.31 -30.05 -152.42 -30 -152.58 -30C-152.7 -30 -152.77 -30.02 -152.81 -30.06C-152.7 -29.82 -152.64 -29.57 -152.64 -29.3C-152.64 -28.95 -152.73 -28.58 -152.93 -28.21C-153.12 -27.84 -153.22 -27.6 -153.22 -27.48L-153.22 -27.3C-153.22 -26.21 -153.34 -25.13 -153.57 -24.05C-153.81 -22.98 -154.02 -21.91 -154.22 -20.86C-154.3 -20.31 -154.35 -19.78 -154.37 -19.25C-154.38 -18.72 -154.43 -18.18 -154.51 -17.64C-154.55 -17.32 -154.7 -17.18 -154.95 -17.2C-155.21 -17.22 -155.33 -17.09 -155.33 -16.82L-155.33 -15.88C-155.33 -15.18 -155.41 -14.47 -155.57 -13.77C-155.72 -13.07 -155.9 -12.38 -156.09 -11.72C-156.29 -11.05 -156.46 -10.37 -156.62 -9.67C-156.78 -8.96 -156.86 -8.26 -156.86 -7.56L-156.86 -7.15C-157.05 -6.95 -157.15 -6.7 -157.15 -6.39C-157.15 -6.07 -157.25 -5.82 -157.44 -5.62C-157.52 -4.34 -157.66 -3.06 -157.85 -1.79C-158.05 -0.52 -158.14 0.76 -158.14 2.05C-158.14 2.32 -158.13 2.58 -158.12 2.81C-158.1 3.05 -158.09 3.3 -158.09 3.57C-158.09 3.93 -158.01 4.12 -157.85 4.16C-157.7 4.2 -157.62 4.32 -157.62 4.51C-157.62 4.67 -157.64 4.81 -157.68 4.95C-157.71 5.09 -157.73 5.23 -157.73 5.39C-157.73 6.05 -157.65 6.69 -157.47 7.29C-157.29 7.9 -157.08 8.5 -156.83 9.08C-156.57 9.67 -156.31 10.25 -156.04 10.84C-155.76 11.43 -155.53 12.03 -155.33 12.66L-154.39 12.66C-152.83 12.66 -151.6 12.34 -150.7 11.72C-149.8 11.09 -148.96 10.14 -148.18 8.85C-148.26 8.5 -148.37 8.17 -148.51 7.88C-148.64 7.59 -148.71 7.27 -148.71 6.91C-148.71 6.68 -148.69 6.48 -148.65 6.33C-149.08 6.37 -149.37 6.23 -149.5 5.92C-149.64 5.61 -149.71 5.25 -149.71 4.86L-149.71 4.63L-151.17 4.63C-151.52 3.73 -151.84 2.92 -152.11 2.2C-152.38 1.47 -152.56 0.61 -152.64 -0.41C-152.25 -0.72 -152.01 -1.08 -151.93 -1.49C-151.86 -1.9 -151.82 -2.34 -151.82 -2.81C-151.82 -3.09 -151.83 -3.39 -151.85 -3.72C-151.87 -4.05 -151.86 -4.36 -151.82 -4.63C-151.74 -4.94 -151.59 -5.21 -151.38 -5.45C-151.16 -5.68 -151.04 -5.98 -151 -6.33C-150.92 -6.95 -150.84 -7.57 -150.76 -8.17C-150.68 -8.78 -150.59 -9.39 -150.47 -10.02C-150.27 -11.15 -150.04 -12.26 -149.77 -13.33C-149.49 -14.4 -149.26 -15.49 -149.06 -16.58C-148.91 -17.32 -148.81 -18.11 -148.77 -18.93C-148.73 -19.75 -148.4 -20.43 -147.77 -20.98C-147.77 -21.05 -147.78 -21.16 -147.8 -21.3C-147.82 -21.44 -147.83 -21.54 -147.83 -21.62C-147.83 -22.99 -147.68 -24.33 -147.36 -25.63C-147.05 -26.94 -146.78 -28.24 -146.54 -29.53C-146.39 -30.39 -146.27 -31.29 -146.19 -32.23C-146.15 -32.42 -146.14 -32.62 -146.16 -32.81C-146.18 -33.01 -146.17 -33.2 -146.13 -33.4C-146.09 -33.63 -145.97 -33.79 -145.75 -33.87C-145.54 -33.94 -145.37 -34.08 -145.25 -34.28C-145.33 -34.59 -145.37 -34.9 -145.37 -35.21L-145.37 -36.21C-145.37 -37.27 -145.29 -38.31 -145.14 -39.35C-144.98 -40.38 -144.75 -41.41 -144.43 -42.42C-144 -41.05 -143.53 -39.64 -143 -38.17C-142.47 -36.71 -142.19 -35.27 -142.15 -33.87C-141.95 -33.83 -141.81 -33.72 -141.71 -33.54C-141.61 -33.37 -141.55 -33.17 -141.53 -32.96C-141.51 -32.74 -141.5 -32.52 -141.5 -32.29L-141.5 -31.76C-141.11 -31.41 -140.84 -31 -140.68 -30.53C-140.53 -30.06 -140.31 -29.61 -140.04 -29.18C-140.08 -28.87 -140.05 -28.58 -139.95 -28.33C-139.85 -28.08 -139.8 -27.79 -139.8 -27.48L-139.8 -27.07C-139.8 -26.8 -139.7 -26.68 -139.48 -26.72C-139.27 -26.76 -139.16 -26.66 -139.16 -26.43C-139.16 -26.35 -139.18 -26.27 -139.22 -26.19C-139.02 -25.18 -138.74 -24.26 -138.37 -23.44C-138 -22.62 -137.57 -21.85 -137.08 -21.12C-136.59 -20.4 -136.08 -19.67 -135.56 -18.93C-135.03 -18.18 -134.49 -17.4 -133.95 -16.58C-133.12 -16.5 -132.51 -16.24 -132.1 -15.79C-131.69 -15.34 -131.17 -14.9 -130.55 -14.47C-129.96 -14.43 -129.38 -14.21 -128.82 -13.8C-128.25 -13.39 -127.77 -13.18 -127.38 -13.18C-127.23 -13.18 -126.9 -13.33 -126.42 -13.62C-125.93 -13.92 -125.43 -14.06 -124.92 -14.06C-124.65 -14.06 -124.36 -14 -124.04 -13.89C-122.32 -14.9 -120.93 -16.25 -119.85 -17.93C-118.78 -19.61 -117.79 -21.33 -116.89 -23.09C-116.7 -23.01 -116.57 -23.07 -116.51 -23.26C-116.46 -23.46 -116.35 -23.55 -116.19 -23.55C-116.11 -23.55 -116.05 -23.54 -116.02 -23.53C-115.98 -23.51 -115.94 -23.5 -115.9 -23.5C-115.9 -23.96 -115.79 -24.39 -115.58 -24.79C-115.36 -25.18 -115.23 -25.59 -115.2 -26.02C-114.73 -26.48 -114.35 -27.02 -114.05 -27.63C-113.76 -28.23 -113.49 -28.85 -113.23 -29.47C-112.98 -30.1 -112.71 -30.72 -112.41 -31.35C-112.12 -31.97 -111.74 -32.52 -111.27 -32.99C-111.23 -32.68 -111.32 -32.46 -111.53 -32.34C-111.75 -32.23 -111.86 -32.07 -111.86 -31.87C-111.86 -31.8 -111.84 -31.74 -111.8 -31.7C-111.76 -31.66 -111.72 -31.6 -111.68 -31.52C-111.87 -29.69 -112.08 -27.88 -112.29 -26.1C-112.51 -24.33 -112.87 -22.54 -113.38 -20.74C-113.22 -20.43 -113.14 -20.04 -113.14 -19.57C-113.14 -18.91 -113.23 -18.25 -113.41 -17.61C-113.58 -16.96 -113.77 -16.33 -113.96 -15.7C-113.93 -15.51 -113.9 -15.31 -113.88 -15.12C-113.86 -14.92 -113.85 -14.73 -113.85 -14.53C-113.85 -13.67 -113.96 -12.83 -114.17 -12.01C-114.38 -11.19 -114.49 -10.35 -114.49 -9.49C-114.49 -8.87 -114.39 -8.22 -114.2 -7.56C-114.43 -7.36 -114.53 -7.04 -114.49 -6.59C-114.45 -6.14 -114.55 -5.82 -114.79 -5.62C-114.63 -5.12 -114.55 -4.47 -114.55 -3.69C-114.55 -3.34 -114.58 -2.96 -114.64 -2.55C-114.7 -2.14 -114.82 -1.78 -115.02 -1.46C-114.82 -1.43 -114.7 -1.32 -114.64 -1.14C-114.58 -0.97 -114.55 -0.8 -114.55 -0.64C-114.55 -0.45 -114.57 -0.23 -114.61 0C-114.65 0.23 -114.71 0.45 -114.79 0.64C-114.51 2.71 -114.1 4.75 -113.55 6.74C-113.01 8.73 -112.38 10.7 -111.68 12.66C-111.21 12.93 -110.82 13.26 -110.51 13.65C-110.2 14.04 -109.88 14.44 -109.57 14.85C-109.26 15.26 -108.93 15.65 -108.57 16.03C-108.22 16.4 -107.77 16.68 -107.23 16.88C-106.87 16.72 -106.39 16.64 -105.76 16.64L-105.35 16.64C-105 16.95 -104.6 17.15 -104.15 17.23C-103.7 17.3 -103.26 17.46 -102.83 17.7C-102.56 17.58 -102.24 17.44 -101.87 17.29C-101.49 17.13 -101.13 16.96 -100.78 16.79C-100.43 16.61 -100.13 16.39 -99.87 16.11C-99.62 15.84 -99.49 15.53 -99.49 15.18Z M-32.58 -64.04C-32.58 -64.24 -32.59 -64.45 -32.61 -64.69C-32.63 -64.92 -32.66 -65.14 -32.7 -65.33C-33.36 -65.29 -33.79 -65.49 -33.98 -65.92C-34.18 -66.35 -34.39 -66.78 -34.63 -67.21C-35.06 -67.21 -35.48 -67.26 -35.89 -67.35C-36.3 -67.45 -36.72 -67.54 -37.15 -67.62C-38.28 -66.8 -39.46 -66.14 -40.69 -65.65C-41.92 -65.17 -43.26 -64.84 -44.71 -64.69C-44.71 -64.41 -44.79 -64.22 -44.97 -64.1C-45.15 -63.98 -45.33 -63.83 -45.53 -63.63C-45.61 -63.67 -45.67 -63.71 -45.73 -63.75C-45.79 -63.79 -45.86 -63.81 -45.94 -63.81C-46.21 -63.81 -46.46 -63.7 -46.7 -63.49C-46.93 -63.27 -47.17 -63.11 -47.4 -62.99C-47.6 -63.14 -47.85 -63.22 -48.16 -63.22C-48.52 -63.22 -48.87 -63.14 -49.22 -62.99C-49.57 -62.83 -49.92 -62.66 -50.27 -62.46C-50.62 -62.27 -50.99 -62.09 -51.36 -61.93C-51.73 -61.78 -52.09 -61.7 -52.44 -61.7C-52.71 -61.7 -52.93 -61.72 -53.09 -61.76C-53.24 -61.56 -53.33 -61.33 -53.35 -61.05C-53.37 -60.78 -53.5 -60.59 -53.73 -60.47C-53.73 -60.55 -53.75 -60.64 -53.79 -60.76C-53.83 -60.88 -53.91 -60.94 -54.02 -60.94C-54.1 -60.94 -54.14 -60.92 -54.14 -60.88C-55.27 -60.33 -56.3 -59.85 -57.22 -59.44C-58.13 -59.03 -59.22 -58.67 -60.47 -58.36C-60.43 -58.2 -60.43 -58.03 -60.47 -57.83C-60.51 -57.64 -60.66 -57.54 -60.94 -57.54C-61.02 -57.54 -61.11 -57.55 -61.23 -57.57C-61.35 -57.59 -61.45 -57.6 -61.52 -57.6C-61.99 -57.6 -62.43 -57.52 -62.84 -57.36C-63.25 -57.21 -63.63 -57.04 -63.98 -56.87C-64.34 -56.69 -64.7 -56.52 -65.07 -56.37C-65.44 -56.21 -65.82 -56.13 -66.21 -56.13C-66.48 -56.13 -66.74 -56.19 -66.97 -56.31C-67.44 -55.96 -67.94 -55.67 -68.47 -55.46C-68.99 -55.24 -69.53 -55.04 -70.08 -54.84C-70.63 -54.65 -71.15 -54.44 -71.66 -54.23C-72.17 -54.01 -72.64 -53.71 -73.07 -53.32L-73.3 -53.32C-73.46 -53.32 -73.58 -53.36 -73.68 -53.44C-73.78 -53.52 -73.89 -53.55 -74 -53.55L-74.12 -53.55C-74.32 -53.01 -74.66 -52.58 -75.15 -52.27C-75.63 -51.95 -76.17 -51.8 -76.76 -51.8C-77.11 -51.8 -77.48 -51.89 -77.87 -52.09C-77.79 -52.71 -77.79 -53.31 -77.87 -53.88C-77.95 -54.44 -78.03 -55.04 -78.11 -55.66C-77.91 -55.98 -77.68 -56.23 -77.4 -56.43C-77.13 -56.62 -76.95 -56.93 -76.87 -57.36C-77.15 -57.95 -77.43 -58.54 -77.72 -59.12C-78.02 -59.71 -78.36 -60.23 -78.75 -60.7C-79.14 -61.17 -79.6 -61.55 -80.13 -61.85C-80.65 -62.14 -81.29 -62.29 -82.03 -62.29C-82.54 -62.29 -82.93 -62.23 -83.2 -62.11C-83.48 -61.99 -83.7 -61.86 -83.88 -61.7C-84.05 -61.54 -84.24 -61.38 -84.43 -61.2C-84.63 -61.03 -84.9 -60.86 -85.25 -60.7C-85.18 -60.27 -85.11 -59.83 -85.05 -59.38C-84.99 -58.94 -84.96 -58.48 -84.96 -58.01C-84.96 -57.58 -85.01 -57.17 -85.11 -56.78C-85.2 -56.39 -85.39 -56.02 -85.66 -55.66C-85.59 -55.43 -85.54 -55.2 -85.52 -54.96C-85.5 -54.73 -85.49 -54.49 -85.49 -54.26C-85.49 -53.13 -85.64 -51.99 -85.96 -50.86C-86.27 -49.73 -86.46 -48.59 -86.54 -47.46C-87.21 -47.38 -87.81 -47.19 -88.36 -46.87C-88.91 -46.56 -89.44 -46.2 -89.97 -45.79C-90.5 -45.38 -91.02 -44.98 -91.52 -44.59C-92.03 -44.2 -92.6 -43.89 -93.22 -43.65C-93.54 -42.91 -93.69 -42.17 -93.69 -41.43C-93.69 -40.18 -93.13 -39.1 -91.99 -38.2L-91.87 -38.2C-91.09 -38.2 -90.33 -38.32 -89.59 -38.55C-88.85 -38.79 -88.09 -38.91 -87.3 -38.91L-86.95 -38.91C-87.27 -37.46 -87.5 -36 -87.66 -34.51L-88.12 -30.12C-88.28 -28.67 -88.49 -27.24 -88.74 -25.81C-88.99 -24.38 -89.37 -22.99 -89.88 -21.62C-90.9 -21.5 -91.86 -21.1 -92.75 -20.42C-93.65 -19.74 -94.1 -18.83 -94.1 -17.7C-94.1 -17.38 -94.04 -17.01 -93.93 -16.58C-93.81 -16.15 -93.65 -15.8 -93.46 -15.53C-93.22 -15.21 -92.8 -14.97 -92.2 -14.79C-91.59 -14.62 -91.09 -14.37 -90.7 -14.06C-91.05 -12.3 -91.33 -10.56 -91.52 -8.82C-91.72 -7.08 -91.95 -5.31 -92.23 -3.52C-92.27 -3.36 -92.32 -3.07 -92.4 -2.64C-92.48 -2.21 -92.57 -1.76 -92.67 -1.29C-92.76 -0.82 -92.84 -0.4 -92.9 -0.03C-92.96 0.34 -92.99 0.57 -92.99 0.64C-92.99 0.96 -92.92 1.18 -92.78 1.32C-92.65 1.46 -92.58 1.66 -92.58 1.93C-93.16 2.32 -93.46 2.91 -93.46 3.69C-93.46 4.08 -93.41 4.46 -93.31 4.83C-93.21 5.21 -93.11 5.55 -92.99 5.86C-93.11 6.02 -93.21 6.18 -93.31 6.36C-93.41 6.53 -93.54 6.66 -93.69 6.74C-93.5 7.64 -93.31 8.55 -93.13 9.49C-92.96 10.43 -92.81 11.35 -92.7 12.25C-92.62 12.68 -92.57 13.13 -92.55 13.62C-92.53 14.11 -92.48 14.55 -92.4 14.94C-92.32 15.18 -92.2 15.27 -92.02 15.23C-91.85 15.2 -91.76 15.31 -91.76 15.59C-91.76 15.74 -91.79 15.91 -91.85 16.08C-91.9 16.26 -91.93 16.45 -91.93 16.64C-91.93 17.42 -91.75 18.23 -91.38 19.07C-91.01 19.91 -90.7 20.72 -90.47 21.5C-90.08 21.89 -89.66 22.3 -89.21 22.73C-88.76 23.16 -88.27 23.56 -87.74 23.94C-87.22 24.31 -86.67 24.61 -86.1 24.84C-85.54 25.08 -84.94 25.2 -84.32 25.2C-83.42 25.2 -82.54 25.08 -81.68 24.84C-80.82 24.61 -79.98 24.39 -79.16 24.2C-78.93 23.89 -78.72 23.63 -78.54 23.44C-78.37 23.24 -78.07 23.14 -77.64 23.14L-77.46 23.14C-77.23 22.68 -76.87 22.32 -76.41 22.09C-75.94 21.86 -75.45 21.66 -74.94 21.5C-74.2 20.68 -73.4 19.91 -72.54 19.19C-71.68 18.47 -70.82 17.75 -69.96 17.05C-69.1 16.35 -68.26 15.64 -67.44 14.94C-66.62 14.24 -65.84 13.48 -65.1 12.66C-64.71 12.73 -64.48 12.68 -64.42 12.48C-64.37 12.29 -64.2 12.19 -63.93 12.19L-63.87 12.25C-63.16 11.43 -62.47 10.66 -61.79 9.96C-61.1 9.26 -60.23 8.73 -59.18 8.38C-59.1 8.14 -58.98 7.93 -58.83 7.73C-58.67 7.54 -58.5 7.34 -58.3 7.15C-57.64 6.76 -56.94 6.39 -56.22 6.04C-55.5 5.68 -54.75 5.35 -53.96 5.04C-53.73 4.53 -53.42 4.11 -53.03 3.78C-52.64 3.45 -52.23 3.16 -51.8 2.93C-51.37 2.7 -50.92 2.47 -50.45 2.26C-49.98 2.04 -49.53 1.8 -49.1 1.52C-48.95 1.41 -48.77 1.25 -48.57 1.05L-47.99 0.47C-47.79 0.27 -47.61 0.11 -47.43 -0.03C-47.26 -0.17 -47.07 -0.23 -46.87 -0.23C-46.8 -0.23 -46.75 -0.22 -46.73 -0.21C-46.71 -0.19 -46.66 -0.18 -46.58 -0.18C-46.74 -1 -46.83 -1.83 -46.87 -2.67C-46.91 -3.51 -47.17 -4.3 -47.64 -5.04C-47.79 -4.96 -47.96 -4.91 -48.13 -4.89C-48.31 -4.87 -48.5 -4.86 -48.69 -4.86C-49.32 -4.86 -49.94 -4.9 -50.57 -4.98L-52.44 -5.21C-52.56 -4.79 -52.71 -4.38 -52.91 -4.01C-53.11 -3.64 -53.32 -3.28 -53.55 -2.93C-53.98 -3.01 -54.26 -2.95 -54.37 -2.75C-54.49 -2.56 -54.71 -2.46 -55.02 -2.46C-55.1 -2.46 -55.16 -2.48 -55.2 -2.52C-56.13 -1.46 -57.17 -0.54 -58.3 0.26C-59.43 1.06 -60.57 1.88 -61.7 2.7C-62.05 2.97 -62.41 3.25 -62.78 3.54C-63.15 3.84 -63.5 4.14 -63.81 4.45L-64.69 5.27C-64.84 5.43 -65.08 5.51 -65.39 5.51C-65.51 5.51 -65.61 5.49 -65.68 5.45C-65.84 6.07 -66.13 6.54 -66.56 6.86C-66.99 7.17 -67.27 7.62 -67.38 8.2C-67.85 8.28 -68.24 8.43 -68.55 8.64C-68.87 8.86 -69.14 9.12 -69.37 9.43C-69.61 9.75 -69.82 10.08 -70.02 10.43C-70.21 10.78 -70.45 11.11 -70.72 11.43L-71.84 11.43C-72.85 12.13 -73.8 12.94 -74.68 13.86C-75.56 14.78 -76.46 15.63 -77.4 16.44C-78.34 17.24 -79.35 17.91 -80.42 18.46C-81.49 19 -82.73 19.28 -84.14 19.28C-84.37 19.28 -84.6 19.27 -84.81 19.25C-85.03 19.23 -85.23 19.2 -85.43 19.16C-85.66 18.34 -86.06 17.61 -86.63 16.96C-87.2 16.32 -87.58 15.59 -87.77 14.77C-87.97 14.1 -88.11 13.4 -88.18 12.66C-88.26 11.91 -88.34 11.18 -88.42 10.46C-88.5 9.74 -88.59 9.02 -88.71 8.32C-88.83 7.62 -89 6.95 -89.24 6.33C-88.77 4.65 -88.46 2.8 -88.3 0.79C-88.14 -1.22 -87.98 -3.24 -87.8 -5.27C-87.63 -7.3 -87.34 -9.26 -86.95 -11.13C-86.56 -13.01 -85.86 -14.67 -84.84 -16.11C-84.34 -16.23 -83.87 -16.43 -83.44 -16.7L-82.15 -17.52C-81.72 -17.79 -81.29 -18.04 -80.86 -18.25C-80.43 -18.47 -79.94 -18.57 -79.39 -18.57C-79.16 -18.57 -78.89 -18.54 -78.57 -18.46C-78.22 -19.04 -77.65 -19.44 -76.85 -19.66C-76.05 -19.87 -75.33 -19.98 -74.71 -19.98L-74.36 -19.98C-74.2 -19.98 -74.06 -19.96 -73.95 -19.92C-73.75 -20.31 -73.47 -20.59 -73.1 -20.74C-72.72 -20.9 -72.33 -21.03 -71.92 -21.12C-71.51 -21.22 -71.12 -21.35 -70.75 -21.5C-70.38 -21.66 -70.1 -21.91 -69.9 -22.27C-69.79 -22.23 -69.57 -22.21 -69.26 -22.21C-68.48 -22.21 -67.77 -22.38 -67.15 -22.73C-66.52 -23.09 -65.88 -23.26 -65.21 -23.26C-64.94 -23.26 -64.69 -23.2 -64.45 -23.09C-64.34 -23.36 -64.16 -23.56 -63.93 -23.7C-63.69 -23.84 -63.44 -23.95 -63.16 -24.02L-62.29 -24.32C-61.97 -24.43 -61.72 -24.59 -61.52 -24.79C-60.2 -24.9 -58.9 -25.19 -57.63 -25.63C-56.36 -26.08 -55.11 -26.56 -53.88 -27.07C-52.65 -27.58 -51.4 -28.03 -50.13 -28.42C-48.86 -28.81 -47.54 -29 -46.17 -29C-46.13 -29.28 -46.04 -29.49 -45.88 -29.65C-45.72 -29.8 -45.55 -29.96 -45.35 -30.12C-45.16 -30.27 -44.98 -30.44 -44.82 -30.62C-44.67 -30.79 -44.55 -31.04 -44.47 -31.35C-44.71 -31.74 -44.9 -32.15 -45.06 -32.58C-45.21 -33.01 -45.41 -33.42 -45.64 -33.81C-45.88 -34.2 -46.16 -34.53 -46.49 -34.8C-46.83 -35.08 -47.27 -35.23 -47.81 -35.27C-48.16 -34.96 -48.56 -34.74 -49.01 -34.6C-49.46 -34.46 -49.92 -34.36 -50.39 -34.28C-50.86 -34.2 -51.33 -34.1 -51.8 -33.98C-52.27 -33.87 -52.7 -33.67 -53.09 -33.4C-53.28 -33.4 -53.45 -33.41 -53.58 -33.43C-53.72 -33.45 -53.87 -33.46 -54.02 -33.46C-54.34 -33.46 -54.63 -33.41 -54.9 -33.31C-55.18 -33.21 -55.41 -33.03 -55.61 -32.75C-56.39 -32.83 -57.23 -32.71 -58.12 -32.4C-59.02 -32.09 -59.8 -31.74 -60.47 -31.35C-60.7 -31.46 -61 -31.52 -61.35 -31.52C-61.82 -31.52 -62.29 -31.39 -62.75 -31.11C-63.22 -30.84 -63.65 -30.55 -64.04 -30.23C-65.33 -30.04 -66.59 -29.75 -67.82 -29.36C-69.05 -28.96 -70.25 -28.52 -71.43 -28.01C-71.86 -27.81 -72.3 -27.61 -72.77 -27.39C-73.24 -27.18 -73.69 -27.01 -74.12 -26.89C-74.67 -26.7 -75.22 -26.56 -75.79 -26.48C-76.36 -26.41 -76.91 -26.27 -77.46 -26.07C-78.55 -25.76 -79.64 -25.41 -80.71 -25.02C-81.79 -24.63 -82.89 -24.28 -84.02 -23.96C-84.02 -24.24 -84.03 -24.5 -84.05 -24.76C-84.07 -25.01 -84.08 -25.29 -84.08 -25.61C-84.08 -26.43 -84.02 -27.29 -83.91 -28.18C-83.79 -29.08 -83.54 -29.9 -83.14 -30.64L-83.14 -33.4C-82.44 -34.88 -81.95 -36.44 -81.68 -38.06C-81.41 -39.68 -81.05 -41.27 -80.62 -42.83C-78.75 -43.96 -76.8 -44.92 -74.77 -45.7C-72.73 -46.48 -70.72 -47.29 -68.73 -48.11C-67.71 -48.54 -66.74 -48.98 -65.8 -49.45C-64.86 -49.92 -63.93 -50.37 -62.99 -50.8C-62.95 -50.84 -62.87 -50.86 -62.75 -50.86C-62.6 -50.86 -62.48 -50.82 -62.4 -50.74C-62.32 -50.66 -62.21 -50.62 -62.05 -50.62L-61.93 -50.62C-61.74 -50.9 -61.48 -51.11 -61.17 -51.27C-60.86 -51.43 -60.53 -51.57 -60.18 -51.71C-59.82 -51.85 -59.48 -51.99 -59.15 -52.15C-58.82 -52.3 -58.54 -52.5 -58.3 -52.73C-57.4 -52.85 -56.56 -53.09 -55.78 -53.44C-55 -53.79 -54.23 -54.16 -53.47 -54.55C-52.71 -54.94 -51.93 -55.31 -51.15 -55.66C-50.37 -56.02 -49.55 -56.23 -48.69 -56.31C-48.38 -56.74 -47.97 -57.06 -47.46 -57.28C-46.95 -57.49 -46.41 -57.68 -45.82 -57.83C-45.23 -57.99 -44.67 -58.16 -44.12 -58.36C-43.57 -58.55 -43.12 -58.85 -42.77 -59.24C-42.23 -59.28 -41.7 -59.39 -41.19 -59.59C-40.68 -59.79 -40.2 -60 -39.73 -60.23C-39.26 -60.47 -38.78 -60.68 -38.29 -60.88C-37.8 -61.07 -37.29 -61.23 -36.74 -61.35C-36.46 -61.15 -36.15 -61.04 -35.8 -61C-35.45 -60.96 -35.12 -60.92 -34.8 -60.88C-34.84 -60.96 -34.86 -61.11 -34.86 -61.35C-34.86 -61.54 -34.79 -61.67 -34.66 -61.73C-34.52 -61.79 -34.36 -61.82 -34.16 -61.82C-33.96 -61.82 -33.7 -61.8 -33.37 -61.76C-33.04 -61.72 -32.81 -61.8 -32.7 -61.99C-32.66 -62.3 -32.63 -62.64 -32.61 -62.99C-32.59 -63.34 -32.58 -63.69 -32.58 -64.04Z M48.81 -34.39C48.81 -34.75 48.76 -35.09 48.66 -35.42C48.56 -35.75 48.38 -36.07 48.11 -36.39C46.97 -36.23 45.87 -35.99 44.79 -35.65C43.72 -35.32 42.6 -35.16 41.43 -35.16C41.15 -35.16 40.89 -35.17 40.63 -35.19C40.38 -35.21 40.14 -35.23 39.9 -35.27C39.55 -34.96 39.11 -34.75 38.58 -34.63C38.06 -34.51 37.6 -34.32 37.21 -34.04C36.78 -34.2 36.31 -34.28 35.8 -34.28C34.71 -34.28 33.62 -34.09 32.55 -33.72C31.47 -33.35 30.37 -33.16 29.24 -33.16C28.26 -32.62 27.15 -32.24 25.9 -32.02C24.65 -31.81 23.48 -31.56 22.38 -31.29C21.72 -31.09 20.98 -30.8 20.16 -30.41L19.92 -30.41C19.77 -30.41 19.65 -30.45 19.57 -30.53C19.49 -30.61 19.38 -30.64 19.22 -30.64L19.1 -30.64C19.06 -30.29 18.87 -30.07 18.52 -29.97C18.16 -29.87 17.87 -29.75 17.64 -29.59C17.48 -29.67 17.27 -29.71 16.99 -29.71C16.68 -29.71 16.35 -29.66 16 -29.56C15.64 -29.46 15.31 -29.41 15 -29.41C14.65 -29.41 14.34 -29.47 14.06 -29.59C12.89 -28.93 11.71 -28.43 10.52 -28.1C9.33 -27.76 8.07 -27.48 6.74 -27.25L4.63 -26.89C4.39 -26.82 4.3 -26.68 4.34 -26.48C4.37 -26.29 4.26 -26.19 3.98 -26.19C3.87 -26.19 3.73 -26.23 3.57 -26.31C3.42 -26.39 3.28 -26.43 3.16 -26.43C2.58 -26.43 2.03 -26.25 1.52 -25.9C1.02 -25.55 0.41 -25.37 -0.29 -25.37L-0.64 -25.37C-0.68 -25.53 -0.82 -25.61 -1.05 -25.61C-1.21 -25.88 -1.29 -26.23 -1.29 -26.66C-1.29 -27.09 -1.23 -27.48 -1.11 -27.83C-1 -28.18 -0.94 -28.57 -0.94 -29C-0.94 -29.39 -1.04 -29.75 -1.23 -30.06C-0.68 -31.62 -0.41 -33.22 -0.41 -34.86C-0.41 -35.25 -0.43 -35.64 -0.47 -36.04C-0.51 -36.43 -0.57 -36.82 -0.64 -37.21C-0.45 -37.4 -0.31 -37.62 -0.23 -37.85C-0.16 -38.09 -0.1 -38.33 -0.06 -38.58C-0.02 -38.84 0.02 -39.1 0.06 -39.37C0.1 -39.65 0.21 -39.9 0.41 -40.14C0.33 -41.46 0.38 -42.51 0.56 -43.27C0.73 -44.03 0.99 -44.63 1.32 -45.06C1.65 -45.49 2.05 -45.8 2.52 -46C2.99 -46.19 3.47 -46.39 3.96 -46.58C4.44 -46.78 4.94 -47.02 5.45 -47.31C5.96 -47.61 6.45 -48.07 6.91 -48.69C8.91 -49.24 10.9 -49.88 12.89 -50.62C14.88 -51.37 16.88 -52.06 18.87 -52.71C20.86 -53.35 22.87 -53.9 24.9 -54.35C26.93 -54.79 29 -55.02 31.11 -55.02L31.29 -55.02C31.52 -55.06 31.71 -55.02 31.85 -54.9C31.98 -54.79 32.15 -54.69 32.34 -54.61C32.77 -55.16 33.38 -55.43 34.16 -55.43C34.75 -55.43 35.32 -55.37 35.89 -55.25C36.46 -55.14 37.03 -55.06 37.62 -55.02C37.77 -54.75 37.99 -54.54 38.26 -54.4C38.54 -54.27 38.67 -53.98 38.67 -53.55L38.67 -53.32C38.98 -53.36 39.26 -53.33 39.49 -53.23C39.73 -53.13 39.95 -53.02 40.17 -52.88C40.38 -52.74 40.6 -52.62 40.81 -52.5C41.03 -52.38 41.29 -52.32 41.6 -52.32C41.76 -52.32 41.92 -52.4 42.1 -52.56C42.28 -52.71 42.46 -52.89 42.66 -53.09C42.85 -53.28 43.07 -53.46 43.3 -53.61C43.54 -53.77 43.83 -53.85 44.18 -53.85C44.45 -53.85 44.65 -53.83 44.77 -53.79C44.57 -54.37 44.47 -54.9 44.47 -55.37C44.47 -55.68 44.49 -55.99 44.53 -56.28C44.57 -56.57 44.59 -56.88 44.59 -57.19C44.59 -57.85 44.43 -58.54 44.12 -59.24C43.81 -59.51 43.42 -59.81 42.95 -60.15C42.48 -60.48 41.98 -60.78 41.46 -61.05C40.93 -61.33 40.4 -61.56 39.87 -61.76C39.35 -61.95 38.87 -62.09 38.44 -62.17C38.05 -62.25 37.65 -62.28 37.24 -62.26C36.83 -62.24 36.41 -62.23 35.98 -62.23C32.97 -62.23 29.97 -61.95 26.98 -61.41C23.99 -60.86 21.15 -59.84 18.46 -58.36C17.32 -58.32 16.18 -58.17 15.03 -57.92C13.88 -57.67 12.79 -57.27 11.78 -56.72C11.62 -56.88 11.43 -56.95 11.19 -56.95C10.96 -56.95 10.74 -56.92 10.55 -56.87C10.35 -56.81 10.16 -56.78 9.96 -56.78C9.77 -56.78 9.59 -56.84 9.43 -56.95C9.36 -56.64 9.18 -56.43 8.91 -56.31C8.63 -56.19 8.34 -56.1 8.03 -56.04C7.71 -55.99 7.41 -55.91 7.12 -55.81C6.83 -55.71 6.62 -55.53 6.5 -55.25C6.04 -55.29 5.63 -55.26 5.3 -55.17C4.97 -55.07 4.66 -54.96 4.37 -54.84C4.07 -54.73 3.76 -54.6 3.43 -54.46C3.1 -54.33 2.71 -54.24 2.29 -54.2C1.86 -54.86 1.24 -55.46 0.44 -55.99C-0.36 -56.51 -1.19 -56.78 -2.05 -56.78C-2.6 -56.78 -3 -56.72 -3.25 -56.6C-3.51 -56.48 -3.71 -56.31 -3.87 -56.07C-4.02 -55.84 -4.13 -55.57 -4.19 -55.25C-4.25 -54.94 -4.34 -54.59 -4.45 -54.2C-4.53 -53.89 -4.63 -53.6 -4.75 -53.35C-4.86 -53.1 -4.92 -52.81 -4.92 -52.5C-4.92 -52.15 -4.82 -51.72 -4.63 -51.21C-4.75 -50.9 -4.9 -50.59 -5.1 -50.27C-5.29 -49.96 -5.39 -49.63 -5.39 -49.28C-5.39 -49.16 -5.38 -49.04 -5.36 -48.93C-5.34 -48.81 -5.31 -48.67 -5.27 -48.52C-6.52 -48.16 -7.15 -47.34 -7.15 -46.05C-7.15 -45.39 -7.01 -44.72 -6.74 -44.03C-6.46 -43.35 -6.11 -42.75 -5.68 -42.25C-5.84 -41.82 -5.95 -41.36 -6.01 -40.87C-6.06 -40.38 -6.09 -39.9 -6.09 -39.43C-6.09 -39.12 -6.07 -38.78 -6.04 -38.41C-6 -38.04 -5.94 -37.7 -5.86 -37.38C-6.21 -36.8 -6.46 -36.13 -6.59 -35.39C-6.73 -34.65 -6.86 -33.91 -6.97 -33.16C-7.09 -32.42 -7.23 -31.72 -7.38 -31.05C-7.54 -30.39 -7.81 -29.84 -8.2 -29.41C-8.28 -29.1 -8.32 -28.85 -8.32 -28.65C-8.32 -28.3 -8.19 -28 -7.94 -27.74C-7.69 -27.49 -7.5 -27.21 -7.38 -26.89C-7.77 -26.39 -7.98 -25.84 -8 -25.25C-8.02 -24.67 -8.09 -24.08 -8.2 -23.5C-9.1 -23.03 -10.03 -22.63 -10.99 -22.29C-11.94 -21.96 -12.91 -21.68 -13.89 -21.45C-14.36 -20.74 -14.59 -19.96 -14.59 -19.1C-14.59 -18.52 -14.47 -17.95 -14.24 -17.4C-14 -16.86 -13.67 -16.37 -13.24 -15.94C-13.05 -15.9 -12.87 -15.87 -12.71 -15.85C-12.56 -15.83 -12.38 -15.82 -12.19 -15.82C-11.64 -15.82 -11.09 -15.87 -10.55 -15.97C-10 -16.06 -9.43 -16.11 -8.85 -16.11L-8.61 -16.11C-8.54 -15.92 -8.44 -15.75 -8.32 -15.62C-8.2 -15.48 -8.09 -15.31 -7.97 -15.12C-8.05 -13.98 -8.03 -12.85 -7.91 -11.72C-7.79 -10.59 -7.73 -9.45 -7.73 -8.32C-7.73 -7.89 -7.75 -7.45 -7.79 -7C-7.83 -6.55 -7.89 -6.09 -7.97 -5.62C-7.54 -4.38 -7.21 -3.11 -6.97 -1.82C-6.74 -0.53 -6.6 0.78 -6.56 2.11C-6.25 2.77 -5.97 3.48 -5.71 4.22C-5.46 4.96 -5.33 5.72 -5.33 6.5C-5.33 6.7 -5.34 6.88 -5.36 7.03C-5.38 7.19 -5.41 7.36 -5.45 7.56C-5.1 7.87 -4.79 8.26 -4.54 8.73C-4.29 9.2 -4.02 9.66 -3.75 10.11C-3.48 10.56 -3.15 10.94 -2.78 11.25C-2.41 11.56 -1.93 11.72 -1.35 11.72C-1.11 11.72 -0.8 11.68 -0.41 11.6C-0.18 11.05 0.08 10.56 0.35 10.11C0.62 9.66 0.88 9.21 1.11 8.76C1.35 8.31 1.54 7.83 1.7 7.32C1.86 6.82 1.93 6.23 1.93 5.57L1.93 4.98C1.93 4.82 1.91 4.65 1.88 4.45C1.68 4.14 1.45 3.87 1.17 3.63C0.9 3.4 0.7 3.11 0.59 2.75C0.62 2.52 0.65 2.29 0.67 2.08C0.69 1.87 0.7 1.64 0.7 1.41C0.7 0.51 0.6 -0.37 0.38 -1.23C0.17 -2.09 -0.06 -2.95 -0.29 -3.81C-0.53 -4.67 -0.75 -5.55 -0.97 -6.45C-1.18 -7.34 -1.29 -8.3 -1.29 -9.32C-1.29 -9.51 -1.21 -9.65 -1.05 -9.73C-0.9 -9.8 -0.82 -9.94 -0.82 -10.14L-0.82 -10.25C-1.29 -10.96 -1.59 -11.82 -1.73 -12.83C-1.87 -13.85 -1.93 -14.75 -1.93 -15.53C-1.93 -16.54 -1.86 -17.44 -1.7 -18.22C-0.41 -18.46 0.87 -18.78 2.14 -19.19C3.41 -19.6 4.67 -20.01 5.92 -20.42C7.17 -20.83 8.44 -21.21 9.73 -21.56C11.02 -21.91 12.32 -22.15 13.65 -22.27C13.85 -22.46 13.98 -22.69 14.06 -22.94C14.14 -23.19 14.36 -23.3 14.71 -23.26C14.86 -23.14 15.14 -23.09 15.53 -23.09L15.94 -23.09C16.48 -23.52 17.13 -23.86 17.87 -24.11C18.61 -24.37 19.32 -24.49 19.98 -24.49C20.14 -24.49 20.29 -24.48 20.45 -24.46C20.61 -24.44 20.78 -24.41 20.98 -24.37L21.91 -24.96C22.23 -25.16 22.54 -25.29 22.85 -25.37C23.48 -25.57 24.09 -25.72 24.7 -25.84C25.3 -25.96 25.92 -26.07 26.54 -26.19C27.79 -26.5 29.04 -26.83 30.29 -27.16C31.54 -27.49 32.79 -27.81 34.04 -28.12C34.2 -27.85 34.49 -27.71 34.92 -27.71C35.16 -27.71 35.27 -27.77 35.27 -27.89C35.27 -27.97 35.25 -28.05 35.21 -28.12C35.18 -28.2 35.16 -28.28 35.16 -28.36C35.16 -28.44 35.2 -28.49 35.27 -28.51C35.35 -28.53 35.43 -28.54 35.51 -28.54C36.52 -28.77 37.55 -28.96 38.58 -29.12C39.62 -29.28 40.66 -29.39 41.72 -29.47C42.27 -29.51 42.88 -29.52 43.56 -29.5C44.25 -29.48 44.84 -29.51 45.35 -29.59C45.59 -29.67 45.91 -29.84 46.32 -30.12C46.73 -30.39 47.19 -30.57 47.7 -30.64C48.01 -31.19 48.27 -31.8 48.49 -32.46C48.7 -33.12 48.81 -33.77 48.81 -34.39Z M96.39 -13.42C95.92 -14.28 95.14 -14.77 94.04 -14.88C93.54 -14.57 93.09 -14.27 92.7 -13.97C92.3 -13.68 91.78 -13.5 91.11 -13.42C91.04 -13.22 90.98 -13.05 90.94 -12.89C90.9 -12.73 90.82 -12.56 90.7 -12.36C89.8 -12.01 89 -11.55 88.3 -10.99C87.6 -10.42 86.89 -9.83 86.19 -9.23C85.49 -8.62 84.77 -8.07 84.02 -7.56C83.28 -7.05 82.42 -6.7 81.45 -6.5C81.21 -6.04 80.86 -5.69 80.39 -5.48C79.92 -5.26 79.43 -5.12 78.93 -5.04C78.65 -4.73 78.42 -4.42 78.22 -4.13C78.03 -3.84 77.7 -3.69 77.23 -3.69C77.07 -3.69 76.95 -3.73 76.88 -3.81C76.72 -3.5 76.61 -3.23 76.55 -3.02C76.49 -2.8 76.31 -2.64 76 -2.52C75.18 -2.21 74.39 -1.84 73.65 -1.41L71.48 -0.12C70.78 0.31 70.06 0.73 69.32 1.14C68.57 1.55 67.79 1.88 66.97 2.11C66.78 2.3 66.56 2.54 66.33 2.81C66.09 3.09 65.88 3.26 65.68 3.34C65.53 3.42 65.34 3.5 65.13 3.57C64.91 3.65 64.71 3.73 64.51 3.81C63.85 4 63.19 4.18 62.55 4.34C61.9 4.49 61.27 4.73 60.64 5.04C59.9 5 59.33 5 58.92 5.04C58.51 5.08 57.97 5.21 57.3 5.45C55.66 5.21 54.11 4.68 52.65 3.84C51.18 3 50 1.86 49.1 0.41C48.87 -0.02 48.65 -0.59 48.46 -1.29C48.26 -1.99 48.1 -2.72 47.96 -3.49C47.82 -4.25 47.72 -4.99 47.67 -5.71C47.61 -6.44 47.58 -7.07 47.58 -7.62C47.58 -8.4 47.62 -9.19 47.7 -9.99C47.77 -10.79 47.97 -11.58 48.28 -12.36C48.24 -12.56 48.21 -12.76 48.19 -12.98C48.17 -13.19 48.16 -13.4 48.16 -13.59C48.16 -14.77 48.36 -15.9 48.75 -16.99C49.14 -18.09 49.55 -19.2 49.98 -20.33C49.9 -21 49.96 -21.73 50.16 -22.53C50.35 -23.33 50.63 -24 50.98 -24.55L50.98 -24.9C50.98 -26.15 51.14 -27.36 51.47 -28.54C51.81 -29.71 52.11 -30.88 52.38 -32.05C52.46 -32.48 52.53 -32.9 52.59 -33.31C52.65 -33.72 52.71 -34.14 52.79 -34.57L52.91 -35.68C52.95 -35.88 53.03 -36.03 53.14 -36.12C53.26 -36.22 53.38 -36.37 53.5 -36.56C53.42 -37.07 53.42 -37.58 53.5 -38.09C53.57 -38.59 53.67 -39.11 53.79 -39.64C53.91 -40.17 54.01 -40.68 54.11 -41.19C54.21 -41.7 54.26 -42.23 54.26 -42.77L54.26 -43.36C54.26 -43.55 54.22 -43.75 54.14 -43.95C54.41 -44.53 54.61 -45.15 54.73 -45.79C54.84 -46.44 54.92 -47.09 54.96 -47.75L55.14 -49.75C55.21 -50.41 55.37 -51.05 55.61 -51.68C55.25 -52.34 54.86 -52.91 54.43 -53.38C54 -53.85 53.69 -54.47 53.5 -55.25C53.3 -55.33 53.11 -55.39 52.91 -55.43C52.71 -55.47 52.52 -55.49 52.32 -55.49C51.66 -55.49 51.03 -55.35 50.42 -55.08C49.81 -54.8 49.24 -54.51 48.69 -54.2C48.65 -52.01 48.55 -49.83 48.4 -47.67C48.24 -45.5 47.99 -43.34 47.64 -41.19C47.52 -40.53 47.39 -39.83 47.26 -39.11C47.12 -38.39 46.97 -37.7 46.82 -37.03C46.74 -36.8 46.64 -36.49 46.52 -36.12C46.41 -35.75 46.35 -35.47 46.35 -35.27C46.35 -35.04 46.39 -34.82 46.46 -34.63C46.54 -34.43 46.58 -34.22 46.58 -33.98C46.58 -33.83 46.53 -33.57 46.44 -33.22C46.34 -32.87 46.22 -32.51 46.08 -32.14C45.95 -31.77 45.81 -31.42 45.67 -31.08C45.54 -30.75 45.43 -30.53 45.35 -30.41C45.39 -29.86 45.36 -29.31 45.26 -28.74C45.17 -28.17 45.05 -27.61 44.91 -27.04C44.78 -26.47 44.64 -25.9 44.5 -25.31C44.37 -24.73 44.3 -24.14 44.3 -23.55L44.3 -23.26C43.98 -23.03 43.78 -22.71 43.68 -22.32C43.58 -21.93 43.36 -21.64 43.01 -21.45C43.01 -20.59 42.87 -19.75 42.6 -18.93C42.32 -18.11 42.19 -17.34 42.19 -16.64C42.19 -16.45 42.25 -16.34 42.36 -16.32C42.48 -16.3 42.56 -16.17 42.6 -15.94C42.25 -15.55 42 -15.04 41.87 -14.41C41.73 -13.79 41.54 -13.24 41.31 -12.77C41.31 -11.56 41.25 -10.36 41.13 -9.17C41.02 -7.98 40.96 -6.78 40.96 -5.57C40.96 -4.63 41.04 -3.72 41.19 -2.84C41.35 -1.96 41.62 -1.07 42.01 -0.18C41.89 0.02 41.84 0.21 41.84 0.41C41.84 0.53 41.85 0.64 41.87 0.76C41.88 0.88 41.89 1 41.89 1.11C41.89 1.35 41.86 1.54 41.78 1.7C42.29 1.7 42.64 1.97 42.83 2.52C42.87 2.71 42.9 2.9 42.92 3.08C42.94 3.25 42.99 3.44 43.07 3.63C43.38 4.57 43.87 5.37 44.53 6.04C45.2 6.7 45.8 7.42 46.35 8.2C46.54 8.24 46.68 8.2 46.76 8.09C46.84 7.97 46.93 7.87 47.05 7.79C47.25 8.69 47.67 9.32 48.31 9.67C48.96 10.02 49.71 10.23 50.57 10.31C50.49 10.47 50.49 10.58 50.57 10.63C50.64 10.69 50.73 10.74 50.83 10.78C50.93 10.82 51.02 10.86 51.09 10.9C51.17 10.94 51.21 11.02 51.21 11.13C52.73 11.52 54.32 11.72 55.96 11.72C57.29 11.72 58.6 11.62 59.91 11.43C61.22 11.23 62.52 10.98 63.81 10.66C64.08 10.59 64.35 10.53 64.6 10.49C64.85 10.45 65.08 10.39 65.27 10.31C66.17 9.96 67.07 9.49 67.97 8.91C69.45 8.01 70.89 7.08 72.28 6.12C73.66 5.17 75.2 4.39 76.88 3.81C77.19 3.5 77.46 3.18 77.7 2.87C77.93 2.56 78.2 2.3 78.52 2.11C79.02 2.15 79.49 2.04 79.92 1.79C80.35 1.53 80.75 1.22 81.12 0.85C81.49 0.48 81.83 0.12 82.12 -0.23C82.41 -0.59 82.7 -0.84 82.97 -1C83.09 -1.07 83.21 -1.14 83.35 -1.2C83.49 -1.26 83.63 -1.33 83.79 -1.41C84.22 -1.6 84.63 -1.81 85.02 -2.02C85.41 -2.24 85.8 -2.46 86.19 -2.7C87.64 -3.59 88.96 -4.63 90.15 -5.8C91.34 -6.97 92.5 -8.18 93.63 -9.43C93.83 -9.51 94.02 -9.61 94.22 -9.73C94.41 -9.84 94.63 -9.9 94.86 -9.9C94.98 -9.9 95.08 -9.88 95.16 -9.84C95.47 -10.47 95.75 -11.03 96.01 -11.51C96.26 -12 96.39 -12.64 96.39 -13.42Z M151.11 -32.75C151.11 -33.07 151.04 -33.27 150.88 -33.37C150.72 -33.47 150.64 -33.69 150.64 -34.04C150.64 -34.39 150.62 -34.77 150.56 -35.16C150.5 -35.55 150.43 -35.96 150.35 -36.39C149.69 -40.29 148.38 -43.95 146.43 -47.34C146.27 -47.58 146.1 -47.85 145.93 -48.16C145.75 -48.48 145.57 -48.75 145.37 -48.98C145.21 -49.18 145.03 -49.34 144.81 -49.48C144.6 -49.62 144.39 -49.77 144.2 -49.92C143.14 -50.82 142.08 -51.69 141.01 -52.53C139.93 -53.37 138.81 -54.14 137.64 -54.84L137.46 -54.84C137.27 -54.84 137.17 -54.77 137.17 -54.61C137.17 -54.45 137.07 -54.37 136.88 -54.37C136.76 -54.37 136.66 -54.39 136.58 -54.43C135.68 -55.25 134.63 -55.75 133.42 -55.93C132.21 -56.1 131.02 -56.23 129.84 -56.31C129.41 -56.89 129.1 -57.6 128.91 -58.42C128.71 -59.24 128.47 -60.02 128.17 -60.76C127.88 -61.5 127.49 -62.14 127 -62.67C126.51 -63.19 125.8 -63.46 124.86 -63.46C124.12 -63.46 123.42 -63.31 122.75 -63.02C122.09 -62.72 121.43 -62.48 120.76 -62.29C120.61 -62.21 120.44 -62.16 120.26 -62.14C120.09 -62.12 119.92 -62.07 119.77 -61.99C119.45 -61.84 119.2 -61.56 119 -61.17C118.81 -60.78 118.5 -60.49 118.07 -60.29C117.13 -59.79 116.36 -59.23 115.75 -58.62C115.15 -58.02 114.6 -57.37 114.11 -56.69C113.62 -56.01 113.14 -55.31 112.68 -54.61C112.21 -53.91 111.62 -53.2 110.92 -52.5C110.72 -52.42 110.6 -52.28 110.54 -52.06C110.48 -51.85 110.47 -51.64 110.51 -51.45L110.51 -51.04C109.73 -50.45 109.08 -49.75 108.57 -48.93C108.07 -48.11 107.59 -47.27 107.14 -46.41C106.69 -45.55 106.25 -44.68 105.82 -43.8C105.39 -42.92 104.86 -42.13 104.24 -41.43C104.32 -41.07 104.29 -40.82 104.15 -40.66C104.01 -40.51 103.96 -40.31 104 -40.08L104 -39.9C103.81 -39.9 103.68 -39.86 103.62 -39.79C103.56 -39.71 103.5 -39.61 103.42 -39.49L103.24 -39.2C103.2 -39.12 103.11 -39.08 102.95 -39.08C102.09 -36.93 101.17 -34.82 100.2 -32.75C99.22 -30.68 98.27 -28.59 97.35 -26.48C96.44 -24.37 95.59 -22.26 94.8 -20.13C94.02 -18 93.4 -15.8 92.93 -13.54C92.81 -12.91 92.67 -12.19 92.49 -11.37C92.31 -10.55 92.23 -9.84 92.23 -9.26C92.23 -8.91 92.28 -8.51 92.37 -8.06C92.47 -7.61 92.56 -7.23 92.64 -6.91C92.83 -5.9 92.99 -4.88 93.11 -3.87C93.22 -2.85 93.44 -1.84 93.75 -0.82C94.14 -0.74 94.41 -0.54 94.57 -0.21C94.73 0.13 94.84 0.47 94.92 0.82C94.96 0.82 95.01 0.8 95.07 0.76C95.13 0.72 95.18 0.7 95.21 0.7C95.41 0.7 95.59 0.88 95.74 1.23C95.9 1.58 96.07 1.82 96.27 1.93C96.35 2.01 96.46 2.08 96.59 2.14C96.73 2.2 96.86 2.27 96.97 2.34C97.48 2.7 97.93 3.09 98.32 3.52C98.71 3.95 99 4.45 99.2 5.04C99.67 4.92 100.15 5.03 100.63 5.36C101.12 5.69 101.54 6.02 101.89 6.33C102.36 6.37 102.79 6.45 103.18 6.56L104.41 6.97C104.84 7.13 105.26 7.27 105.67 7.38C106.08 7.5 106.5 7.56 106.93 7.56C107.17 7.56 107.53 7.46 108.02 7.27C108.51 7.07 108.85 6.89 109.04 6.74C109.28 6.86 109.47 6.99 109.63 7.15C109.79 7.3 110.02 7.38 110.33 7.38C110.88 7.38 111.4 7.3 111.88 7.15C112.37 6.99 112.87 6.83 113.38 6.65C113.89 6.47 114.38 6.3 114.87 6.12C115.36 5.95 115.88 5.86 116.43 5.86C116.62 5.59 116.91 5.34 117.3 5.13C117.7 4.91 118.07 4.8 118.42 4.8C118.73 4.8 118.96 4.88 119.12 5.04C119.39 4.49 119.83 4.1 120.44 3.87C121.04 3.63 121.58 3.4 122.05 3.16C122.36 2.85 122.74 2.55 123.19 2.26C123.64 1.96 124.1 1.82 124.57 1.82C124.84 1.82 125.06 1.86 125.21 1.93C125.17 1.43 125.37 1.05 125.8 0.82C126 0.86 126.12 0.91 126.18 0.97C126.24 1.03 126.35 1.05 126.5 1.05C126.54 0.78 126.67 0.56 126.88 0.38C127.1 0.21 127.33 0.06 127.59 -0.06C127.84 -0.18 128.1 -0.28 128.35 -0.38C128.6 -0.48 128.83 -0.63 129.02 -0.82C130.51 -1.52 131.88 -2.35 133.15 -3.31C134.42 -4.27 135.78 -5.12 137.23 -5.86C137.5 -6.56 137.97 -7.06 138.63 -7.35C139.3 -7.65 139.94 -7.91 140.57 -8.14C141.07 -9.43 141.91 -10.27 143.09 -10.66C143.4 -11.21 143.79 -11.76 144.26 -12.3C144.73 -12.85 145.2 -13.39 145.66 -13.92C146.13 -14.44 146.56 -14.95 146.95 -15.44C147.34 -15.93 147.66 -16.39 147.89 -16.82C148.16 -17.32 148.36 -17.87 148.48 -18.46C148.59 -19.04 148.91 -19.53 149.41 -19.92C149.96 -22.07 150.38 -24.19 150.67 -26.28C150.97 -28.37 151.11 -30.53 151.11 -32.75ZM146.6 -29.77C146.6 -28.59 146.46 -27.44 146.16 -26.31C145.87 -25.18 145.41 -24.1 144.79 -23.09L144.79 -21.45C144.63 -21.13 144.46 -20.88 144.29 -20.68C144.11 -20.49 143.94 -20.28 143.76 -20.07C143.58 -19.85 143.43 -19.62 143.29 -19.37C143.15 -19.11 143.09 -18.81 143.09 -18.46C142.81 -18.46 142.61 -18.4 142.47 -18.28C142.33 -18.16 142.22 -18.03 142.12 -17.87C142.02 -17.71 141.9 -17.57 141.77 -17.43C141.63 -17.29 141.45 -17.23 141.21 -17.23C140.74 -16.33 140.17 -15.52 139.48 -14.79C138.8 -14.07 138.08 -13.4 137.31 -12.77C136.55 -12.15 135.76 -11.56 134.94 -11.02C134.12 -10.47 133.32 -9.9 132.54 -9.32C132.07 -8.96 131.61 -8.59 131.16 -8.2C130.71 -7.81 130.27 -7.46 129.84 -7.15C129.73 -7.07 129.57 -6.99 129.38 -6.91C129.18 -6.84 129.02 -6.76 128.91 -6.68C128.24 -6.37 127.6 -6.03 126.97 -5.65C126.35 -5.28 125.82 -4.8 125.39 -4.22L124.16 -4.22C122.52 -3.2 120.71 -2.27 118.74 -1.41C116.77 -0.55 114.79 -0.08 112.79 0C112.36 0.47 111.83 0.78 111.18 0.94C110.54 1.09 109.9 1.17 109.28 1.17C108.38 1.17 107.48 1.08 106.58 0.91C105.68 0.73 104.82 0.51 104 0.23C103.93 0.04 103.83 -0.12 103.71 -0.23C103.59 -0.35 103.54 -0.55 103.54 -0.82C102.95 -0.9 102.48 -1.08 102.13 -1.38C101.78 -1.67 101.46 -2.01 101.16 -2.4C100.87 -2.79 100.59 -3.2 100.31 -3.63C100.04 -4.06 99.73 -4.45 99.38 -4.8C99.06 -6.29 98.91 -7.75 98.91 -9.2C98.91 -10.45 98.98 -11.72 99.14 -13.01C99.3 -14.3 99.45 -15.57 99.61 -16.82C99.84 -17.09 100.03 -17.41 100.17 -17.78C100.3 -18.15 100.59 -18.38 101.02 -18.46C100.86 -18.77 100.78 -19.08 100.78 -19.39C100.78 -19.67 100.84 -19.91 100.96 -20.13C101.07 -20.34 101.2 -20.57 101.34 -20.8C101.47 -21.04 101.6 -21.28 101.72 -21.53C101.84 -21.79 101.89 -22.07 101.89 -22.38L101.89 -22.68C102.09 -22.79 102.23 -22.95 102.3 -23.14L102.89 -24.32C103.01 -24.51 103.16 -24.67 103.36 -24.79C103.44 -26.15 103.73 -27.4 104.24 -28.54C104.75 -29.67 105.45 -30.74 106.35 -31.76C106.89 -33.63 107.7 -35.56 108.75 -37.53C109.8 -39.5 110.96 -41.27 112.21 -42.83C112.44 -43.89 112.82 -44.78 113.35 -45.5C113.88 -46.22 114.45 -46.91 115.08 -47.58C115.7 -48.24 116.31 -48.93 116.89 -49.63C117.48 -50.33 117.93 -51.15 118.24 -52.09C118.59 -52.17 118.91 -52.31 119.18 -52.53C119.45 -52.74 119.75 -52.85 120.06 -52.85C120.18 -52.85 120.35 -52.81 120.59 -52.73C120.55 -52.62 120.53 -52.42 120.53 -52.15C120.53 -51.72 120.63 -51.34 120.85 -51.01C121.06 -50.67 121.3 -50.36 121.55 -50.07C121.81 -49.78 122.06 -49.47 122.31 -49.16C122.57 -48.85 122.75 -48.5 122.87 -48.11C123.65 -47.6 124.36 -47.02 124.98 -46.38C125.61 -45.73 126.25 -45.12 126.91 -44.53C127.54 -44.65 128 -44.61 128.29 -44.41C128.58 -44.22 129 -44.12 129.55 -44.12C129.82 -44.12 130.06 -44.18 130.25 -44.3C130.45 -44.41 130.61 -44.54 130.75 -44.68C130.89 -44.81 131.04 -44.97 131.19 -45.15C131.35 -45.32 131.52 -45.47 131.72 -45.59C131.45 -46.8 130.68 -47.56 129.43 -47.87C129.36 -48.22 129.32 -48.58 129.32 -48.96C129.32 -49.33 129.22 -49.67 129.02 -49.98C129.61 -50.21 130.21 -50.33 130.84 -50.33C131.74 -50.33 132.63 -50.19 133.51 -49.89C134.38 -49.6 135.27 -49.36 136.17 -49.16C136.72 -48.69 137.28 -48.27 137.84 -47.9C138.41 -47.53 139.04 -47.25 139.75 -47.05C139.67 -46.66 139.75 -46.45 139.98 -46.41C140.21 -46.37 140.47 -46.29 140.74 -46.17C141.13 -45.51 141.57 -44.87 142.06 -44.27C142.55 -43.66 143.11 -43.12 143.73 -42.66C143.81 -42.11 143.96 -41.6 144.17 -41.13C144.38 -40.66 144.61 -40.2 144.84 -39.73C145.08 -39.26 145.28 -38.79 145.46 -38.32C145.63 -37.85 145.74 -37.34 145.78 -36.8L146.48 -35.51L146.48 -35.21C146.48 -35.02 146.46 -34.83 146.4 -34.66C146.34 -34.48 146.21 -34.36 146.02 -34.28C146.41 -32.83 146.6 -31.33 146.6 -29.77Z M220.66 -51.04C220.39 -51.46 220.21 -52.03 220.11 -52.73C220.01 -53.44 219.88 -54.13 219.73 -54.81C219.57 -55.5 219.34 -56.08 219.02 -56.57C218.71 -57.06 218.2 -57.3 217.5 -57.3C216.95 -57.3 216.46 -57.16 216.01 -56.87C215.56 -56.57 215.16 -56.23 214.8 -55.84C214.73 -55.37 214.69 -54.79 214.69 -54.11C214.69 -53.43 214.66 -52.73 214.6 -52.03C214.54 -51.33 214.43 -50.66 214.28 -50.04C214.12 -49.41 213.87 -48.91 213.52 -48.52C213.83 -48.32 214.02 -48.05 214.1 -47.7C214.18 -47.34 214.22 -47.01 214.22 -46.7C214.22 -46.15 214.19 -45.61 214.13 -45.06C214.07 -44.51 214.14 -43.98 214.34 -43.48C214.26 -43.28 214.13 -43.11 213.96 -42.95C213.78 -42.79 213.69 -42.6 213.69 -42.36L213.75 -42.01C214.06 -41.58 214.27 -41.1 214.37 -40.58C214.46 -40.05 214.51 -39.53 214.51 -39.02C214.51 -38.05 214.42 -37.08 214.25 -36.12C214.07 -35.17 213.98 -34.18 213.98 -33.16C213.98 -32.7 214.04 -32.23 214.16 -31.76C213.73 -30.55 213.45 -29.32 213.31 -28.07C213.17 -26.82 213.11 -25.57 213.11 -24.32L213.11 -22.68C212.95 -22.4 212.77 -22.27 212.58 -22.27C212.38 -22.27 212.29 -22.05 212.29 -21.62C212.13 -18.57 211.7 -15.64 211 -12.83C210.29 -10.02 209.37 -7.21 208.24 -4.39C207.66 -3.77 207.09 -3.11 206.54 -2.4C206 -1.7 205.46 -1.02 204.93 -0.35C204.4 0.31 203.85 0.97 203.26 1.61C202.68 2.26 202.03 2.83 201.33 3.34C201.02 3.3 200.78 3.29 200.63 3.31C200.47 3.33 200.32 3.37 200.19 3.43C200.05 3.49 199.9 3.54 199.75 3.6C199.59 3.66 199.39 3.69 199.16 3.69C198.96 3.69 198.71 3.65 198.4 3.57C197.62 2.91 196.96 2.14 196.44 1.26C195.91 0.38 195.31 -0.47 194.65 -1.29C194.69 -1.91 194.61 -2.54 194.41 -3.16C194.22 -3.79 193.99 -4.41 193.74 -5.04C193.49 -5.66 193.25 -6.3 193.04 -6.94C192.82 -7.59 192.71 -8.24 192.71 -8.91C192.71 -9.22 192.74 -9.54 192.8 -9.87C192.86 -10.21 192.89 -10.53 192.89 -10.84C192.89 -11.31 192.77 -11.76 192.54 -12.19C192.7 -13.24 192.82 -14.31 192.92 -15.38C193.02 -16.46 193.07 -17.52 193.07 -18.57C193.07 -19.82 192.96 -20.92 192.74 -21.86C192.53 -22.79 192.23 -23.83 191.84 -24.96C191.76 -25.35 191.72 -25.66 191.72 -25.9C191.72 -26.41 191.79 -26.88 191.92 -27.33C192.06 -27.78 192.13 -28.28 192.13 -28.83L192.13 -29.18C191.89 -29.34 191.67 -29.48 191.46 -29.62C191.24 -29.76 191.09 -29.96 191.02 -30.23C190.82 -30.27 190.61 -30.29 190.37 -30.29L189.79 -30.29C188.57 -30.29 187.53 -30.04 186.65 -29.53C185.77 -29.02 185.33 -28.11 185.33 -26.78C185.33 -25.18 185.2 -23.65 184.92 -22.21C184.65 -20.76 184.02 -19.37 183.05 -18.05C183.13 -17.58 183.14 -17.13 183.11 -16.7C183.07 -16.27 183.05 -15.8 183.05 -15.29C182.11 -13.96 181.41 -12.51 180.94 -10.93C180.47 -9.35 179.9 -7.81 179.24 -6.33C178.81 -6.13 178.47 -5.87 178.21 -5.54C177.96 -5.21 177.74 -4.84 177.57 -4.45C177.39 -4.06 177.23 -3.66 177.07 -3.25C176.91 -2.84 176.74 -2.46 176.54 -2.11C176.11 -1.99 175.77 -1.79 175.52 -1.49C175.26 -1.2 175.02 -0.9 174.79 -0.59C174.55 -0.27 174.31 0.02 174.05 0.29C173.8 0.57 173.44 0.74 172.97 0.82C173.05 1.25 172.99 1.62 172.79 1.93C172.01 2.87 171.12 3.69 170.13 4.39C169.13 5.1 168.26 5.96 167.52 6.97C167.17 7.17 166.83 7.32 166.49 7.44C166.16 7.56 165.8 7.62 165.41 7.62L165 7.56C164.8 7.75 164.71 7.91 164.71 8.03L164.71 8.5C164.71 8.65 164.57 8.77 164.3 8.85C164.06 8.73 163.81 8.66 163.54 8.64C163.26 8.62 163.01 8.61 162.77 8.61L161.78 8.61C161.23 7.64 160.85 6.61 160.63 5.54C160.42 4.46 160.31 3.36 160.31 2.23C160.31 1.6 160.33 0.85 160.37 -0.03C160.41 -0.91 160.48 -1.81 160.58 -2.72C160.67 -3.64 160.77 -4.53 160.87 -5.39C160.97 -6.25 161.07 -6.97 161.19 -7.56C161.31 -8.18 161.44 -8.7 161.57 -9.11C161.71 -9.52 161.83 -9.91 161.92 -10.28C162.02 -10.65 162.1 -11.07 162.16 -11.54C162.22 -12.01 162.25 -12.64 162.25 -13.42C162.6 -14.36 162.94 -15.29 163.27 -16.23C163.6 -17.17 163.87 -18.13 164.06 -19.1C164.18 -19.53 164.27 -19.99 164.33 -20.48C164.38 -20.97 164.47 -21.43 164.59 -21.86C164.63 -22.01 164.69 -22.12 164.77 -22.18C164.84 -22.24 164.92 -22.32 165 -22.44C164.84 -22.71 164.77 -22.99 164.77 -23.26C164.77 -23.38 164.85 -23.57 165.03 -23.85C165.21 -24.12 165.33 -24.36 165.41 -24.55C165.53 -25.14 165.63 -25.72 165.7 -26.31C165.78 -26.89 165.87 -27.47 165.97 -28.04C166.06 -28.6 166.21 -29.16 166.41 -29.71C166.6 -30.25 166.89 -30.8 167.29 -31.35C167.29 -32.01 167.31 -32.72 167.37 -33.49C167.43 -34.25 167.68 -34.92 168.11 -35.51C167.99 -36.13 167.97 -36.77 168.05 -37.41C168.12 -38.06 168.22 -38.69 168.34 -39.32L168.75 -41.25C168.91 -41.91 168.98 -42.58 168.98 -43.24C168.98 -44.61 168.77 -45.9 168.34 -47.11C167.91 -48.32 167.56 -49.55 167.29 -50.8C166.74 -51.04 166.23 -51.15 165.76 -51.15C165.45 -51.15 165.11 -51.13 164.74 -51.09C164.37 -51.05 164.02 -51.04 163.71 -51.04C163.09 -50.33 162.69 -49.51 162.51 -48.57C162.33 -47.64 162.25 -46.72 162.25 -45.82C162.25 -45.04 162.29 -44.23 162.36 -43.39C162.44 -42.55 162.54 -41.74 162.66 -40.96C162.34 -39.98 162.11 -38.96 161.95 -37.88C161.8 -36.81 161.63 -35.72 161.46 -34.63C161.28 -33.54 161.06 -32.47 160.81 -31.44C160.56 -30.4 160.2 -29.43 159.73 -28.54C159.8 -28.42 159.9 -28.34 160.02 -28.3C160.14 -28.26 160.2 -28.16 160.2 -28.01C160.2 -27.89 160.18 -27.79 160.14 -27.71C159.82 -26.89 159.65 -26.18 159.61 -25.58C159.57 -24.97 159.45 -24.28 159.26 -23.5C159.06 -22.71 158.78 -21.95 158.41 -21.21C158.04 -20.47 157.77 -19.71 157.62 -18.93C157.77 -18.61 157.85 -18.32 157.85 -18.05C157.85 -17.89 157.78 -17.67 157.65 -17.37C157.51 -17.08 157.34 -16.76 157.15 -16.41L156.62 -15.41C156.46 -15.1 156.37 -14.86 156.33 -14.71C156.25 -14.39 156.21 -14.06 156.21 -13.71C156.21 -13.36 156.2 -13.03 156.18 -12.71C156.16 -12.4 156.11 -12.09 156.04 -11.78C155.96 -11.46 155.78 -11.17 155.51 -10.9C155.86 -10.66 156 -10.31 155.92 -9.84C155.68 -9.3 155.51 -8.72 155.39 -8.12C155.27 -7.51 155.17 -6.89 155.07 -6.27C154.97 -5.64 154.84 -5.03 154.69 -4.42C154.53 -3.82 154.32 -3.24 154.04 -2.7C154.08 -2.5 154.13 -2.31 154.19 -2.14C154.25 -1.96 154.28 -1.78 154.28 -1.58C154.28 -1 154.2 -0.42 154.04 0.15C153.89 0.71 153.81 1.33 153.81 1.99C153.81 3.16 153.91 4.35 154.1 5.54C154.3 6.73 154.49 7.91 154.69 9.08C155.27 9.94 155.76 10.87 156.15 11.87C156.54 12.86 157.11 13.75 157.85 14.53C158.36 14.49 158.85 14.52 159.32 14.62C159.79 14.72 160.25 14.82 160.72 14.94C161.19 15.06 161.65 15.17 162.1 15.26C162.55 15.36 163.03 15.41 163.54 15.41C164.16 15.41 164.89 15.19 165.73 14.74C166.57 14.29 167.41 13.75 168.25 13.13C169.09 12.5 169.92 11.88 170.74 11.28C171.56 10.67 172.3 10.21 172.97 9.9C173.16 9.24 173.48 8.68 173.91 8.23C174.34 7.78 174.79 7.35 175.25 6.94C175.72 6.53 176.16 6.08 176.57 5.6C176.98 5.11 177.27 4.51 177.42 3.81C178.05 3.5 178.59 3.1 179.06 2.61C179.53 2.12 179.97 1.59 180.38 1.03C180.79 0.46 181.2 -0.1 181.61 -0.64C182.02 -1.19 182.5 -1.68 183.05 -2.11C183.32 -2.58 183.55 -3.09 183.75 -3.63C183.95 -4.18 184.15 -4.73 184.37 -5.27C184.58 -5.82 184.82 -6.33 185.1 -6.8C185.37 -7.27 185.74 -7.66 186.21 -7.97C186.48 -7.73 186.66 -7.41 186.74 -7C186.82 -6.59 186.86 -6.16 186.88 -5.71C186.9 -5.26 186.95 -4.82 187.03 -4.39C187.11 -3.96 187.27 -3.61 187.5 -3.34C187.46 -3.14 187.41 -2.96 187.35 -2.78C187.29 -2.61 187.27 -2.42 187.27 -2.23C187.27 -1.68 187.41 -1.03 187.71 -0.26C188 0.5 188.34 1.29 188.73 2.11C189.12 2.93 189.52 3.73 189.93 4.51C190.34 5.29 190.64 5.98 190.84 6.56C191.46 6.72 191.88 7.01 192.07 7.44C192.27 7.87 192.56 8.26 192.95 8.61C193.3 8.96 193.7 9.23 194.15 9.4C194.6 9.58 194.9 9.94 195.06 10.49C195.84 10.68 196.66 10.82 197.52 10.9C198.38 10.98 199.24 11.02 200.1 11.02C200.49 11.02 200.87 11.01 201.24 10.99C201.61 10.97 201.99 10.96 202.38 10.96C203.32 10.02 204.28 9.11 205.25 8.23C206.23 7.35 207.18 6.45 208.1 5.51C209.01 4.57 209.85 3.57 210.62 2.52C211.38 1.46 212.01 0.29 212.52 -1C213.07 -1.35 213.45 -1.82 213.66 -2.4C213.88 -2.99 214.2 -3.52 214.63 -3.98C214.9 -5.35 215.21 -6.7 215.57 -8.03C215.92 -9.36 216.24 -10.67 216.53 -11.98C216.83 -13.29 217.07 -14.62 217.27 -15.97C217.46 -17.31 217.56 -18.71 217.56 -20.16C217.56 -20.47 217.63 -20.65 217.76 -20.71C217.9 -20.77 217.97 -20.9 217.97 -21.09C217.97 -21.29 217.95 -21.46 217.91 -21.62C217.87 -21.78 217.85 -21.95 217.85 -22.15C217.85 -22.81 217.94 -23.46 218.12 -24.08C218.29 -24.71 218.38 -25.35 218.38 -26.02C218.38 -26.8 218.37 -27.57 218.35 -28.33C218.33 -29.09 218.54 -29.79 218.96 -30.41C218.85 -31 218.79 -31.6 218.79 -32.23C218.79 -32.54 218.81 -32.84 218.85 -33.13C218.89 -33.43 219 -33.73 219.2 -34.04C218.96 -34.24 218.88 -34.5 218.94 -34.83C218.99 -35.17 218.95 -35.45 218.79 -35.68C219.06 -36.58 219.22 -37.51 219.26 -38.47C219.3 -39.42 219.32 -40.38 219.32 -41.34C219.32 -42.29 219.37 -43.23 219.46 -44.15C219.56 -45.07 219.82 -45.98 220.25 -46.87C219.94 -46.99 219.79 -47.29 219.81 -47.78C219.83 -48.27 219.84 -48.67 219.84 -48.98C219.84 -49.14 219.96 -49.47 220.2 -49.98C220.43 -50.49 220.59 -50.84 220.66 -51.04Z" fill="#FFFFFF"></path></g></g></svg>