<svg xmlns:xlink="http://www.w3.org/1999/xlink" id="SvgjsSvg1281" width="300" height="148" xmlns="http://www.w3.org/2000/svg" version="1.1" xlink="http://www.w3.org/1999/xlink" xmlns:svgjs="http://svgjs.com/svgjs" preserveAspectRatio="xMidYMid meet" viewBox="3.046110563786897e-8 0.000014960645785322413 147.67808532714844 146.99998474121094" overflow="visible"><defs id="SvgjsDefs1282"></defs><g id="SvgjsG1283" transform="scale(0.3225103654061678)" opacity="1"><g id="SvgjsG1284" class="W8mHJZ4CB" transform="translate(-8.760417040672577, -7.702657516117195) scale(4.660960177052413)" light-content="false" non-strokable="true" fill="#0598FA"><path d="M49.556 98.265l-5.709 1.047a8 8 0 0 1-5.963-1.267l-4.79-3.28a8 8 0 0 0-2.637-1.174l-5.642-1.365a8 8 0 0 1-4.932-3.583l-3.042-4.944a8 8 0 0 0-1.932-2.146l-4.598-3.541a8 8 0 0 1-3.048-5.28l-.768-5.753a8 8 0 0 0-.893-2.746l-2.76-5.106a8 8 0 0 1-.637-6.063l1.638-5.569a8 8 0 0 0 .302-2.871L3.7 38.836a8 8 0 0 1 1.884-5.798l3.762-4.42a8 8 0 0 0 1.443-2.5l1.948-5.469a8 8 0 0 1 4.079-4.53l5.234-2.508a8 8 0 0 0 2.336-1.698L28.39 7.71a8 8 0 0 1 5.57-2.48l5.802-.162a8 8 0 0 0 2.824-.6l5.367-2.212a8 8 0 0 1 6.096 0l5.367 2.212a8 8 0 0 0 2.824.6l5.802.162a8 8 0 0 1 5.57 2.48l4.003 4.203a8 8 0 0 0 2.336 1.698l5.234 2.508a8 8 0 0 1 4.08 4.53l1.947 5.468a8 8 0 0 0 1.443 2.5l3.762 4.421a8 8 0 0 1 1.884 5.798l-.445 5.788a8 8 0 0 0 .302 2.871l1.638 5.569a8 8 0 0 1-.637 6.063l-2.76 5.106a8 8 0 0 0-.893 2.746l-.768 5.753a8 8 0 0 1-3.048 5.28l-4.598 3.541a8 8 0 0 0-1.932 2.146l-3.042 4.944a8 8 0 0 1-4.932 3.583l-5.642 1.365a8 8 0 0 0-2.638 1.175l-4.789 3.279a8 8 0 0 1-5.963 1.267l-5.71-1.047a8 8 0 0 0-2.887 0z" fill="none" stroke="#0598FA" stroke-width="2px"></path></g><g id="SvgjsG1285" class="text" transform="translate(228.31232081821986, 248.89965141058636) scale(1)" light-content="false" fill="#3D3D3D"><path d="M-118.23 -41.4C-118.23 -41.8 -118.43 -42 -118.83 -42L-145.29 -42C-145.69 -42 -145.89 -41.8 -145.89 -41.4L-145.89 -40.5C-145.89 -40.1 -145.69 -39.9 -145.29 -39.9L-133.71 -39.9C-133.55 -39.9 -133.47 -39.82 -133.47 -39.66L-133.47 -0.6C-133.47 -0.2 -133.27 0 -132.87 0L-131.73 0C-131.33 0 -131.13 -0.2 -131.13 -0.6L-131.13 -39.66C-131.13 -39.82 -131.05 -39.9 -130.89 -39.9L-118.83 -39.9C-118.43 -39.9 -118.23 -40.1 -118.23 -40.5Z M-108.63 -0.6C-108.63 -0.2 -108.43 0 -108.03 0L-106.89 0C-106.49 0 -106.29 -0.2 -106.29 -0.6L-106.29 -41.4C-106.29 -41.8 -106.49 -42 -106.89 -42L-108.03 -42C-108.43 -42 -108.63 -41.8 -108.63 -41.4Z M-93.21 -0.6C-93.21 -0.2 -93.01 0 -92.61 0L-91.47 0C-91.07 0 -90.87 -0.2 -90.87 -0.6L-90.87 -37.26C-90.87 -37.38 -90.83 -37.45 -90.75 -37.47C-90.67 -37.49 -90.61 -37.44 -90.57 -37.32L-79.29 -19.86C-79.09 -19.58 -78.85 -19.44 -78.57 -19.44L-77.97 -19.44C-77.69 -19.44 -77.45 -19.58 -77.25 -19.86L-66.09 -37.32C-66.05 -37.44 -65.99 -37.49 -65.91 -37.47C-65.83 -37.45 -65.79 -37.38 -65.79 -37.26L-65.79 -0.6C-65.79 -0.2 -65.59 0 -65.19 0L-64.05 0C-63.65 0 -63.45 -0.2 -63.45 -0.6L-63.45 -41.4C-63.45 -41.8 -63.65 -42 -64.05 -42L-65.25 -42C-65.53 -42 -65.77 -41.86 -65.97 -41.58L-78.21 -22.62C-78.25 -22.58 -78.31 -22.56 -78.39 -22.56C-78.47 -22.56 -78.53 -22.58 -78.57 -22.62L-90.63 -41.58C-90.83 -41.86 -91.07 -42 -91.35 -42L-92.61 -42C-93.01 -42 -93.21 -41.8 -93.21 -41.4Z M-25.71 -39.9C-25.31 -39.9 -25.11 -40.1 -25.11 -40.5L-25.11 -41.4C-25.11 -41.8 -25.31 -42 -25.71 -42L-50.85 -42C-51.25 -42 -51.45 -41.8 -51.45 -41.4L-51.45 -0.6C-51.45 -0.2 -51.25 0 -50.85 0L-25.71 0C-25.31 0 -25.11 -0.2 -25.11 -0.6L-25.11 -1.5C-25.11 -1.9 -25.31 -2.1 -25.71 -2.1L-48.87 -2.1C-49.03 -2.1 -49.11 -2.18 -49.11 -2.34L-49.11 -19.74C-49.11 -19.9 -49.03 -19.98 -48.87 -19.98L-32.31 -19.98C-31.91 -19.98 -31.71 -20.18 -31.71 -20.58L-31.71 -21.54C-31.71 -21.94 -31.91 -22.14 -32.31 -22.14L-48.87 -22.14C-49.03 -22.14 -49.11 -22.22 -49.11 -22.38L-49.11 -39.66C-49.11 -39.82 -49.03 -39.9 -48.87 -39.9Z M23.13 -39.9C23.53 -39.9 23.73 -40.1 23.73 -40.5L23.73 -41.4C23.73 -41.8 23.53 -42 23.13 -42L-1.95 -42C-2.35 -42 -2.55 -41.8 -2.55 -41.4L-2.55 -0.6C-2.55 -0.2 -2.35 0 -1.95 0L-0.81 0C-0.41 0 -0.21 -0.2 -0.21 -0.6L-0.21 -19.74C-0.21 -19.9 -0.13 -19.98 0.03 -19.98L16.53 -19.98C16.93 -19.98 17.13 -20.18 17.13 -20.58L17.13 -21.54C17.13 -21.94 16.93 -22.14 16.53 -22.14L0.03 -22.14C-0.13 -22.14 -0.21 -22.22 -0.21 -22.38L-0.21 -39.66C-0.21 -39.82 -0.13 -39.9 0.03 -39.9Z M31.77 -0.6C31.77 -0.2 31.97 0 32.37 0L56.13 0C56.53 0 56.73 -0.2 56.73 -0.6L56.73 -1.5C56.73 -1.9 56.53 -2.1 56.13 -2.1L34.35 -2.1C34.19 -2.1 34.11 -2.18 34.11 -2.34L34.11 -41.4C34.11 -41.8 33.91 -42 33.51 -42L32.37 -42C31.97 -42 31.77 -41.8 31.77 -41.4Z M70.68 -1.2C72.74 -0.08 75.11 0.48 77.79 0.48C80.51 0.48 82.9 -0.08 84.96 -1.2C87.02 -2.32 88.62 -3.89 89.76 -5.91C90.9 -7.93 91.47 -10.26 91.47 -12.9L91.47 -29.04C91.47 -31.68 90.9 -34.02 89.76 -36.06C88.62 -38.1 87.02 -39.68 84.96 -40.8C82.9 -41.92 80.51 -42.48 77.79 -42.48C75.11 -42.48 72.74 -41.92 70.68 -40.8C68.62 -39.68 67.03 -38.1 65.91 -36.06C64.79 -34.02 64.23 -31.68 64.23 -29.04L64.23 -12.9C64.23 -10.26 64.79 -7.93 65.91 -5.91C67.03 -3.89 68.62 -2.32 70.68 -1.2ZM86.01 -4.68C83.93 -2.64 81.19 -1.62 77.79 -1.62C74.43 -1.62 71.72 -2.64 69.66 -4.68C67.6 -6.72 66.57 -9.42 66.57 -12.78L66.57 -29.1C66.57 -32.5 67.6 -35.23 69.66 -37.29C71.72 -39.35 74.43 -40.38 77.79 -40.38C81.19 -40.38 83.93 -39.35 86.01 -37.29C88.09 -35.23 89.13 -32.5 89.13 -29.1L89.13 -12.78C89.13 -9.42 88.09 -6.72 86.01 -4.68Z M109.89 -0.48C110.01 -0.16 110.23 0 110.55 0L111.75 0C112.11 0 112.33 -0.18 112.41 -0.54L122.31 -37.62C122.35 -37.7 122.4 -37.74 122.46 -37.74C122.52 -37.74 122.57 -37.7 122.61 -37.62L132.57 -0.54C132.65 -0.18 132.87 0 133.23 0L134.49 0C134.81 0 135.03 -0.16 135.15 -0.48L147.15 -41.34C147.19 -41.54 147.16 -41.7 147.06 -41.82C146.96 -41.94 146.81 -42 146.61 -42L145.47 -42C145.15 -42 144.93 -41.84 144.81 -41.52L134.07 -4.92C134.03 -4.84 133.98 -4.8 133.92 -4.8C133.86 -4.8 133.81 -4.84 133.77 -4.92L123.69 -41.46C123.61 -41.82 123.39 -42 123.03 -42L121.77 -42C121.41 -42 121.19 -41.82 121.11 -41.46L111.33 -4.92C111.29 -4.84 111.24 -4.8 111.18 -4.8C111.12 -4.8 111.07 -4.84 111.03 -4.92L100.35 -41.52C100.23 -41.84 100.01 -42 99.69 -42L98.55 -42C98.15 -42 97.95 -41.84 97.95 -41.52L98.01 -41.34Z" fill="#3D3D3D"></path></g></g></svg>