<svg xmlns:xlink="http://www.w3.org/1999/xlink" id="SvgjsSvg1274" width="300" height="148" xmlns="http://www.w3.org/2000/svg" version="1.1" xlink="http://www.w3.org/1999/xlink" xmlns:svgjs="http://svgjs.com/svgjs" preserveAspectRatio="xMidYMid meet" viewBox="0 -2.2551918732460763e-7 161.578857421875 147.00001525878906" overflow="visible"><defs id="SvgjsDefs1275"></defs><g id="SvgjsG1276" transform="scale(0.44504725978044335)" opacity="1"><g id="SvgjsG1277" class="2pNRMRZEw" transform="translate(11.193538638818836, -43.26546136118117) scale(3.406729292201828)" light-content="false" non-strokable="false" fill="#52AEF4"><path d="M51.1 56.4h.2c.2 0 .3-.1.4-.1h.2c.1 0 .3-.1.4-.2.1 0 .1 0 .2-.1.2-.1.3-.1.5-.2h.1c2-1.1 3.4-3.2 3.4-5.7 0-.9-.2-1.8-.6-2.6l11.6-11.6-3.3-3.3-11.6 11.5s-.1 0-.1-.1c0 0-.1 0-.2-.1s-.3-.1-.4-.2h-.2c-.1 0-.3-.1-.4-.1h-.2c-.2 0-.3-.1-.5-.1H50c-1.7 0-3.3.7-4.6 1.9-.6.6-1.1 1.4-1.5 2.2h-13v4.7H44c.3.8.8 1.6 1.5 2.2 1.2 1.2 2.8 1.9 4.6 1.9h1zM48.2 50c0-1 .8-1.8 1.8-1.8.5 0 .9.2 1.3.5.3.3.5.8.5 1.3s-.2.9-.5 1.3c-.5.5-1.4.6-2.1.3-.6-.3-1-.9-1-1.6zM23.6 30.8l-3.8-2.7c1.1-1.6 2.4-3.1 3.8-4.4l3.3 3.3c-1.2 1.1-2.3 2.5-3.3 3.8zm4.5-11c1.6-1.1 3.3-2.2 5-3.1l2.1 4.2c-1.5.8-3 1.7-4.4 2.7l-2.7-3.8zM21 64.9c.8 1.5 1.7 3 2.7 4.4L19.9 72c-1.1-1.6-2.2-3.2-3.1-5l4.2-2.1zm-2-4.8l-4.4 1.5c-.6-1.8-1.1-3.8-1.4-5.7l4.6-.7c.3 1.7.7 3.3 1.2 4.9zm-1.6-10h-4.7V50c0-2 .2-3.9.5-5.8l4.6.7c-.3 1.7-.4 3.4-.4 5.2zm-.6-17l4.2 2.1c-.8 1.5-1.4 3.1-2 4.7l-4.4-1.4c.5-1.9 1.3-3.7 2.2-5.4zm52.4 43.3l2.8 3.8c-1.6 1.1-3.2 2.2-5 3.1l-2.1-4.2c1.5-.8 2.9-1.7 4.3-2.7zM60.1 81l1.4 4.4c-1.8.6-3.8 1.1-5.7 1.4l-.7-4.6c1.7-.2 3.4-.7 5-1.2zm16.3-57.4l-3.3 3.3c-1.2-1.2-2.5-2.3-3.9-3.3l2.7-3.8c1.6 1.2 3.1 2.4 4.5 3.8zm3.8 4.5c1.1 1.6 2.2 3.2 3.1 5l-4.2 2.1c-.8-1.5-1.7-3-2.7-4.4l3.8-2.7zm-3.8 41l3.8 2.7c-1.1 1.6-2.4 3.1-3.8 4.5L73.1 73c1.2-1.2 2.3-2.5 3.3-3.9zM82.6 50h4.7v.1c0 1.9-.2 3.8-.4 5.7l-4.6-.7c.2-1.7.3-3.4.3-5.1zM35.2 79.1c1.5.8 3.1 1.4 4.7 2l-1.4 4.4c-1.9-.6-3.7-1.3-5.4-2.2l2.1-4.2zm47-34.2c-.3-1.7-.7-3.4-1.2-5l4.4-1.4c.6 1.9 1.1 3.8 1.4 5.7l-4.6.7zM50 82.6l.1 4.7H50c-1.9 0-3.9-.1-5.8-.4l.7-4.6c1.7.2 3.4.3 5.1.3zm-23-9.5c1.2 1.2 2.5 2.3 3.9 3.3l-2.7 3.8c-1.6-1.1-3.1-2.4-4.5-3.8l3.3-3.3zM81 60l4.4 1.4c-.6 1.9-1.4 3.7-2.2 5.4L79 64.7c.9-1.4 1.5-3 2-4.7zM50 17.4v-4.7c1.9 0 3.9.2 5.8.5l-.7 4.6c-1.7-.3-3.4-.4-5.1-.4zm-11.5-2.9c1.9-.6 3.8-1.1 5.7-1.4l.7 4.6c-1.7.3-3.4.7-5 1.2l-1.4-4.4zm26.3 6.4c-1.5-.8-3.1-1.4-4.7-2l1.4-4.4c1.9.6 3.7 1.4 5.4 2.2l-2.1 4.2z" fill="#52AEF4"></path></g><g id="SvgjsG1278" class="text" transform="translate(181.44000244140625, 329.10199908447265) scale(1)" light-content="false" fill="#52AEF4"><path d="M-151.02 -41.76L-181.44 -41.76L-181.44 -32.76L-172.56 -32.76L-172.56 0L-160.44 0L-160.44 -32.76L-152.22 -32.76Z M-125.22 -41.76L-137.34 -41.76L-137.34 0L-125.22 0Z M-68.34 0L-70.98 -41.76L-85.92 -41.76L-89.22 -14.58L-92.94 -41.76L-107.76 -41.76L-110.4 0L-98.82 0L-98.7 -15L-98.7 -17.04C-98.7 -21.08 -98.9 -25.98 -99.3 -31.74L-95.1 -4.26L-83.7 -4.26L-79.8 -31.74C-80 -28.1 -80.1 -24.08 -80.1 -19.68L-80.1 -15L-80.04 0Z M-28.14 -41.76L-53.58 -41.76L-53.58 0L-28.5 0L-28.5 -8.52L-41.46 -8.52L-41.46 -17.1L-30.78 -17.1L-30.78 -25.26L-41.46 -25.26L-41.46 -33.36L-29.34 -33.36Z M10.08 0L22.2 0L22.2 -15.54L32.1 -15.54L32.1 -24L22.2 -24L22.2 -33.36L33.42 -33.36L34.62 -41.76L10.08 -41.76Z M60.66 -41.76L48.54 -41.76L48.54 0L73.44 0L74.7 -9.3L60.66 -9.3Z M116.82 -37.35C113.78 -41.09 109.36 -42.96 103.56 -42.96C97.76 -42.96 93.33 -41.06 90.27 -37.26C87.21 -33.46 85.68 -28.02 85.68 -20.94C85.68 -13.74 87.21 -8.25 90.27 -4.47C93.33 -0.69 97.76 1.2 103.56 1.2C109.32 1.2 113.73 -0.72 116.79 -4.56C119.85 -8.4 121.38 -13.86 121.38 -20.94C121.38 -28.14 119.86 -33.61 116.82 -37.35ZM100.44 -33.09C101.2 -33.95 102.24 -34.38 103.56 -34.38C104.84 -34.38 105.87 -33.95 106.65 -33.09C107.43 -32.23 107.99 -30.82 108.33 -28.86C108.67 -26.9 108.84 -24.26 108.84 -20.94C108.84 -17.5 108.68 -14.81 108.36 -12.87C108.04 -10.93 107.5 -9.53 106.74 -8.67C105.98 -7.81 104.92 -7.38 103.56 -7.38C102.24 -7.38 101.2 -7.81 100.44 -8.67C99.68 -9.53 99.13 -10.93 98.79 -12.87C98.45 -14.81 98.28 -17.5 98.28 -20.94C98.28 -24.3 98.45 -26.95 98.79 -28.89C99.13 -30.83 99.68 -32.23 100.44 -33.09Z M181.62 -41.76L170.28 -41.76L167.4 -8.76L164.4 -41.76L151.98 -41.76L148.44 -8.76L146.28 -41.76L134.52 -41.76L139.38 0L154.8 0L157.98 -30.36L160.8 0L176.52 0Z" fill="#52AEF4"></path></g></g></svg>